<?xml version="1.0" standalone="no"?>
<!DOCTYPE svg PUBLIC "-//W3C//DTD SVG 20010904//EN"
 "http://www.w3.org/TR/2001/REC-SVG-20010904/DTD/svg10.dtd">
<svg version="1.0" xmlns="http://www.w3.org/2000/svg"
 width="624.000000pt" height="1280.000000pt" viewBox="0 0 624.000000 1280.000000"
 preserveAspectRatio="xMidYMid meet">
<metadata>
Created by potrace 1.15, written by Peter Selinger 2001-2017
</metadata>
<g transform="translate(0.000000,1280.000000) scale(0.100000,-0.100000)"
fill="#000000" stroke="none">
<path d="M3714 12755 c-4 -8 -4 -21 -1 -29 3 -8 -1 -22 -8 -33 -8 -10 -15 -34
-15 -54 0 -24 -5 -39 -16 -43 -12 -5 -15 -18 -12 -59 3 -52 3 -52 -29 -55 -39
-4 -45 -17 -27 -67 25 -72 13 -99 -33 -74 -20 11 -26 11 -33 -1 -11 -17 -4
-65 16 -124 8 -21 14 -48 14 -59 0 -19 -2 -19 -28 6 -32 31 -44 33 -66 11 -20
-19 -20 -71 -1 -104 8 -14 15 -36 15 -50 0 -14 7 -34 15 -44 18 -23 20 -56 4
-56 -6 0 -27 17 -46 38 -33 36 -35 36 -49 18 -21 -29 -18 -114 6 -161 11 -22
20 -44 20 -50 0 -5 18 -37 40 -70 37 -55 52 -105 32 -105 -5 0 -21 14 -37 30
-16 17 -33 30 -39 30 -5 0 -19 9 -30 19 -35 33 -110 80 -118 75 -13 -8 -8 -97
7 -124 8 -14 14 -34 15 -45 0 -12 21 -41 46 -65 25 -25 52 -59 59 -77 7 -17
26 -42 40 -55 15 -13 38 -39 51 -58 13 -19 31 -45 40 -58 32 -44 1 -45 -58 -2
-31 22 -68 40 -81 40 -14 0 -39 11 -55 25 -31 26 -66 33 -77 14 -5 -7 -25 -8
-55 -4 -56 8 -69 -4 -46 -40 9 -13 16 -30 16 -38 0 -7 10 -23 23 -34 12 -12
29 -32 39 -45 9 -14 48 -40 87 -58 39 -19 70 -39 67 -46 -6 -15 3 -25 48 -59
39 -30 116 -125 116 -145 0 -21 -28 -9 -58 25 -21 22 -38 32 -48 28 -10 -3
-27 7 -48 30 -22 25 -44 37 -72 42 -21 3 -61 17 -87 31 -62 33 -190 46 -200
21 -4 -11 5 -25 28 -43 19 -14 35 -31 35 -36 0 -6 14 -26 30 -45 17 -18 30
-41 30 -50 0 -20 29 -42 55 -43 27 0 45 -19 45 -47 0 -16 18 -34 73 -70 39
-26 103 -80 140 -120 l69 -71 -18 -27 c-25 -39 -54 -30 -71 22 -18 53 -78 109
-99 92 -8 -6 -14 -20 -14 -30 0 -31 -20 -31 -38 1 -23 42 -116 88 -143 72 -15
-10 -25 -7 -55 13 -26 18 -44 23 -58 18 -12 -4 -48 -6 -81 -4 -125 7 -120 8
-123 -17 -2 -14 8 -35 27 -58 17 -19 31 -39 31 -44 0 -5 14 -16 30 -25 23 -12
30 -22 30 -44 0 -32 13 -45 53 -55 28 -7 35 -24 16 -43 -18 -18 -2 -43 28 -44
36 0 116 -33 121 -48 2 -7 -4 -21 -13 -31 -15 -16 -15 -22 -5 -35 7 -8 17 -15
22 -15 6 0 57 -24 114 -52 80 -41 104 -58 104 -73 0 -24 96 -100 210 -166 115
-67 158 -106 195 -179 39 -79 72 -270 46 -270 -10 0 -24 34 -47 115 -19 69
-75 185 -98 204 -14 12 -19 11 -34 -3 -29 -25 -40 -20 -68 37 -29 58 -71 107
-91 107 -7 0 -18 -11 -23 -25 -11 -29 -36 -33 -45 -7 -10 31 -55 73 -87 83
-28 8 -36 5 -61 -19 l-29 -27 -18 22 c-67 83 -70 85 -99 80 -23 -5 -34 0 -59
29 -31 35 -76 46 -99 23 -7 -7 -17 -8 -29 -1 -11 5 -49 12 -86 16 -58 6 -68 4
-76 -11 -10 -19 8 -76 28 -88 5 -3 10 -19 10 -34 0 -20 8 -34 25 -45 16 -11
25 -26 25 -43 0 -18 11 -36 33 -54 32 -26 32 -27 13 -48 -27 -30 -14 -48 41
-56 51 -7 149 -53 147 -70 -1 -6 -14 -17 -30 -25 -40 -21 -45 -30 -40 -67 7
-51 -12 -49 -61 6 -45 51 -78 65 -89 36 -7 -17 -49 -20 -59 -5 -9 15 -41 12
-56 -6 -9 -11 -22 -14 -41 -10 -16 3 -55 3 -88 -1 -70 -7 -75 -18 -30 -70 17
-18 30 -42 30 -53 0 -10 13 -28 29 -39 21 -15 28 -27 24 -41 -4 -17 2 -24 36
-37 47 -18 50 -27 19 -52 -24 -20 -17 -41 15 -41 39 0 98 -21 104 -36 3 -8 -2
-23 -11 -33 -9 -10 -16 -25 -16 -33 0 -21 52 -41 91 -36 18 3 53 -3 81 -14 26
-10 64 -18 83 -18 52 0 44 -42 -10 -51 -38 -8 -50 -144 -20 -238 7 -19 5 -22
-11 -19 -15 2 -20 15 -25 54 -4 28 -12 61 -19 74 -19 36 -88 107 -143 147 -47
35 -50 36 -63 18 -8 -10 -14 -27 -14 -36 0 -36 -22 -29 -84 25 -74 64 -103 71
-113 26 -8 -43 -20 -46 -50 -11 -35 40 -79 43 -93 6 -11 -30 -13 -30 -48 -5
-32 23 -68 18 -75 -12 -5 -17 -10 -19 -34 -12 -47 13 -195 6 -211 -10 -13 -13
-11 -18 12 -39 14 -13 26 -29 26 -34 0 -6 7 -16 15 -23 8 -7 15 -24 15 -39 0
-18 7 -29 23 -36 15 -7 21 -17 19 -32 -4 -26 2 -29 52 -37 21 -4 42 -9 47 -12
16 -9 9 -35 -13 -54 -35 -28 -14 -52 63 -71 43 -11 65 -22 67 -33 2 -9 -1 -16
-7 -16 -19 0 -51 -39 -45 -55 5 -11 21 -15 64 -15 86 0 151 -11 157 -27 3 -8
-4 -24 -16 -37 -30 -32 -28 -66 3 -66 14 0 28 -5 32 -11 4 -8 29 -10 71 -6 55
4 65 2 74 -14 7 -14 20 -18 49 -17 48 2 60 -8 34 -26 -61 -44 -61 -45 -40 -61
11 -8 37 -15 58 -15 39 0 49 -15 26 -38 -8 -8 -8 -15 2 -27 11 -13 9 -19 -10
-40 l-22 -24 21 -29 c21 -31 29 -92 11 -92 -13 0 -26 26 -55 116 -26 79 -69
149 -86 139 -5 -3 -34 19 -64 50 -35 36 -61 55 -72 53 -18 -4 -19 -10 -7 -61
4 -19 1 -33 -11 -47 -15 -16 -15 -24 -5 -55 23 -70 5 -58 -79 53 -54 71 -77
86 -86 57 -3 -8 -8 -23 -11 -32 -4 -14 -17 -5 -62 44 -31 34 -67 67 -79 73
-33 16 -63 -3 -63 -39 0 -43 -10 -44 -56 -1 -52 48 -90 53 -104 15 -11 -28
-31 -32 -50 -10 -17 21 -67 19 -81 -3 -10 -16 -22 -18 -95 -14 -60 3 -84 1
-84 -7 0 -17 53 -81 67 -81 19 0 27 -21 12 -31 -24 -15 3 -44 45 -47 36 -3 46
-18 25 -39 -19 -19 0 -35 32 -28 64 14 93 -22 39 -50 -16 -9 -30 -20 -30 -26
0 -6 -14 -7 -35 -3 -32 6 -35 4 -35 -18 0 -31 -23 -63 -39 -54 -6 4 -20 24
-30 44 -10 20 -28 45 -40 56 -19 18 -22 18 -46 2 -27 -18 -45 -14 -45 9 0 8
-11 22 -24 30 -20 13 -29 14 -47 5 -14 -8 -28 -9 -43 -2 -37 17 -92 32 -115
32 -30 0 -36 -22 -16 -64 9 -19 13 -40 9 -47 -4 -8 4 -21 21 -35 l29 -23 -24
-19 -24 -20 47 -33 c51 -36 57 -60 18 -69 -62 -14 -15 -55 107 -91 98 -30 97
-49 -2 -49 -82 0 -111 -15 -85 -46 12 -15 27 -24 162 -92 62 -31 64 -42 6 -42
-21 0 -47 -8 -59 -18 -19 -15 -21 -22 -12 -39 12 -22 60 -43 99 -43 14 0 37
-6 51 -14 15 -8 69 -26 121 -40 51 -14 96 -28 99 -31 13 -13 -15 -19 -86 -16
-69 2 -82 -1 -115 -23 -21 -14 -51 -33 -67 -41 -17 -9 -30 -22 -30 -31 0 -17
39 -34 83 -34 18 0 41 -7 51 -15 11 -8 40 -15 65 -15 25 0 59 -7 75 -15 15 -8
45 -15 65 -15 45 0 199 -25 208 -33 7 -8 -78 -45 -127 -56 -19 -4 -34 -13 -33
-19 3 -12 -89 -62 -113 -62 -8 0 -19 12 -25 27 -12 32 -58 82 -76 83 -29 0
-62 -25 -79 -61 -22 -51 -38 -45 -42 16 -3 51 -26 87 -90 140 -31 26 -34 27
-52 10 -25 -23 -42 -10 -60 45 -15 46 -79 110 -110 110 -11 0 -25 -9 -32 -20
-18 -28 -29 -25 -67 14 -19 19 -47 40 -63 47 -25 10 -32 9 -53 -11 l-24 -22
-27 21 c-33 26 -54 27 -86 1 -19 -14 -34 -18 -60 -14 -21 4 -38 2 -42 -5 -4
-6 -19 -11 -34 -11 -39 -1 -112 -36 -112 -55 0 -8 9 -15 20 -15 10 0 23 -6 27
-12 16 -25 97 -57 131 -51 25 4 32 2 32 -11 0 -12 10 -16 39 -16 52 0 61 -17
25 -45 -25 -20 -27 -24 -14 -40 12 -14 25 -16 67 -12 73 8 130 -15 139 -56 7
-35 -9 -50 -47 -42 -34 8 -59 -19 -41 -43 7 -10 20 -29 30 -44 9 -15 31 -33
47 -40 17 -6 40 -22 52 -35 12 -13 33 -23 46 -23 22 0 47 -16 47 -31 0 -16
-32 -39 -53 -39 -29 0 -77 -52 -77 -83 0 -25 23 -57 40 -57 5 0 10 -15 12 -32
3 -33 3 -33 60 -33 42 -1 61 -5 70 -18 9 -11 34 -19 73 -22 83 -9 183 -35 189
-51 10 -26 -18 -34 -79 -22 -61 12 -136 1 -182 -28 -12 -8 -31 -14 -42 -14
-11 0 -22 -4 -25 -9 -9 -13 17 -59 41 -72 12 -6 24 -21 27 -33 7 -28 37 -45
94 -53 26 -3 54 -11 62 -18 9 -8 60 -16 130 -20 153 -8 283 -44 365 -100 92
-63 67 -78 -44 -28 -31 14 -77 26 -103 28 -26 2 -75 9 -108 16 -45 9 -67 9
-83 1 -12 -7 -44 -13 -72 -14 -41 -3 -52 -7 -60 -25 -7 -17 -18 -23 -42 -23
-44 0 -63 -9 -63 -31 0 -12 -13 -24 -35 -33 -19 -8 -35 -20 -35 -25 0 -11 40
-51 51 -51 4 0 9 -10 11 -22 2 -19 11 -24 46 -29 40 -5 55 -16 65 -44 2 -6 39
-10 82 -10 72 0 78 -2 86 -23 7 -19 14 -23 36 -18 77 14 159 16 253 6 58 -7
125 -12 150 -11 52 2 157 -38 248 -93 60 -36 120 -92 110 -102 -7 -7 -58 18
-115 57 -45 31 -154 54 -318 65 -96 7 -109 2 -117 -41 -3 -17 -13 -21 -80 -25
-61 -4 -81 -9 -100 -27 -14 -13 -33 -23 -44 -23 -25 0 -38 -10 -53 -37 -8 -16
-21 -23 -39 -23 -16 0 -33 -5 -40 -12 -19 -19 -14 -49 9 -55 11 -3 25 -16 30
-29 6 -18 16 -24 39 -24 27 0 30 -3 25 -21 -5 -14 -2 -25 6 -30 15 -9 57 -2
76 13 18 15 43 2 43 -21 0 -24 37 -37 78 -27 15 4 54 12 86 18 55 9 61 8 75
-11 16 -21 17 -21 136 -4 103 14 141 14 265 5 231 -19 261 -26 351 -79 43 -26
75 -51 71 -55 -5 -5 -53 7 -108 26 -54 19 -130 39 -169 44 -38 6 -78 13 -87
17 -11 4 -20 0 -28 -14 -8 -17 -20 -21 -59 -21 -32 0 -64 -8 -96 -25 -26 -14
-68 -28 -94 -32 -51 -6 -81 -27 -81 -54 0 -11 -13 -25 -32 -34 -18 -8 -40 -18
-48 -23 -8 -5 -24 -13 -34 -19 -29 -14 -30 -27 -1 -61 17 -20 37 -32 57 -34
25 -2 34 -9 38 -28 5 -23 12 -25 70 -30 58 -5 65 -7 70 -30 5 -20 13 -26 44
-30 22 -3 43 -12 49 -21 13 -21 1 -69 -18 -69 -17 0 -20 -27 -6 -49 6 -9 6
-22 -1 -34 -12 -23 6 -100 28 -118 22 -18 16 -45 -12 -58 -34 -15 -40 -9 -48
43 -4 24 -15 51 -25 60 -11 10 -22 37 -25 61 -7 46 -38 95 -60 95 -8 0 -33 18
-56 40 -23 22 -51 40 -61 40 -11 0 -37 11 -59 25 -22 14 -48 25 -59 25 -11 0
-32 5 -47 12 -22 10 -28 10 -39 -5 -16 -22 -24 -21 -55 3 -14 11 -35 20 -46
20 -12 0 -27 6 -34 14 -6 8 -26 16 -43 18 -22 2 -33 9 -36 23 -2 11 -12 26
-22 33 -11 7 -17 18 -13 23 7 13 -15 69 -28 69 -5 0 -21 9 -36 19 -49 35 -65
34 -115 -5 -26 -20 -47 -45 -47 -54 0 -10 -11 -25 -25 -34 -17 -11 -25 -26
-25 -45 0 -16 -7 -34 -15 -41 -23 -19 -45 5 -45 51 0 41 -32 104 -60 119 -10
6 -38 10 -63 10 -34 0 -48 -5 -65 -25 -12 -14 -26 -25 -32 -25 -5 0 -12 -11
-16 -25 -3 -14 -12 -25 -20 -25 -16 0 -24 31 -21 85 2 40 2 40 -38 43 -31 2
-49 -3 -75 -23 -19 -14 -43 -28 -53 -31 -11 -4 -44 -20 -75 -36 -53 -27 -58
-27 -69 -11 -7 9 -13 20 -13 24 0 17 -41 19 -69 5 -17 -9 -40 -16 -53 -16 -13
0 -36 -7 -53 -16 -74 -41 -106 -54 -129 -54 -29 0 -110 -72 -104 -92 3 -7 15
-14 27 -16 22 -4 22 -5 4 -48 -9 -23 28 -22 76 1 27 14 62 25 77 25 l29 -1
-25 -20 c-14 -11 -41 -30 -60 -43 -19 -12 -35 -28 -35 -36 0 -29 52 -22 124
15 45 23 80 35 98 33 26 -3 21 -8 -55 -57 -46 -29 -81 -59 -79 -65 6 -16 83
-10 124 9 39 19 272 40 286 26 10 -10 4 -14 -47 -31 -22 -7 -62 -26 -88 -41
-27 -16 -51 -29 -53 -29 -10 0 -95 -87 -95 -98 0 -13 20 -18 102 -26 47 -5 64
-2 100 17 94 49 189 69 357 74 106 3 132 1 129 -9 -6 -17 -80 -36 -144 -37
-41 -1 -73 -12 -162 -56 -103 -52 -130 -74 -116 -96 3 -5 20 -9 39 -9 19 0 37
-5 41 -11 4 -7 43 -10 103 -10 119 2 211 -8 211 -21 0 -6 16 -8 43 -4 23 4 68
9 99 12 l57 6 3 -33 3 -33 110 -1 c123 -1 141 -8 203 -77 26 -29 42 -38 67
-38 19 0 39 -8 50 -20 15 -17 31 -20 92 -20 40 0 73 -4 73 -9 0 -18 -44 -41
-77 -41 -28 0 -36 -6 -53 -39 -11 -22 -24 -42 -30 -46 -17 -10 -12 -55 8 -62
9 -3 29 -17 44 -31 18 -16 33 -22 44 -18 12 5 24 0 35 -15 12 -17 26 -22 53
-21 28 1 39 -4 52 -23 14 -21 24 -25 68 -25 57 0 68 -5 85 -38 6 -12 20 -22
31 -22 10 0 22 -5 25 -10 4 -6 15 -8 25 -5 12 4 31 -2 48 -15 l29 -21 61 20
c70 24 110 26 135 7 27 -21 20 -26 -28 -19 -48 6 -54 0 -29 -28 26 -29 10 -53
-31 -46 -37 6 -49 -3 -50 -38 0 -16 -8 -21 -40 -25 -40 -5 -44 -11 -34 -49 2
-8 -7 -20 -19 -27 -41 -21 -47 -32 -29 -52 22 -25 22 -31 -8 -62 -31 -32 -65
-122 -58 -150 8 -29 -5 -70 -22 -70 -20 0 -19 -15 5 -78 25 -66 25 -88 0 -95
-17 -4 -20 -14 -20 -65 0 -34 5 -64 10 -67 23 -14 9 -45 -26 -60 -20 -8 -40
-12 -45 -9 -5 3 -9 35 -9 72 0 37 -7 135 -15 217 -8 83 -17 180 -19 217 -6 80
-18 106 -54 113 -44 10 -55 19 -66 58 -14 47 -117 142 -147 134 -10 -3 -37 2
-59 10 -38 15 -51 34 -65 96 -4 20 -16 33 -39 42 -18 8 -39 21 -46 30 -17 20
-64 45 -85 45 -10 0 -15 -10 -15 -30 0 -23 -6 -33 -25 -40 -29 -11 -29 -11
-13 -45 10 -22 9 -27 -8 -39 -17 -13 -18 -18 -7 -47 12 -30 11 -35 -13 -60
l-25 -26 28 -57 c23 -48 25 -58 13 -66 -18 -11 -9 -39 63 -193 27 -59 47 -110
44 -113 -3 -3 -15 -3 -27 1 -55 17 -166 340 -161 466 2 60 -1 70 -24 95 -25
27 -32 43 -37 94 -2 16 -13 30 -33 39 -16 8 -38 25 -48 38 -10 13 -27 23 -37
23 -10 0 -22 5 -25 10 -3 6 -15 10 -26 10 -10 0 -28 5 -38 12 -24 15 -51 4
-51 -22 0 -11 -7 -23 -15 -26 -9 -4 -15 -19 -15 -39 0 -19 -5 -37 -11 -41 -7
-4 -9 -21 -5 -42 3 -23 0 -44 -11 -63 -15 -26 -15 -30 5 -80 12 -28 22 -57 22
-64 0 -6 22 -40 50 -76 77 -99 63 -104 -33 -12 -45 43 -61 68 -86 133 -30 78
-36 90 -74 131 -17 19 -26 20 -95 14 -42 -4 -82 -11 -87 -16 -6 -4 -12 -31
-13 -59 -3 -84 -24 -93 -66 -30 -25 38 -28 40 -80 40 -59 0 -86 -19 -86 -61 0
-24 -16 -49 -31 -49 -3 0 -18 11 -33 25 -33 30 -36 31 -70 4 -19 -15 -26 -30
-26 -54 0 -41 -11 -49 -66 -46 -37 2 -47 -3 -74 -33 -18 -19 -45 -38 -61 -41
-15 -4 -45 -20 -65 -36 -20 -16 -41 -29 -47 -29 -6 0 -20 -9 -31 -19 -12 -10
-45 -31 -73 -46 -36 -18 -53 -33 -53 -46 0 -12 7 -19 18 -19 10 0 31 -13 46
-29 l29 -30 28 21 c36 27 45 19 24 -21 -9 -18 -13 -36 -10 -41 9 -15 31 -12
45 5 19 22 43 19 37 -5 -3 -10 0 -24 7 -29 16 -14 48 9 128 91 41 41 87 76
123 93 59 28 90 28 36 0 -17 -8 -31 -19 -31 -24 0 -5 -23 -32 -50 -60 -28 -28
-50 -56 -50 -62 0 -18 30 -21 55 -5 13 9 32 16 41 16 9 0 34 16 57 35 22 19
46 35 53 35 7 0 46 18 86 40 60 32 88 41 148 46 41 4 72 3 68 -1 -4 -4 -41
-22 -82 -40 -41 -18 -93 -47 -115 -64 -63 -50 -172 -173 -169 -190 5 -24 54
-25 91 -3 17 11 46 22 64 25 18 4 51 20 74 37 23 16 50 30 61 30 10 0 58 16
106 36 83 34 123 43 274 63 72 10 148 4 148 -10 0 -5 -21 -9 -47 -9 -27 0 -59
-6 -73 -13 -14 -7 -52 -19 -85 -27 -38 -9 -69 -24 -85 -40 -15 -16 -47 -31
-80 -40 -32 -7 -64 -23 -77 -36 -12 -13 -29 -24 -37 -24 -19 0 -59 -57 -52
-75 3 -9 28 -16 66 -21 45 -5 63 -12 71 -26 9 -17 17 -18 65 -12 38 4 59 2 69
-6 11 -9 32 -11 78 -5 34 5 83 8 109 7 26 -1 50 3 53 8 3 6 17 10 30 10 13 0
34 4 47 9 102 40 191 62 228 56 44 -7 44 -8 30 -36 -9 -15 -22 -19 -65 -19
-48 0 -54 -2 -57 -23 -2 -17 -10 -23 -38 -25 -85 -6 -102 -24 -34 -36 26 -5
34 -12 32 -24 -3 -18 -39 -29 -98 -31 -28 -1 -39 -7 -52 -28 -8 -16 -13 -33
-11 -40 2 -6 -3 -23 -12 -37 -21 -32 -13 -56 19 -56 14 0 28 -4 31 -10 3 -5
20 -10 36 -10 17 0 37 -7 46 -16 9 -8 23 -12 32 -9 44 17 71 17 71 1 0 -24 26
-30 70 -16 34 11 42 11 64 -4 17 -10 45 -16 78 -16 29 1 72 -2 96 -5 34 -6 55
-2 107 20 56 24 73 27 139 23 61 -4 83 -10 115 -32 39 -27 57 -53 46 -65 -4
-3 -37 11 -75 32 -82 45 -93 46 -84 11 7 -25 5 -27 -22 -20 -16 3 -46 9 -66
13 -36 5 -38 4 -38 -22 0 -22 -3 -26 -17 -19 -10 4 -42 10 -70 12 l-53 4 0
-32 c0 -31 -1 -31 -42 -28 -42 3 -43 2 -46 -28 -2 -22 -11 -35 -28 -42 -13 -7
-24 -16 -24 -22 0 -6 -11 -26 -25 -44 -34 -45 -33 -75 3 -82 16 -3 34 -17 44
-35 14 -24 23 -29 58 -29 38 0 40 -2 40 -29 0 -36 24 -46 76 -32 42 12 54 8
54 -18 0 -22 30 -51 53 -51 8 0 29 12 46 26 38 32 75 29 80 -6 6 -44 27 -46
120 -13 49 18 66 7 51 -33 -6 -16 -5 -26 6 -34 23 -20 17 -37 -21 -59 -40 -23
-53 -47 -36 -64 20 -20 12 -46 -16 -53 -57 -14 -73 -55 -28 -76 32 -14 32 -35
0 -50 -27 -12 -41 -41 -28 -60 4 -7 9 -31 10 -53 8 -110 2 -100 63 -100 30 0
63 -4 73 -9 13 -6 25 -2 43 15 l25 23 23 -28 c18 -24 27 -28 49 -22 15 3 27
12 27 20 0 7 7 19 15 26 13 11 20 9 44 -14 38 -37 69 -32 100 17 28 43 48 47
61 12 13 -34 52 -33 85 2 14 15 25 31 25 36 0 4 17 4 39 1 21 -3 41 -2 44 3 9
15 10 191 2 247 -12 76 11 55 87 -80 73 -131 75 -141 59 -280 -6 -43 -15 -155
-21 -249 -7 -93 -16 -194 -21 -224 -5 -30 -6 -58 -3 -62 5 -9 86 32 114 58 8
7 20 42 26 76 6 34 18 98 27 142 9 44 23 157 31 250 24 255 22 237 96 622 17
84 30 165 30 179 0 90 49 147 251 291 159 113 207 137 292 141 38 3 79 0 90
-5 12 -6 42 -16 67 -22 176 -48 236 -62 251 -58 9 2 27 -2 40 -9 31 -17 105
-17 144 0 21 9 37 10 55 3 14 -5 36 -11 50 -13 14 -2 40 -6 58 -10 38 -7 62 9
59 39 -2 20 2 22 51 19 31 -2 52 0 52 6 0 19 31 42 56 42 40 0 23 73 -21 90
-14 5 -25 16 -25 24 0 19 -11 25 -68 39 -33 9 -50 19 -59 37 -11 22 -20 26
-85 30 -67 5 -73 7 -70 26 3 25 -10 32 -81 40 -74 8 -222 -27 -332 -80 -113
-54 -139 -63 -133 -45 7 20 170 104 261 135 74 25 87 26 220 22 114 -4 169
-11 281 -37 76 -18 153 -31 170 -28 17 2 49 -2 72 -10 23 -8 62 -13 86 -11 36
2 44 7 46 26 3 19 9 22 47 22 24 0 56 -5 71 -10 22 -9 30 -7 46 10 10 11 29
20 42 20 13 0 31 9 41 20 18 20 17 21 -26 61 -24 23 -57 46 -72 51 -16 6 -32
21 -37 34 -9 23 -18 27 -93 39 -28 4 -40 12 -47 31 -11 28 -46 44 -96 44 -20
0 -37 6 -40 14 -4 9 -33 16 -94 20 -50 4 -92 11 -95 16 -14 23 54 27 574 34
58 1 86 5 88 14 3 7 23 12 52 12 40 0 49 4 59 24 6 14 22 26 41 29 43 9 41 39
-4 66 -20 11 -48 24 -63 27 -15 4 -34 13 -43 20 -8 8 -38 17 -65 20 -27 4 -58
13 -69 20 -14 10 -60 14 -167 14 -138 0 -179 8 -125 25 12 4 108 11 212 15
245 11 235 11 270 1 57 -16 147 50 109 81 -8 7 -23 20 -33 29 -10 9 -31 19
-46 23 -16 4 -40 16 -53 27 -14 10 -42 22 -64 25 -21 4 -38 11 -38 16 0 6 43
9 109 7 117 -4 145 5 139 45 -2 15 -20 26 -68 43 -75 27 -92 40 -70 53 8 6 21
8 28 5 8 -3 28 2 45 11 18 9 39 20 47 24 19 9 25 54 8 67 -7 6 -24 13 -37 15
-31 4 -38 24 -13 32 29 10 62 41 62 60 0 9 -11 21 -25 26 -28 11 -29 14 -15
41 8 14 7 25 -4 41 -10 15 -13 38 -10 65 3 23 0 44 -5 47 -5 3 -36 8 -70 9
-33 2 -67 10 -76 17 -13 11 -23 11 -46 3 -21 -8 -37 -8 -60 0 -28 11 -33 10
-53 -15 -27 -34 -36 -35 -66 -3 -14 15 -39 27 -67 31 -28 4 -57 17 -77 34 -25
22 -46 29 -99 35 -37 4 -70 11 -73 16 -3 5 -53 9 -112 9 -121 0 -154 10 -94
28 73 22 300 11 462 -22 104 -22 177 -20 228 4 51 25 54 49 11 82 -17 13 -43
35 -58 50 -21 22 -45 31 -114 45 -48 9 -87 20 -87 24 0 22 170 10 221 -17 16
-8 56 -14 91 -14 60 0 65 2 81 29 9 16 14 36 11 45 -7 19 -93 75 -131 85 -15
4 -28 14 -28 22 0 10 16 14 65 15 84 2 140 15 153 36 16 24 -10 66 -50 83 -18
8 -33 20 -33 28 0 12 64 47 87 47 5 0 18 9 28 20 15 17 16 24 7 45 -7 14 -20
25 -31 25 -59 0 -67 34 -16 68 39 25 42 34 20 56 -19 19 -19 25 2 48 14 16 14
21 2 46 -7 15 -18 59 -24 97 l-10 70 -66 1 c-36 0 -70 3 -76 7 -17 11 -43 -3
-43 -23 0 -27 -19 -34 -40 -15 -29 26 -54 15 -60 -25 -4 -20 -10 -41 -14 -48
-12 -21 -36 -14 -36 11 0 29 -18 47 -46 47 -24 0 -37 -25 -54 -104 -17 -79
-25 -86 -49 -46 -11 19 -23 47 -26 62 -5 22 -12 28 -33 28 -61 -1 -100 -71
-102 -180 0 -25 -3 -55 -6 -68 -7 -24 -24 -30 -24 -8 0 21 -68 159 -83 171 -8
6 -19 20 -26 33 -19 36 -71 23 -71 -19 0 -9 -9 -23 -21 -30 -21 -14 -21 -15
-5 -107 20 -114 22 -266 4 -260 -15 5 -25 45 -27 100 0 20 -7 43 -15 51 -8 8
-18 32 -22 53 -10 57 -45 114 -70 114 -20 0 -84 -54 -84 -71 0 -5 -7 -9 -15
-9 -28 0 -34 -39 -35 -239 0 -112 -4 -210 -9 -219 -14 -25 -38 32 -46 110 -5
42 -14 75 -25 88 -10 11 -23 41 -29 66 -8 32 -18 47 -35 54 -13 5 -26 20 -30
35 -4 14 -17 31 -30 37 -21 9 -29 6 -60 -24 -20 -19 -36 -42 -36 -51 0 -8 -7
-23 -15 -31 -9 -9 -18 -41 -21 -73 -7 -74 -19 -86 -47 -50 -66 84 -74 92 -89
79 -11 -9 -22 -9 -45 0 -45 17 -102 -9 -128 -58 -13 -24 -29 -40 -45 -44 -22
-5 -25 -12 -28 -57 -2 -30 3 -66 13 -88 20 -50 19 -53 -12 -57 -42 -5 -55 -56
-42 -156 36 -274 39 -402 12 -460 -21 -46 -142 -164 -163 -160 -17 4 -17 78 1
178 9 50 23 232 49 625 5 83 13 173 16 200 10 83 44 229 60 252 7 12 14 35 14
50 0 15 4 44 9 63 5 19 12 47 15 62 6 27 131 131 206 172 19 10 54 29 77 41
24 13 58 27 75 31 42 10 226 15 531 15 175 0 267 5 278 17 7 6 26 12 41 12 16
0 31 7 34 15 10 25 -5 65 -23 65 -10 0 -26 11 -38 24 -16 20 -32 26 -82 30
-34 2 -71 9 -82 15 -11 6 -29 11 -40 11 -11 0 -32 5 -48 11 -26 10 -27 12 -8
19 67 28 304 -12 432 -72 12 -6 30 -8 41 -6 11 3 53 -3 93 -13 94 -24 104 -24
128 2 15 17 23 19 39 10 30 -16 88 -13 103 5 9 11 22 14 45 10 23 -5 38 -1 55
13 l24 20 -40 40 c-21 23 -43 41 -48 41 -6 0 -19 11 -31 23 -13 14 -39 27 -64
31 -33 5 -45 12 -52 31 -11 28 -60 45 -133 45 -34 0 -49 5 -54 15 -3 9 -3 19
1 22 3 3 52 0 108 -8 57 -7 144 -14 193 -15 50 -1 118 -5 151 -9 57 -7 62 -6
78 16 10 15 27 24 45 25 33 2 101 49 101 70 0 7 -12 16 -27 20 -57 13 -148 53
-148 66 0 7 9 12 20 10 11 -2 45 -3 76 -2 30 0 74 -5 97 -13 38 -13 43 -13 58
4 9 10 33 19 53 21 33 3 36 6 36 33 0 27 -7 33 -84 72 -47 24 -91 43 -97 43
-16 0 -28 19 -19 28 7 7 98 12 215 12 53 -1 70 3 88 20 12 12 20 25 17 30 -8
14 -112 60 -134 60 -33 0 -75 20 -65 30 6 6 56 15 112 20 57 6 114 15 127 20
44 17 27 41 -42 59 -47 13 -57 36 -20 46 80 21 97 29 97 45 0 10 -9 20 -20 23
-11 3 -20 13 -20 22 0 9 9 19 20 22 17 5 20 14 20 70 0 76 -12 103 -45 103
-13 0 -27 5 -31 11 -4 7 -21 9 -40 6 -25 -4 -37 -1 -46 12 -22 29 -35 32 -61
11 -22 -17 -26 -18 -37 -5 -19 22 -46 18 -64 -10 -22 -33 -33 -32 -50 9 -8 18
-18 36 -24 39 -14 9 -89 -53 -103 -85 -14 -34 -35 -36 -45 -6 -10 32 -46 78
-61 78 -19 0 -63 -71 -63 -103 0 -15 -5 -60 -12 -99 -10 -63 -13 -69 -25 -52
-7 10 -13 30 -13 44 0 16 -10 35 -26 49 -31 27 -27 43 14 56 18 5 32 14 32 20
0 13 -91 75 -109 75 -7 0 -22 10 -34 23 -12 13 -41 29 -65 36 -25 7 -42 17
-39 24 7 21 77 19 137 -3 54 -20 60 -21 88 -6 23 12 37 13 57 6 36 -14 98 -13
113 2 7 7 26 13 43 14 39 2 42 6 34 44 -5 24 -16 36 -40 46 -19 8 -45 25 -59
39 -14 14 -34 25 -44 25 -22 0 -70 35 -61 44 3 3 50 8 105 10 135 6 202 15
247 34 56 24 49 47 -23 79 -70 30 -79 53 -22 53 21 0 47 7 58 15 10 8 33 15
51 15 33 0 67 24 60 43 -4 13 -19 21 -71 42 -32 12 -36 18 -26 29 6 8 26 16
43 18 37 4 49 34 22 54 -20 15 -12 34 16 34 20 0 23 7 19 50 -4 55 -32 98 -74
114 -23 9 -49 16 -58 16 -8 0 -22 7 -29 16 -10 12 -23 14 -52 10 -31 -5 -41
-3 -55 14 -22 27 -47 18 -61 -21 -14 -40 -47 -40 -56 0 -11 49 -41 50 -78 4
-10 -13 -25 -23 -33 -23 -8 0 -19 -12 -24 -26 -12 -30 -43 -29 -48 1 -1 11
-17 28 -34 38 -28 16 -33 16 -54 2 -13 -8 -24 -20 -24 -25 0 -19 -41 -10 -66
15 -17 17 -36 25 -59 25 -39 0 -145 38 -145 53 0 5 21 7 53 3 110 -14 222 -14
248 0 14 7 50 12 80 11 56 -1 128 25 137 50 2 7 -21 24 -52 40 -31 15 -55 32
-53 38 3 5 28 9 58 8 30 -2 61 0 69 4 8 3 39 7 68 8 97 5 96 47 -1 78 -32 10
-57 23 -57 28 0 10 47 14 121 10 32 -2 49 2 59 14 13 15 11 20 -14 41 -40 35
-29 56 25 48 41 -7 42 -6 37 19 -3 15 0 28 7 31 13 5 15 83 2 103 -4 6 -25 14
-47 18 -22 4 -42 11 -46 16 -3 5 -20 9 -39 9 -21 0 -35 6 -39 16 -5 13 -15 15
-47 10 -36 -6 -44 -3 -66 20 -29 32 -67 27 -99 -13 -28 -35 -48 -26 -48 23 -1
35 -4 39 -29 42 -18 2 -38 -5 -58 -22 -17 -14 -36 -26 -44 -26 -7 0 -18 -14
-25 -31 -18 -42 -51 -37 -66 11 -8 23 -19 36 -32 38 -31 5 -102 -42 -136 -88
-23 -30 -37 -40 -58 -40 -18 0 -31 6 -34 18 -27 83 -38 89 -71 38 -15 -23 -31
-36 -50 -38 -22 -2 -30 -10 -37 -35 -7 -21 -17 -33 -30 -35 -17 -2 -22 -13
-28 -57 -8 -69 -24 -86 -40 -43 -8 19 -19 32 -30 32 -14 0 -18 8 -18 35 0 21
-5 35 -13 35 -19 0 -126 -106 -132 -132 -3 -13 -12 -72 -20 -131 -17 -114 -39
-177 -63 -177 -11 0 -13 9 -8 38 19 110 19 154 3 164 -19 10 -22 40 -7 68 12
22 3 50 -15 50 -8 0 -17 9 -20 20 -3 11 -18 23 -32 26 -29 8 -53 -15 -94 -86
-11 -20 -29 -40 -41 -45 -11 -6 -28 -26 -38 -45 -26 -49 -60 -168 -54 -185 8
-20 -24 -321 -41 -384 -17 -65 -50 -105 -66 -81 -13 20 -4 495 12 610 17 125
41 166 136 228 89 58 207 102 368 137 115 26 237 59 255 70 19 12 10 22 -30
34 -22 7 -38 16 -36 20 3 5 36 11 73 15 37 4 100 15 138 25 39 11 85 19 104
18 34 0 61 22 61 49 0 7 -25 20 -56 29 -73 21 -60 34 37 40 164 10 213 15 223
25 16 16 -37 62 -89 80 -25 8 -45 20 -45 25 -1 6 30 15 68 20 74 11 102 26
102 56 0 13 -7 19 -24 19 -13 0 -29 7 -36 15 -10 12 -8 16 11 24 13 5 33 10
44 13 14 2 20 11 20 28 0 14 4 31 8 38 9 14 -28 123 -46 134 -7 4 -39 8 -73 8
-49 0 -65 4 -80 21 -18 20 -37 21 -75 5 -9 -4 -26 3 -43 19 -32 30 -49 24 -90
-30 -32 -42 -66 -47 -66 -10 0 20 -5 25 -25 25 -34 0 -104 -45 -115 -74 -13
-35 -27 -39 -44 -14 -9 12 -30 27 -48 32 -23 8 -33 17 -33 31 0 16 9 21 40 26
22 3 54 12 70 21 17 8 60 23 98 33 76 20 89 43 37 70 -40 21 -38 33 8 51 20 8
51 21 67 31 17 9 42 22 58 30 47 25 33 70 -25 79 -52 9 -47 32 15 61 51 25 65
60 27 70 -11 3 -20 11 -20 19 0 7 9 18 20 24 28 15 25 39 -6 51 l-27 10 22 22
c25 27 27 43 6 51 -11 4 -14 13 -9 32 4 17 2 29 -6 34 -17 10 -118 2 -146 -12
-15 -7 -28 -7 -43 1 -19 10 -25 7 -54 -24 l-33 -36 -27 21 c-33 26 -46 19 -77
-46 -12 -24 -25 -44 -30 -44 -4 0 -15 11 -24 25 -10 15 -26 25 -41 25 -13 0
-26 4 -30 10 -6 10 4 21 72 82 23 20 43 47 45 60 2 13 11 24 23 26 37 7 57 34
52 69 -5 28 -2 35 24 50 39 23 47 52 21 74 -21 16 -21 17 -2 34 11 10 20 26
20 36 0 10 11 26 25 35 29 19 33 52 8 61 -9 4 -46 1 -82 -5 -62 -11 -67 -10
-82 10 -13 17 -20 18 -36 9 -11 -6 -23 -18 -27 -26 -4 -12 -14 -14 -39 -10
-28 5 -36 2 -60 -24 -30 -34 -45 -39 -53 -16 -4 8 -10 15 -14 15 -16 0 -120
-108 -120 -124 0 -21 -18 -21 -42 1 -17 15 -20 15 -56 -14 -22 -18 -38 -40
-40 -57 -4 -30 -18 -33 -44 -9 -18 16 -20 15 -43 -8 -20 -19 -28 -47 -45 -139
-29 -165 -43 -223 -58 -228 -17 -5 -16 69 3 185 17 106 27 136 58 172 40 47
166 167 217 207 27 21 53 49 56 61 5 20 45 53 149 127 20 13 20 14 1 35 -18
20 -18 21 13 50 33 31 41 68 16 77 -20 8 -19 34 1 49 9 6 18 25 20 41 2 16 12
47 24 69 44 87 17 93 -112 24 -10 -5 -33 -9 -51 -9 -23 0 -41 -8 -57 -25 -18
-19 -31 -24 -50 -20 -34 7 -42 0 -75 -72 -16 -35 -30 -63 -32 -63 -3 0 -13 4
-23 10 -14 8 -27 2 -63 -30 -36 -32 -45 -47 -50 -82 -4 -31 -14 -49 -34 -65
-34 -27 -63 -30 -63 -5 0 70 157 256 303 359 42 30 77 57 77 59 0 3 -5 14 -10
24 -9 16 -5 24 20 46 21 20 30 36 30 59 0 19 8 39 20 50 22 20 27 64 8 83 -18
18 -85 15 -115 -5 -14 -9 -38 -16 -52 -15 -19 1 -36 -7 -56 -28 -16 -16 -38
-30 -50 -30 -12 0 -44 -16 -71 -35 -42 -30 -94 -46 -94 -30 0 16 38 76 79 125
26 30 52 67 58 81 6 15 29 40 50 55 48 36 52 42 45 66 -2 11 4 31 15 46 27 37
35 65 27 96 -8 33 -35 41 -73 22 -17 -9 -40 -16 -53 -16 -13 0 -29 -9 -36 -20
-7 -12 -23 -20 -39 -20 -14 0 -35 -7 -45 -17 -44 -39 -33 29 12 81 17 18 30
40 30 48 0 8 18 32 40 53 22 21 40 49 40 60 0 12 7 30 15 41 21 27 18 61 -5
74 -24 13 -56 5 -64 -15 -3 -8 -15 -15 -27 -15 -11 0 -32 -9 -46 -20 -42 -33
-56 -26 -36 18 9 20 27 51 40 69 13 17 23 37 23 44 0 7 9 22 20 34 18 19 40
104 40 153 0 31 -33 21 -87 -27 -90 -80 -95 -67 -28 76 45 96 55 145 33 159
-6 4 -21 -4 -35 -20 -31 -37 -56 -29 -42 13 5 17 13 45 18 62 11 35 5 59 -15
59 -18 0 -18 40 1 76 31 59 9 116 -32 83 -15 -13 -16 -10 -10 33 5 34 3 49 -8
58 -8 7 -15 28 -15 47 0 46 -25 93 -51 93 -11 0 -22 -7 -25 -15z m716 -3007
c0 -25 -12 -58 -21 -58 -13 0 -31 40 -25 56 7 17 46 19 46 2z m-150 -82 c0 -7
-7 -27 -15 -42 -8 -16 -15 -42 -15 -59 0 -16 -4 -36 -9 -44 -11 -17 -31 -6
-31 18 0 26 -26 44 -53 37 -20 -5 -32 -25 -64 -108 -37 -92 -41 -115 -47 -221
-7 -118 -17 -170 -29 -150 -10 16 -27 186 -27 272 0 64 4 81 32 134 19 35 45
67 61 76 16 9 61 35 100 58 77 45 97 51 97 29z m-997 -138 c8 -18 12 -39 9
-45 -9 -25 -29 -12 -40 26 -15 49 -15 51 3 51 8 0 21 -15 28 -32z m227 -96
c19 -16 21 -23 13 -47 -5 -16 -14 -30 -20 -32 -11 -4 -33 47 -33 78 0 24 12
24 40 1z m200 -92 c44 -22 56 -60 21 -60 -14 0 -21 -8 -23 -27 -5 -45 -25 -37
-43 16 -9 28 -21 53 -26 56 -5 4 -9 13 -9 21 0 20 34 17 80 -6z m856 -225 c14
-35 -46 -61 -74 -33 -27 27 -14 38 56 47 7 0 15 -6 18 -14z m-128 -47 c2 -10
-8 -34 -23 -55 -14 -21 -35 -69 -46 -106 -12 -39 -26 -66 -33 -64 -6 2 -18 19
-27 38 -19 38 -58 84 -80 91 -25 9 4 41 52 57 24 8 62 24 84 37 46 25 68 26
73 2z m-1168 -113 c7 -8 20 -15 29 -15 10 0 45 -9 79 -21 66 -22 79 -43 37
-59 -19 -7 -25 -17 -25 -40 0 -16 -5 -30 -10 -30 -7 0 -8 -18 -4 -49 6 -48 -6
-75 -23 -49 -14 23 -54 122 -65 161 -6 20 -14 37 -18 37 -13 0 -60 52 -60 66
0 19 44 18 60 -1z m890 -12 c0 -5 -12 -44 -25 -88 -31 -98 -45 -189 -54 -365
-5 -91 -13 -148 -24 -174 -10 -22 -20 -36 -23 -33 -11 11 -6 450 5 500 23 99
65 167 103 167 10 0 18 -3 18 -7z m-595 -137 c63 -22 206 -115 275 -179 55
-51 66 -68 92 -140 29 -81 29 -84 23 -242 -6 -192 -14 -273 -26 -280 -13 -9
-18 29 -22 180 -6 208 -42 329 -127 425 -17 19 -38 47 -46 63 -17 32 -30 35
-39 7 -3 -11 -15 -20 -25 -20 -18 0 -31 -40 -34 -105 -1 -33 -36 -51 -36 -18
0 10 -7 66 -16 126 -14 90 -20 107 -35 107 -17 0 -59 56 -59 79 0 15 26 14 75
-3z m-486 -550 c9 -10 42 -15 116 -18 121 -4 151 -18 91 -43 -41 -17 -40 -29
1 -39 50 -12 305 -116 413 -168 95 -45 109 -56 148 -108 47 -64 86 -145 79
-163 -2 -7 -1 -91 3 -187 6 -161 5 -183 -17 -279 -13 -57 -23 -116 -23 -132 0
-15 -5 -40 -11 -56 -10 -26 -11 -27 -24 -9 -28 37 -29 124 -5 225 20 84 22
110 16 226 -5 108 -12 147 -39 230 -29 89 -35 100 -54 97 -17 -2 -26 5 -37 30
-24 54 -88 120 -109 113 -9 -4 -17 -18 -17 -31 0 -19 -5 -24 -24 -24 -17 0
-26 -7 -30 -25 -8 -32 -54 -81 -65 -69 -5 5 -14 26 -20 46 -18 55 -176 258
-202 258 -4 0 -9 -8 -13 -17 -3 -10 -11 -26 -18 -35 -10 -14 -10 -22 0 -38 17
-29 16 -54 -4 -46 -29 11 -32 -3 -13 -81 9 -43 16 -79 14 -81 -11 -11 -26 18
-54 105 -42 132 -71 189 -93 185 -13 -2 -18 4 -18 22 0 16 -13 36 -40 59 -48
41 -50 54 -7 60 17 2 35 5 38 5 4 1 12 -4 18 -12z m-1044 -240 c30 -14 55 -30
55 -35 0 -10 -62 -41 -80 -41 -5 0 -22 19 -39 42 -47 64 -28 74 64 34z m3285
-320 c0 -34 -21 -63 -39 -52 -12 8 -24 63 -16 76 3 5 17 10 31 10 21 0 24 -5
24 -34z m-138 5 c5 -4 -15 -31 -42 -60 -43 -46 -50 -59 -50 -93 0 -53 -20
-118 -36 -118 -8 0 -14 17 -16 48 -2 37 -8 49 -25 57 -12 5 -24 19 -28 32 -3
12 -14 38 -26 57 -17 30 -29 37 -77 47 -31 7 -64 19 -72 27 -13 13 4 14 138 9
84 -2 155 -1 157 4 6 9 65 1 77 -10z m-2442 -110 c0 -15 -69 -53 -85 -47 -8 3
-15 17 -15 31 0 23 3 25 50 25 28 0 50 -4 50 -9z m2090 -45 c0 -22 -22 -80
-36 -97 -8 -8 -14 -32 -14 -52 0 -31 -7 -78 -26 -166 -3 -14 -9 -20 -14 -15
-5 5 -4 29 2 55 14 59 3 120 -22 126 -11 3 -22 18 -25 34 -4 16 -13 32 -20 36
-7 5 -15 24 -17 43 l-3 35 65 6 c36 3 75 6 88 7 13 1 22 -4 22 -12z m-220 -33
c0 -23 -39 -63 -62 -63 -22 0 -64 -86 -77 -156 -10 -55 -37 -96 -59 -92 -13 3
-17 15 -18 53 -1 72 -1 73 -31 77 -24 3 -28 8 -31 40 -3 32 -7 37 -30 40 -21
2 -28 9 -30 30 -3 22 2 28 20 32 285 64 318 68 318 39z m-1511 -59 c-7 -9 -29
-23 -48 -32 -22 -10 -37 -25 -39 -38 -2 -17 5 -22 48 -32 28 -7 62 -12 75 -12
12 0 28 -7 35 -15 11 -13 8 -17 -19 -26 -28 -10 -31 -15 -29 -46 2 -27 -2 -38
-17 -47 -11 -6 -23 -15 -27 -21 -12 -15 -9 -61 4 -91 8 -17 9 -29 3 -31 -38
-13 -39 -19 -26 -108 7 -47 11 -89 8 -91 -25 -25 -77 214 -77 353 0 84 -2 93
-19 93 -15 0 -19 11 -24 72 -3 39 -4 75 -1 80 3 4 41 8 86 8 72 0 79 -2 67
-16z m-399 -41 c0 -52 -14 -50 -29 4 -10 33 -6 43 16 43 9 0 13 -14 13 -47z
m1490 -1 c0 -11 -9 -27 -20 -37 -13 -12 -20 -31 -20 -54 0 -41 -7 -55 -33 -64
-39 -14 -54 -113 -66 -418 l-8 -226 -42 -62 c-23 -33 -43 -61 -46 -61 -2 0
-11 -3 -21 -7 -10 -4 -15 -2 -11 3 6 11 20 135 43 389 21 240 50 424 73 455
24 34 112 100 134 100 10 0 17 -8 17 -18z m-768 -116 c48 -13 134 -42 192 -66
l106 -43 41 -75 c111 -203 119 -337 40 -712 -12 -52 -25 -113 -30 -135 -5 -22
-17 -76 -27 -120 -28 -135 -34 -155 -48 -155 -18 0 -46 82 -46 133 0 46 34
176 86 332 38 116 41 142 29 294 -5 68 -12 101 -24 118 -12 15 -21 49 -25 103
-6 64 -12 86 -32 109 -13 16 -24 35 -24 43 0 45 -63 51 -85 8 -9 -18 -23 -30
-35 -30 -19 0 -25 -11 -21 -34 1 -6 0 -20 -4 -33 -4 -19 -11 -23 -38 -21 -30
3 -32 1 -43 -42 -8 -34 -15 -45 -30 -45 -17 0 -19 6 -16 61 3 56 2 61 -22 72
-24 11 -25 14 -19 76 5 60 4 65 -19 80 -27 18 -55 87 -43 106 4 7 16 9 29 5
11 -3 60 -16 108 -29z m-1345 -396 c6 -24 5 -24 118 -4 114 20 345 15 390 -9
l30 -15 -30 -6 c-16 -4 -44 -11 -61 -16 -17 -6 -46 -10 -66 -10 -22 0 -41 -7
-53 -20 -11 -12 -31 -20 -51 -20 -23 0 -37 -6 -44 -20 -6 -11 -24 -27 -40 -35
-28 -14 -30 -14 -42 5 -7 11 -18 20 -25 20 -7 0 -19 13 -27 29 -27 51 -51 47
-111 -15 -5 -6 -22 -18 -38 -28 -21 -13 -28 -14 -32 -4 -4 10 0 154 4 166 1 1
17 2 37 2 27 0 37 -5 41 -20z m3008 -114 c41 -9 68 -10 83 -3 15 7 46 5 104
-7 53 -10 84 -13 86 -6 5 13 49 13 57 -1 4 -5 -1 -19 -11 -30 -16 -18 -37 -50
-48 -74 -2 -5 -7 -28 -11 -49 -4 -22 -10 -35 -13 -28 -4 6 -20 15 -35 21 -18
7 -27 18 -27 33 -1 13 -11 36 -24 52 -29 35 -52 30 -67 -14 -7 -17 -18 -30
-28 -30 -26 0 -41 -21 -41 -57 0 -22 -6 -36 -20 -43 -11 -6 -17 -17 -14 -25 3
-7 2 -21 -3 -30 -8 -14 -12 -14 -35 4 -29 24 -53 74 -44 96 3 8 18 15 34 15
44 0 63 19 54 55 -6 21 -15 31 -33 33 -13 2 -33 12 -44 22 -23 21 -136 50
-198 50 -48 0 -82 15 -57 24 21 8 176 13 230 8 25 -2 72 -10 105 -16z m-2757
-92 c35 -16 35 -17 26 -63 -4 -20 -12 -31 -24 -31 -11 0 -21 -14 -30 -41 -19
-57 -27 -56 -35 3 -4 29 -11 70 -17 90 -20 69 -2 79 80 42z m690 -111 c30 -14
50 -29 45 -33 -4 -4 -34 -3 -66 3 -44 8 -64 8 -78 -1 -10 -7 -40 -12 -66 -12
-38 0 -51 -4 -61 -20 -10 -17 -19 -20 -45 -15 -28 5 -34 2 -49 -24 -10 -18
-13 -33 -7 -36 17 -11 9 -32 -15 -43 -14 -6 -29 -26 -36 -46 -6 -19 -20 -38
-30 -41 -33 -10 -44 -36 -50 -114 -4 -67 -7 -76 -26 -79 -11 -2 -26 4 -33 12
-16 20 8 104 64 220 41 83 42 89 23 94 -15 3 -18 10 -13 26 4 11 12 44 17 71
6 28 12 56 14 62 2 10 45 11 181 7 163 -5 183 -8 231 -31z m1772 6 c0 -4 -7
-23 -15 -42 -8 -20 -15 -50 -15 -67 0 -24 -4 -30 -21 -30 -19 0 -21 -5 -18
-62 5 -110 1 -148 -16 -148 -12 0 -15 14 -15 69 0 81 -6 101 -30 101 -13 0
-20 14 -29 58 -10 51 -14 58 -34 58 -16 -1 -23 6 -25 22 -7 45 0 47 112 47 58
0 106 -3 106 -6z m-305 -19 c0 -8 -9 -15 -20 -15 -14 0 -21 -9 -25 -30 -4 -22
-11 -30 -25 -30 -16 0 -21 -9 -26 -50 -4 -27 -4 -62 -2 -77 3 -15 -2 -36 -11
-49 -9 -13 -16 -31 -16 -41 0 -29 -19 -20 -34 16 -11 26 -19 33 -33 30 -16 -5
-21 2 -29 43 -7 35 -15 51 -33 59 -13 7 -27 18 -31 24 -4 6 -18 17 -31 24 -13
6 -25 21 -27 32 -6 43 137 84 283 80 46 -1 60 -4 60 -16z m-379 -97 c-4 -16
-18 -36 -32 -47 -20 -15 -24 -24 -19 -47 6 -25 3 -29 -14 -29 -20 0 -27 -13
-33 -70 -2 -20 -8 -25 -33 -25 l-30 0 0 -85 c0 -85 0 -85 -27 -88 -20 -2 -28
-10 -32 -30 -12 -59 -7 -129 13 -185 42 -114 38 -271 -10 -384 -21 -49 -95
-125 -118 -121 -23 4 -24 48 -6 169 9 57 18 149 21 204 11 210 95 579 151 660
22 32 126 104 152 105 20 0 22 -3 17 -27z m-1110 -148 c4 -8 18 -15 34 -15 24
0 87 -15 310 -74 26 -7 80 -36 122 -64 59 -41 84 -67 113 -115 103 -169 109
-197 102 -431 -7 -226 -10 -238 -46 -234 -22 3 -26 7 -23 33 14 144 14 195 0
195 -28 0 -45 35 -52 105 -8 75 -16 92 -49 97 -13 2 -23 11 -25 23 -7 42 -25
74 -44 77 -16 2 -21 12 -23 44 -4 48 -20 78 -52 95 -27 14 -48 1 -57 -35 -8
-34 -47 -57 -81 -48 -26 7 -27 11 -30 80 l-3 72 -63 68 c-68 72 -96 83 -116
42 -6 -13 -21 -28 -32 -32 -15 -5 -21 -16 -21 -37 0 -20 -8 -35 -27 -49 -26
-19 -28 -26 -29 -89 -2 -58 -5 -69 -22 -78 -16 -7 -22 -23 -27 -67 -5 -44 -12
-61 -27 -69 -19 -10 -20 -18 -15 -91 4 -44 16 -114 27 -154 12 -41 20 -82 18
-92 -7 -35 -46 28 -62 100 -18 78 -22 287 -7 316 31 56 84 192 85 217 2 39 34
143 47 150 5 4 9 22 9 41 0 31 2 34 30 34 18 0 33 -6 36 -15z m204 -1024 c0
-9 11 -32 23 -51 27 -40 87 -192 87 -221 0 -47 -53 7 -108 111 -38 71 -51 133
-43 210 2 20 41 -26 41 -49z m376 -303 c-3 -18 -10 -69 -16 -113 -18 -127 -42
-231 -58 -247 -20 -20 -45 40 -50 116 -4 72 -4 75 43 162 26 49 52 95 58 102
18 22 29 13 23 -20z m-272 -150 c12 -20 40 -85 61 -143 4 -11 8 -30 9 -41 1
-12 13 -39 27 -60 69 -105 64 -79 62 -314 -5 -356 -19 -542 -60 -750 -19 -102
-41 -240 -47 -307 -17 -169 -25 -173 -75 -35 l-31 89 26 69 c74 198 99 319 91
436 -7 90 -36 158 -67 158 -19 0 -24 10 -21 38 3 23 -39 140 -60 166 -12 15
-31 26 -44 26 -19 0 -26 9 -41 52 -28 84 -49 113 -95 127 -25 7 -44 21 -50 35
-14 29 -153 156 -171 156 -8 0 -40 30 -71 68 -81 95 -88 102 -110 102 -22 0
-107 65 -107 82 0 14 114 0 148 -18 42 -22 181 -18 244 6 29 11 67 20 83 20
17 0 55 9 85 20 30 11 77 20 105 20 27 0 57 5 65 10 22 14 28 12 44 -12z
m1467 -730 c19 -6 61 -16 94 -22 57 -11 60 -12 67 -46 3 -19 11 -53 17 -74 17
-70 25 -230 11 -270 -17 -52 -30 -44 -30 17 0 77 -19 167 -43 206 -41 68 -110
136 -151 150 -38 12 -41 12 -58 -9 -18 -22 -19 -22 -76 -7 -112 30 -137 37
-165 42 -15 3 -25 10 -22 15 9 14 314 13 356 -2z m-1800 -124 c15 -28 4 -57
-24 -62 -11 -2 -17 8 -22 37 -4 22 -4 45 0 50 9 15 30 3 46 -25z m1359 -125
c46 -5 87 -12 92 -15 5 -3 -1 -22 -13 -41 -21 -33 -22 -41 -11 -91 10 -48 10
-57 -5 -67 -15 -11 -15 -18 -4 -61 20 -81 19 -89 -12 -92 -29 -4 -29 -3 -47
66 -8 31 -16 42 -30 42 -16 0 -20 7 -20 30 0 22 -10 41 -35 65 -50 51 -95 43
-95 -15 0 -32 -9 -43 -25 -30 -22 18 -39 -15 -26 -51 16 -45 14 -59 -8 -59
-20 0 -31 -49 -31 -141 0 -30 -4 -49 -11 -49 -20 0 -38 33 -39 70 0 45 -14 65
-42 65 -21 0 -23 4 -20 48 2 29 -1 47 -8 47 -6 0 -26 17 -45 37 -31 34 -35 36
-52 22 -10 -9 -26 -19 -35 -22 -10 -4 -18 -13 -18 -22 0 -8 -8 -15 -19 -15
-24 0 -37 -16 -48 -60 -7 -28 -15 -36 -38 -40 -38 -7 -50 -48 -29 -98 16 -39
12 -47 -19 -47 -28 0 -41 -50 -34 -134 l5 -63 -44 5 c-40 4 -45 2 -50 -20 -7
-28 4 -155 16 -187 4 -11 16 -59 25 -106 10 -47 28 -124 41 -172 28 -103 30
-143 7 -188 -16 -33 -160 -180 -177 -180 -4 0 -6 21 -3 48 3 26 10 148 16 272
17 344 29 465 72 720 43 261 67 329 132 368 18 10 82 50 142 87 l110 67 105 8
c162 11 238 11 330 -1z m-1356 -42 c15 -19 26 -47 26 -63 0 -16 18 -63 40
-104 119 -223 150 -290 131 -290 -13 0 -81 99 -163 235 -60 102 -66 116 -71
183 -3 40 -2 72 3 72 5 0 20 -15 34 -33z m-174 -627 c0 -25 32 -27 85 -4 35
14 39 14 59 -5 30 -28 89 -37 105 -17 18 22 44 20 66 -4 25 -27 45 -25 45 4 0
59 53 31 71 -38 6 -23 23 -59 37 -80 26 -38 27 -45 30 -200 2 -89 1 -216 -3
-284 -6 -107 -10 -126 -28 -143 -34 -31 -42 -19 -38 60 4 85 -10 113 -66 132
-47 15 -53 23 -53 79 0 58 -16 88 -64 120 -47 32 -59 52 -66 110 -4 36 -10 47
-32 58 -16 7 -28 17 -28 21 0 11 -70 114 -84 123 -34 23 -44 -1 -22 -53 5 -11
1 -18 -12 -21 -18 -5 -19 -9 -9 -46 6 -23 8 -44 4 -48 -10 -11 -47 26 -47 47
0 34 -32 112 -53 129 -26 22 -17 45 25 64 49 21 78 20 78 -4z m1630 -39 c0
-52 -78 -196 -96 -178 -4 4 4 33 19 65 15 31 33 74 41 95 16 39 36 50 36 18z
m230 -101 c-34 -27 -60 -34 -73 -21 -12 12 43 40 78 40 18 1 18 -1 -5 -19z
m-2884 -245 c18 -15 18 -15 -10 -13 -16 2 -31 9 -34 16 -5 17 20 15 44 -3z
m606 -202 c39 -96 74 -164 123 -239 30 -47 55 -89 55 -94 0 -23 -22 -6 -82 60
-65 73 -119 179 -133 260 -6 33 -4 40 9 40 9 0 22 -12 28 -27z m1423 -33 c-3
-5 -11 -10 -16 -10 -6 0 -7 5 -4 10 3 6 11 10 16 10 6 0 7 -4 4 -10z m-979
-126 c15 -40 18 -63 11 -71 -11 -15 -63 -17 -72 -3 -10 16 16 141 28 137 7 -2
21 -30 33 -63z m-31 -354 c30 -59 127 -210 169 -262 42 -54 26 -57 -29 -7 -78
72 -175 238 -175 299 0 31 7 24 35 -30z m-157 -44 c60 -38 123 -116 93 -116
-13 0 -124 76 -145 99 -17 19 -15 41 5 41 5 0 26 -11 47 -24z m598 -127 c-8
-24 -22 -87 -32 -139 -32 -180 -50 -254 -62 -258 -24 -8 -54 86 -54 168 0 68
4 83 36 141 43 79 105 154 117 142 5 -5 3 -28 -5 -54z m-716 -4 c0 -23 -24
-40 -41 -29 -14 8 -11 25 7 45 20 22 34 16 34 -16z"/>
<path d="M3410 1968 c0 -19 2 -20 10 -8 13 19 13 30 0 30 -5 0 -10 -10 -10
-22z"/>
</g>
</svg>
