<svg width="32" height="35" viewBox="0 0 32 35" fill="none" xmlns="http://www.w3.org/2000/svg">
<path d="M31.8496 29.3429L27.9931 23.7765H29.9545C30.2758 23.776 30.5359 23.4366 30.5355 23.0185C30.5353 22.8516 30.4927 22.6894 30.4143 22.5572L26.5996 16.1386H27.7737C28.095 16.1403 28.3565 15.8027 28.3577 15.3846C28.3582 15.2499 28.3309 15.1173 28.2788 15.0008L25.0564 7.67562L21.8165 0.377634C21.6554 0.0159074 21.2994 -0.107501 21.0214 0.102146C20.9335 0.168327 20.8605 0.263404 20.8097 0.377634L18.6463 5.21425L19.3186 6.72824L21.2974 2.27239L24.0321 8.43261L26.7669 14.5974H25.4047C25.0815 14.6004 24.8214 14.9438 24.8237 15.3643C24.8248 15.5497 24.8777 15.7283 24.9727 15.8666L25.1574 16.1748L28.7596 22.2535H26.6693C26.3461 22.2549 26.085 22.5971 26.0861 23.0176C26.0867 23.2191 26.1486 23.4121 26.2583 23.5544L30.0904 29.0846H26.3768L26.551 29.3384L22.698 23.7765H24.6593C24.9806 23.776 25.2407 23.4366 25.2403 23.0185C25.2401 22.8516 25.1975 22.6894 25.1192 22.5572L21.3045 16.1386H22.4785C22.7998 16.1353 23.0582 15.7937 23.0557 15.3757C23.0549 15.2349 23.0239 15.0972 22.9662 14.9781L19.7263 7.67562L16.4865 0.377634C16.3254 0.0159074 15.9694 -0.107501 15.6914 0.102146C15.6035 0.168327 15.5305 0.263404 15.4797 0.377634L13.3401 5.19294L11.2051 0.377634C11.0441 0.0159074 10.688 -0.107501 10.41 0.102146C10.3222 0.168327 10.2492 0.263404 10.1983 0.377634L6.97587 7.63029L6.95845 7.67109L3.73948 14.9237C3.54701 15.2616 3.60144 15.7385 3.86107 15.989C3.96575 16.0899 4.09334 16.1426 4.22372 16.1386H5.39774L1.61092 22.4846C1.39545 22.7981 1.41601 23.2795 1.65691 23.56C1.76316 23.6836 1.90033 23.7525 2.04291 23.7539H4.00425L0.172141 29.284C-0.0568275 29.5809 -0.0574371 30.0631 0.17066 30.3609C0.279962 30.5037 0.428282 30.5842 0.583221 30.5849V30.6076H8.98947V33.9982C8.98956 34.2637 9.07107 34.5183 9.21591 34.7054C9.35883 34.8927 9.55305 34.9986 9.75589 35H11.6441C11.8176 35.0002 11.9859 34.9234 12.1213 34.7824L12.1875 34.7099C12.3324 34.5228 12.4139 34.2683 12.414 34.0028V30.6076H14.2882V33.9982C14.2883 34.2637 14.3698 34.5183 14.5147 34.7054C14.6576 34.8927 14.8518 34.9986 15.0546 35H16.9393C17.1128 35.0002 17.2812 34.9234 17.4166 34.7824L17.4828 34.7099C17.6276 34.5228 17.7092 34.2683 17.7092 34.0028V30.6076H19.587V33.9982C19.5871 34.2637 19.6686 34.5183 19.8134 34.7054C19.9563 34.8927 20.1506 34.9986 20.3534 35H22.2381C22.4116 35.0002 22.5799 34.9234 22.7154 34.7824L22.7816 34.7099C22.9264 34.5228 23.0079 34.2683 23.008 34.0028V30.6076H31.4177C31.739 30.608 31.9997 30.2692 32 29.8512C32 29.6634 31.9464 29.4822 31.8496 29.3429ZM1.89302 29.0846L5.74951 23.5227C5.96498 23.2125 5.94652 22.7338 5.70814 22.4535C5.6011 22.3276 5.46184 22.2579 5.31753 22.258H3.22729L6.83295 16.1748L7.04198 15.8213C7.23828 15.4902 7.19125 15.015 6.93685 14.7594C6.83809 14.6603 6.71738 14.605 6.59257 14.6019H5.23392L7.96516 8.43261L7.98258 8.39182L10.6999 2.26786L12.6676 6.70648L12.2571 7.63018L12.2397 7.67097L9.03119 14.9327C8.84254 15.2743 8.90246 15.7501 9.16496 15.9956C9.26791 16.0919 9.39219 16.142 9.51891 16.1385H10.6929L6.90959 22.4845C6.69412 22.798 6.71468 23.2794 6.95558 23.5598C7.06183 23.6835 7.199 23.7524 7.34158 23.7537H9.30292L5.62061 29.0844H1.89302V29.0846ZM11.2468 33.4769H10.1599V30.6076H11.2468V33.4769ZM15.4552 33.4769V30.6076H16.5421L16.5456 33.4769H15.4552ZM20.7539 33.4769V30.6076H21.8409L21.8444 33.4769H20.7539ZM7.19178 29.0846L11.0448 23.5045C11.2603 23.1944 11.2418 22.7157 11.0034 22.4353C10.8964 22.3094 10.7571 22.2397 10.6128 22.2399H8.52256L12.1317 16.1748L12.3407 15.8213C12.537 15.4902 12.4898 15.0149 12.2354 14.7595C12.1339 14.6575 12.0092 14.6021 11.8809 14.6019H10.5292L13.2639 8.43261L13.2813 8.39182L15.9987 2.26786L18.7334 8.43261L21.4681 14.5974H20.1164C19.7932 14.6004 19.5331 14.9438 19.5354 15.3643C19.5365 15.5497 19.5894 15.7283 19.6844 15.8666L19.8691 16.1748L23.4713 22.2535H21.381C21.0578 22.2549 20.7967 22.5971 20.7978 23.0176C20.7984 23.2191 20.8603 23.4121 20.97 23.5544L24.8021 29.0846H7.19178Z" fill="#FF7A00"/>
</svg>
