<svg width="32" height="34" viewBox="0 0 32 34" fill="none" xmlns="http://www.w3.org/2000/svg">
<g clip-path="url(#clip0)">
<path d="M27.954 20.2391L27.9312 19.9064C27.5647 14.8362 25.3428 11.6578 23.3826 8.85428C21.5675 6.25829 19.9999 4.0165 19.9999 0.708727C19.9999 0.443112 19.8599 0.200339 19.6379 0.0785548C19.4152 -0.0438938 19.1477 -0.0238398 18.9452 0.132541C16.0014 2.37088 13.5451 6.14348 12.687 9.7431C12.0914 12.2492 12.0126 15.0665 12.0015 16.9272C9.28286 16.3102 8.667 11.9891 8.6605 11.9421C8.62988 11.7179 8.50101 11.5229 8.31352 11.4163C8.12409 11.3112 7.90141 11.3036 7.70935 11.4046C7.56679 11.4779 4.21011 13.2902 4.0148 20.5268C4.00111 20.7675 4.00049 21.0082 4.00049 21.2496C4.00049 28.2794 9.38373 33.9991 16 33.9991C22.6164 33.9991 27.9996 28.2794 27.9996 21.2496C27.9996 20.8969 27.9769 20.5676 27.954 20.2391ZM16 32.5825C13.7944 32.5825 12.0002 30.5517 12.0002 28.0553C12.0002 27.9703 11.9996 27.8845 12.0054 27.7794C12.0321 26.7266 12.2202 26.0079 12.4266 25.5299C12.8133 26.4126 13.5053 27.2239 14.6277 27.2239C14.9962 27.2239 15.2944 26.9071 15.2944 26.5156C15.2944 25.507 15.3139 24.3436 15.5502 23.2936C15.7606 22.3619 16.2631 21.372 16.8998 20.5779C17.183 21.6086 17.7351 22.4428 18.2741 23.2569C19.0456 24.4218 19.8431 25.626 19.9831 27.6797C19.9915 27.8014 20 27.9239 20 28.0553C19.9999 30.5517 18.2057 32.5825 16 32.5825ZM20.2131 31.6571C20.9051 30.6544 21.3332 29.4151 21.3332 28.0553C21.3332 27.8887 21.3235 27.7337 21.3039 27.4439C21.1457 25.1315 20.1998 23.7024 19.3645 22.4415C18.653 21.3679 18.0391 20.4404 18.0391 19.1248C18.0391 18.8557 17.8958 18.6101 17.6693 18.4905C17.4441 18.3701 17.1719 18.3971 16.9708 18.5597C15.6922 19.5861 14.6258 21.314 14.2534 22.9638C14.0633 23.8097 13.9969 24.7249 13.9735 25.4774C13.5113 24.949 13.368 23.9695 13.3668 23.9564C13.3368 23.7288 13.2053 23.5302 13.0133 23.4245C12.8225 23.3193 12.594 23.3166 12.402 23.4217C12.234 23.513 10.7582 24.4122 10.6736 27.7199C10.6677 27.832 10.6671 27.944 10.6671 28.0554C10.6671 29.4152 11.0952 30.6545 11.7871 31.6571C7.99578 29.9177 5.33394 25.909 5.33394 21.2497C5.33394 21.0374 5.33331 20.8258 5.34694 20.5898C5.4615 16.3441 6.74014 14.2386 7.57473 13.3096C8.15671 15.5231 9.6814 18.4165 12.667 18.4165C13.0355 18.4165 13.3336 18.0997 13.3336 17.7082C13.3336 15.3377 13.3838 12.5985 13.9801 10.0904C14.6572 7.24884 16.5119 4.18045 18.7508 2.10327C19.1225 5.13713 20.6777 7.36166 22.3125 9.69887C24.2558 12.4781 26.2649 15.3522 26.6014 20.006L26.6242 20.3449C26.645 20.6396 26.6665 20.9336 26.6665 21.2497C26.6663 25.909 24.0045 29.9176 20.2131 31.6571Z" fill="#FF7A00"/>
</g>
<defs>
<clipPath id="clip0">
<rect width="32" height="34" fill="white"/>
</clipPath>
</defs>
</svg>
