<svg width="32" height="34" viewBox="0 0 32 34" fill="none" xmlns="http://www.w3.org/2000/svg">
<g clip-path="url(#clip0)">
<path d="M26.8 30.086V33.4333C26.8 33.7463 26.5612 34 26.2666 34C25.9721 34 25.7333 33.7463 25.7333 33.4333V30.086C25.7333 27.4797 23.7483 25.3704 21.2951 25.3705C20.1344 25.3705 19.0812 24.7422 18.4779 23.6897C18.3246 23.4225 18.4043 23.0739 18.6559 22.911C18.9073 22.748 19.2355 22.8329 19.3888 23.1001C19.797 23.8121 20.5096 24.2371 21.2951 24.2371C24.3376 24.2371 26.8 26.853 26.8 30.086ZM19.3591 25.9592C19.5489 26.1986 19.5199 26.5561 19.2946 26.7576C16.8385 28.9544 13.1067 28.2354 11.5386 25.2576C11.2696 25.3316 10.9901 25.3704 10.7049 25.3704C8.24636 25.3704 6.26662 27.4847 6.26662 30.0859V33.4333C6.26662 33.7462 6.02782 33.9999 5.73329 33.9999C5.43875 33.9999 5.19995 33.7462 5.19995 33.4333V30.0859C5.19995 26.8535 7.66189 24.2371 10.7047 24.2371C11.9348 24.2371 12.9333 23.1843 12.9333 21.8754V21.7262C10.6054 20.5435 8.97137 18.0582 8.87177 15.1639C7.91376 14.9192 7.19996 14.0081 7.19996 12.9242V4.29614C7.19996 2.94435 8.14776 1.82327 9.3743 1.64363C10.3059 -0.149804 12.5639 -0.549306 14 0.812329C15.1411 -0.269513 16.8574 -0.271072 18 0.812329C19.4386 -0.551714 21.6957 -0.146758 22.6256 1.64363C23.8522 1.82327 24.8 2.94435 24.8 4.29614V12.9242C24.8 13.2371 24.5612 13.4908 24.2667 13.4908C23.9722 13.4908 23.7334 13.2371 23.7334 12.9242V4.29614C23.7334 3.44465 23.0814 2.7519 22.2799 2.7519C22.0642 2.7519 21.8697 2.61384 21.7871 2.40205C21.2098 0.920704 19.3359 0.687449 18.4445 1.96706C18.2351 2.30224 17.7719 2.30437 17.5592 1.97258C17.1955 1.44664 16.6137 1.13313 15.9999 1.13313C14.9368 1.13313 14.4447 1.98215 14.3785 2.05305C14.145 2.30253 13.7561 2.26775 13.5649 1.9808C12.6798 0.687733 10.7931 0.912983 10.2128 2.40198C10.1303 2.61377 9.93584 2.75182 9.72004 2.75182C8.91863 2.75182 8.26656 3.44458 8.26656 4.29607V12.9241C8.26656 13.3738 8.5103 13.7645 8.86657 13.9608V10.2872C8.86657 8.09998 10.5413 6.32049 12.5999 6.32049H19.3999C21.4586 6.32049 23.1333 8.09983 23.1333 10.287V14.9268C23.1333 19.8547 18.6009 23.5982 13.9887 22.1556C13.908 23.2422 13.3603 24.2039 12.5182 24.7948C13.7891 27.0758 16.6887 27.607 18.6077 25.8906C18.8329 25.6892 19.1694 25.7198 19.3591 25.9592ZM15.9999 21.3296C19.3451 21.3296 22.0666 18.4381 22.0666 14.8838V10.287C22.0666 8.7248 20.8703 7.4539 19.3999 7.4539H12.5999C11.1295 7.4539 9.93324 8.72494 9.93324 10.2872V14.8837C9.93324 18.4381 12.6547 21.3296 15.9999 21.3296Z" fill="#FF7A00"/>
</g>
<defs>
<clipPath id="clip0">
<rect width="32" height="34" fill="white"/>
</clipPath>
</defs>
</svg>
