<?xml version="1.0" standalone="no"?>
<!DOCTYPE svg PUBLIC "-//W3C//DTD SVG 20010904//EN"
 "http://www.w3.org/TR/2001/REC-SVG-20010904/DTD/svg10.dtd">
<svg version="1.0" xmlns="http://www.w3.org/2000/svg"
 width="744.000000pt" height="1280.000000pt" viewBox="0 0 744.000000 1280.000000"
 preserveAspectRatio="xMidYMid meet">
<metadata>
Created by potrace 1.15, written by Peter Selinger 2001-2017
</metadata>
<g transform="translate(0.000000,1280.000000) scale(0.100000,-0.100000)"
fill="#000000" stroke="none">
<path d="M3387 12699 c-4 -51 -7 -151 -7 -223 0 -72 -3 -160 -6 -196 l-6 -65
-117 118 c-64 64 -124 117 -134 117 -11 0 -18 -12 -23 -36 -8 -46 35 -134 112
-224 83 -97 120 -159 133 -220 16 -70 11 -282 -6 -287 -14 -5 -43 47 -43 76 0
10 -12 28 -26 38 -23 17 -27 29 -35 109 -11 102 -24 147 -51 187 -40 56 -101
18 -103 -64 0 -21 -4 -41 -7 -44 -10 -10 -80 24 -134 66 -43 33 -59 40 -90 37
-21 -2 -41 -10 -47 -20 -17 -26 8 -89 59 -155 109 -141 135 -177 132 -192 -2
-9 -23 -25 -47 -37 -55 -27 -66 -45 -51 -89 21 -64 92 -75 155 -25 21 17 41
30 45 30 8 0 20 -84 20 -143 0 -23 -5 -40 -14 -43 -8 -3 -49 12 -92 34 -110
55 -120 57 -134 32 -25 -46 24 -129 120 -205 27 -22 50 -43 50 -48 0 -4 -15
-5 -34 -2 -49 10 -76 -2 -92 -41 -23 -56 -57 -48 -210 47 -150 94 -255 149
-283 149 -32 0 -45 -36 -32 -82 16 -53 62 -102 132 -140 l59 -33 -69 -11 c-80
-14 -121 -37 -121 -69 0 -41 58 -73 102 -56 22 8 28 5 47 -20 15 -21 30 -29
51 -29 34 0 40 -15 10 -25 -11 -3 -20 -10 -20 -15 0 -12 34 -44 89 -83 l43
-32 -48 -8 c-89 -15 -179 -38 -201 -53 -36 -23 -30 -66 12 -103 40 -35 57 -37
108 -16 42 17 116 20 149 4 13 -6 28 -20 33 -32 8 -17 20 -23 58 -25 42 -3 51
0 76 27 26 28 35 31 87 31 32 0 54 -4 49 -8 -6 -5 -36 -30 -68 -57 -65 -54
-71 -81 -24 -103 37 -18 104 -1 142 34 15 13 28 24 29 24 2 0 3 -33 2 -72 l-1
-73 38 -3 c42 -4 76 18 78 47 0 11 4 9 11 -7 17 -35 40 -23 73 40 17 32 33 58
36 58 7 0 55 -123 63 -161 3 -16 1 -31 -7 -37 -16 -14 -140 -30 -291 -38 -165
-9 -218 2 -344 76 -157 91 -238 112 -266 68 -14 -23 24 -61 109 -113 55 -34
57 -36 25 -30 -164 31 -297 89 -419 181 -41 31 -86 60 -99 65 -33 13 -86 11
-100 -3 -17 -17 -15 -59 4 -87 10 -14 13 -26 7 -32 -5 -5 -49 -14 -99 -20
-181 -20 -226 -28 -240 -39 -56 -47 61 -125 227 -151 65 -10 219 0 253 17 22
11 -24 -22 -78 -55 -30 -19 -62 -48 -72 -67 -17 -31 -17 -33 0 -59 17 -26 21
-27 73 -22 58 6 103 30 164 87 49 46 90 70 121 70 49 0 40 -19 -24 -51 -68
-34 -108 -65 -108 -85 0 -7 17 -25 37 -42 30 -24 37 -36 35 -60 -4 -58 48 -81
91 -38 24 24 124 66 158 66 28 0 66 21 124 69 27 23 53 41 57 41 35 0 -44 -88
-122 -135 -54 -33 -100 -74 -100 -90 0 -23 37 -45 74 -45 42 0 82 18 110 49
30 33 37 25 30 -33 -4 -29 -2 -56 3 -59 18 -11 58 19 101 76 47 61 71 70 94
35 l15 -23 35 31 c31 27 45 32 110 37 81 6 160 36 210 82 45 39 78 95 78 131
0 19 4 34 8 34 15 0 34 -80 26 -113 -9 -44 -107 -137 -229 -219 -99 -66 -372
-218 -392 -218 -6 0 -80 34 -166 76 -165 79 -220 97 -230 72 -7 -21 24 -87 63
-131 37 -43 31 -48 -12 -12 -23 20 -41 25 -81 25 -35 0 -70 9 -107 26 -139 66
-161 65 -157 -5 l2 -46 -72 -3 c-48 -2 -84 2 -109 13 -53 22 -79 19 -119 -16
-29 -25 -35 -38 -35 -69 0 -45 16 -54 73 -41 20 5 37 5 37 1 0 -5 -16 -27 -35
-50 -53 -63 -54 -62 65 -64 l65 -1 -3 -48 -3 -48 68 3 68 3 -3 -46 c-2 -26 1
-50 7 -53 6 -4 32 2 58 14 58 25 93 20 128 -22 37 -44 37 -89 -1 -128 l-24
-25 -29 32 c-31 34 -83 53 -146 53 -56 0 -85 -10 -85 -27 0 -13 -9 -14 -50 -9
-42 6 -51 4 -57 -10 -5 -12 8 -30 45 -63 28 -25 53 -56 57 -69 7 -25 -12 -129
-25 -137 -13 -8 -46 11 -100 55 -107 89 -192 123 -207 84 -3 -8 4 -37 17 -64
12 -26 19 -53 15 -60 -8 -13 -53 -9 -189 16 -107 19 -176 19 -176 -1 0 -40
142 -123 225 -133 56 -6 63 -16 36 -53 -11 -15 -21 -34 -21 -42 0 -22 46 -37
111 -37 72 0 99 -12 99 -45 0 -27 17 -35 99 -44 59 -7 66 -14 77 -76 l6 -40
54 59 c55 61 69 64 76 16 2 -19 8 -24 25 -23 25 3 38 -11 78 -86 17 -31 45
-66 65 -79 19 -13 44 -42 55 -64 17 -35 27 -44 66 -55 30 -8 58 -26 83 -53 20
-22 42 -40 49 -40 7 0 41 23 77 51 l65 51 -57 -55 c-45 -44 -72 -60 -140 -85
-142 -51 -310 -86 -423 -86 l-100 -1 -80 46 c-97 57 -121 65 -141 48 -12 -10
-14 -24 -9 -65 6 -48 4 -54 -16 -65 -31 -16 -134 -4 -177 22 -22 12 -44 18
-58 15 -29 -8 -84 -54 -84 -71 0 -7 32 -31 70 -54 85 -51 103 -75 98 -133 l-3
-43 70 -5 70 -5 0 -47 c0 -64 20 -83 89 -83 41 0 62 6 94 28 23 15 44 27 47
27 2 0 -5 -18 -16 -39 -17 -33 -18 -43 -8 -63 19 -36 29 -39 122 -32 84 6 87
6 87 -14 0 -35 -92 -73 -222 -93 -98 -16 -164 -2 -232 46 -82 58 -144 56 -131
-6 8 -34 -15 -44 -86 -34 -75 10 -170 8 -182 -4 -18 -18 19 -48 95 -77 77 -31
112 -65 103 -101 -4 -17 2 -31 19 -48 30 -30 93 -34 149 -10 43 18 47 13 56
-59 l6 -51 60 0 c55 0 60 -2 56 -20 -2 -11 -5 -31 -5 -45 -1 -24 1 -25 52 -22
47 4 54 2 59 -17 7 -28 42 -27 79 1 16 12 64 55 106 94 86 82 129 100 191 83
45 -12 93 -51 83 -67 -5 -8 -38 -12 -90 -12 -123 0 -134 -28 -56 -145 21 -32
37 -62 34 -67 -3 -4 -19 -8 -35 -8 -39 0 -90 -22 -136 -59 -21 -16 -60 -35
-86 -41 -27 -6 -61 -20 -77 -32 -23 -17 -50 -22 -147 -29 -65 -4 -138 -15
-163 -24 -27 -9 -82 -17 -136 -18 -56 -1 -97 -7 -106 -15 -9 -7 -21 -33 -27
-57 -7 -27 -20 -50 -34 -59 -22 -14 -189 -36 -272 -36 -38 0 -45 -3 -45 -19 0
-40 154 -126 245 -137 81 -9 81 -9 36 -63 -23 -27 -41 -54 -41 -60 0 -7 21
-11 53 -11 68 0 82 -9 74 -49 -9 -43 5 -46 98 -27 89 18 143 20 180 6 25 -9
26 -13 19 -55 -5 -37 -3 -46 11 -51 24 -10 65 25 101 85 17 28 34 48 37 44 4
-3 7 -28 7 -53 0 -66 13 -74 129 -78 118 -5 135 5 177 108 16 38 31 70 35 70
3 0 15 -31 28 -70 12 -38 26 -70 30 -70 4 0 29 29 56 65 27 36 53 65 56 65 4
0 10 -22 14 -48 13 -97 43 -95 85 5 31 74 37 83 56 83 12 0 14 -7 9 -31 -7
-32 -7 -32 26 -25 19 4 60 9 92 13 64 7 73 -4 37 -49 -39 -51 -239 -138 -314
-138 -31 0 -70 -18 -120 -54 -21 -15 -53 -20 -156 -26 -72 -4 -133 -10 -137
-14 -17 -17 16 -63 67 -93 47 -29 63 -33 121 -33 168 0 144 -60 -36 -89 -86
-14 -284 -29 -555 -41 -480 -22 -636 -38 -684 -72 -23 -17 -38 -20 -83 -15
-64 7 -83 1 -83 -22 0 -41 111 -101 186 -101 81 0 98 -40 30 -70 -25 -10 -72
-44 -105 -74 l-61 -56 100 6 99 7 10 -27 c10 -24 15 -26 66 -26 49 0 57 -3 64
-24 19 -49 65 -41 139 24 39 35 82 52 82 34 0 -3 -20 -33 -45 -66 -50 -66 -52
-73 -29 -82 48 -18 113 -2 144 37 28 34 62 16 90 -45 37 -79 65 -78 189 7 44
30 82 55 84 55 2 0 -2 -33 -10 -73 -29 -151 23 -157 202 -21 22 16 36 22 33
14 -3 -8 -14 -34 -23 -57 -25 -63 -18 -73 57 -70 51 2 69 -2 95 -20 39 -29 41
-29 53 2 8 20 16 25 44 25 31 0 36 -4 47 -35 16 -42 38 -50 115 -41 30 3 66 3
80 0 l25 -6 -21 -23 c-58 -62 -387 -164 -662 -206 -190 -28 -234 -24 -325 30
-83 49 -149 64 -159 36 -7 -18 34 -64 81 -91 15 -8 3 -9 -45 -2 -36 4 -128 12
-205 17 -150 11 -209 20 -320 51 -118 33 -165 40 -165 23 0 -50 192 -157 327
-183 l88 -17 -92 -6 c-104 -6 -133 -18 -133 -51 0 -38 29 -52 130 -65 133 -18
130 -15 82 -64 -42 -43 -54 -77 -27 -77 8 0 38 9 66 20 60 24 79 21 79 -13 0
-40 22 -50 87 -42 65 8 168 30 210 45 25 9 23 6 -16 -30 -25 -24 -40 -45 -35
-50 5 -5 36 -10 68 -12 62 -3 70 -9 81 -61 3 -15 11 -27 19 -27 7 0 41 29 74
64 34 35 62 62 62 59 0 -3 -15 -31 -33 -62 -44 -73 -61 -117 -53 -137 16 -41
171 7 251 77 42 37 45 26 14 -55 -37 -101 -95 -130 -460 -235 -143 -41 -194
-40 -333 6 -99 32 -123 36 -221 37 l-110 1 3 -25 c1 -13 11 -34 22 -45 36 -39
10 -38 -145 4 -142 39 -235 39 -235 0 0 -4 28 -41 62 -80 38 -44 55 -70 43
-65 -50 19 -187 47 -260 52 -103 8 -168 -7 -163 -39 7 -50 168 -109 318 -117
l105 -5 -63 -49 c-72 -57 -105 -104 -100 -143 3 -26 6 -28 53 -28 l50 0 10
-60 c11 -65 20 -73 101 -94 23 -6 58 -24 79 -41 21 -16 44 -30 52 -30 23 0 76
30 109 62 37 35 56 30 98 -25 48 -62 54 -110 16 -120 -13 -3 -16 -11 -13 -31
l5 -26 -86 6 c-80 6 -87 6 -103 -15 -16 -19 -33 -23 -135 -31 -110 -8 -158
-20 -158 -39 0 -16 51 -62 85 -77 42 -17 90 -17 218 0 53 7 97 11 97 10 0 -1
-35 -21 -77 -44 -98 -53 -133 -85 -133 -122 0 -45 30 -53 107 -29 78 25 99 26
60 5 -17 -9 -27 -22 -25 -32 3 -14 16 -17 76 -16 l72 0 -25 -26 c-14 -14 -25
-29 -25 -33 0 -16 66 -5 132 23 38 16 76 30 84 30 24 0 15 -28 -16 -50 -64
-45 -23 -70 72 -44 115 30 109 30 102 -5 -7 -35 -1 -37 54 -22 40 12 40 -2 0
-32 -39 -29 -136 -36 -528 -37 -366 -2 -451 -7 -457 -27 -2 -6 19 -18 52 -28
60 -17 133 -74 121 -93 -11 -18 -75 -32 -188 -40 -105 -9 -153 -24 -172 -54
-17 -27 3 -50 60 -71 69 -25 173 -17 295 22 94 30 129 37 129 25 0 -3 -25 -34
-55 -67 -102 -114 -107 -164 -15 -155 25 3 76 17 114 33 79 32 82 30 91 -55 3
-30 12 -71 19 -90 11 -31 16 -35 42 -32 45 5 142 62 179 104 30 36 34 38 49
23 21 -21 20 -28 -9 -121 -29 -90 -30 -104 -12 -104 26 0 152 97 266 204 62
58 118 106 123 106 11 0 -9 -35 -55 -93 -35 -45 -46 -112 -24 -141 17 -24 21
-22 116 62 66 58 68 56 50 -29 -10 -47 -15 -53 -53 -69 -48 -22 -217 -54 -367
-70 -91 -10 -111 -9 -149 5 -146 54 -242 74 -268 57 -18 -12 -4 -41 24 -48 30
-8 32 -26 2 -20 -44 9 -208 17 -218 11 -7 -4 -1 -18 15 -37 14 -16 25 -38 25
-49 0 -18 -5 -19 -93 -13 -207 15 -301 -71 -102 -93 52 -6 71 -12 73 -24 4
-20 -33 -42 -159 -98 -90 -39 -169 -92 -169 -111 0 -5 10 -14 21 -21 26 -14
102 -1 234 40 163 51 206 48 115 -8 -62 -38 -93 -92 -68 -117 14 -14 25 -15
79 -5 34 6 64 9 67 7 2 -2 -10 -23 -27 -47 -17 -23 -31 -49 -31 -57 0 -29 74
-6 159 48 45 29 84 50 88 47 3 -4 0 -27 -6 -53 -7 -25 -9 -49 -6 -52 2 -3 22
7 42 21 20 15 39 25 41 22 2 -2 -1 -18 -7 -36 -6 -18 -9 -34 -7 -37 3 -2 33
19 68 47 35 29 73 51 86 51 22 0 23 -3 20 -52 l-3 -53 34 3 c19 1 80 25 135
52 99 50 99 50 118 30 21 -23 34 -24 97 -9 24 5 46 8 48 5 12 -11 -66 -37
-235 -80 -248 -62 -291 -84 -256 -134 20 -29 78 -29 186 -1 44 11 88 19 97 17
11 -3 -11 -32 -77 -101 -51 -53 -91 -101 -87 -107 3 -5 17 -10 29 -10 38 0
185 46 256 79 110 52 125 39 60 -52 -22 -31 -43 -70 -47 -88 l-6 -32 52 5 c58
6 78 -5 83 -42 5 -39 30 -35 91 15 31 25 58 45 61 45 3 0 6 -20 6 -44 0 -39 3
-45 29 -55 62 -26 183 34 256 127 46 59 58 65 44 22 -6 -16 -12 -60 -12 -96
-3 -119 44 -112 190 29 61 59 94 85 97 76 3 -8 10 -47 15 -87 16 -122 52 -140
130 -67 26 25 53 45 59 45 6 0 23 -16 38 -35 14 -19 32 -35 39 -35 6 0 17 18
24 40 11 39 46 74 63 64 23 -14 49 10 69 67 22 60 37 71 60 43 20 -24 65 -44
99 -44 42 0 76 37 130 140 45 88 98 156 111 143 4 -4 4 -26 -1 -48 -20 -87 -8
-94 74 -41 64 41 94 81 105 138 l8 43 16 -38 c31 -72 65 -23 74 108 6 86 14
101 33 64 15 -27 69 -59 102 -59 54 0 61 -21 54 -155 -14 -237 -43 -367 -122
-537 -30 -64 -54 -119 -54 -123 0 -3 186 -4 413 -3 l412 3 -1 50 c0 28 -12 81
-26 120 -15 39 -32 95 -39 125 -14 57 -19 293 -7 305 16 16 49 -11 98 -80 50
-70 95 -113 107 -101 3 3 0 26 -6 52 -7 25 -10 48 -8 51 7 7 41 -46 81 -124
20 -40 44 -76 53 -81 10 -5 46 -12 80 -15 34 -4 82 -16 107 -29 l45 -21 18 22
19 23 64 -51 c90 -73 104 -70 100 22 l-2 37 37 -24 c20 -14 52 -30 72 -37 32
-10 38 -9 50 7 12 16 26 19 93 17 45 -1 108 -10 148 -22 38 -12 72 -21 76 -21
4 0 5 18 1 40 -6 34 -3 43 19 64 l27 24 -24 28 c-13 16 -29 39 -36 52 -17 33
5 29 111 -18 134 -59 164 -53 112 24 l-26 38 27 -18 c17 -11 47 -18 77 -19 48
0 50 -1 62 -36 18 -50 65 -109 88 -109 11 0 34 11 52 25 18 14 38 25 43 25 13
0 64 -57 89 -99 10 -17 21 -31 24 -31 3 0 16 29 28 65 13 36 28 65 34 65 6 0
29 -20 52 -45 24 -25 47 -45 53 -45 17 0 75 43 96 72 l20 26 -27 45 c-14 25
-23 52 -20 61 3 8 -4 35 -15 60 -11 25 -16 46 -11 46 4 0 50 -37 102 -83 119
-106 175 -147 203 -147 14 0 36 15 55 36 25 29 31 44 28 70 -2 19 -2 34 0 34
2 0 31 -20 65 -44 108 -76 207 -117 232 -96 17 14 9 33 -38 92 -16 20 -26 41
-23 46 3 6 38 19 76 28 39 10 70 21 70 24 0 3 -34 34 -75 68 -129 108 -94 111
112 8 159 -79 190 -90 213 -76 23 14 -2 53 -54 81 -25 13 -46 27 -46 31 0 5
27 8 61 8 112 0 253 46 266 86 2 7 -26 13 -79 17 -176 12 -595 88 -707 128
-74 26 -131 65 -131 89 0 24 10 24 74 5 27 -8 66 -15 88 -15 31 0 38 4 38 19
0 11 -13 29 -30 41 -52 37 -39 43 73 35 159 -10 200 18 110 76 -27 16 -48 33
-48 36 0 4 54 7 120 8 99 0 126 3 149 18 38 25 22 42 -68 68 -116 33 -117 35
-40 42 91 9 136 24 132 46 -2 9 -25 30 -51 47 -29 19 -43 33 -35 37 8 2 65 1
128 -4 158 -11 210 -11 210 1 0 17 -90 69 -129 75 -59 10 -103 33 -99 53 3 15
17 17 124 17 87 0 125 4 137 14 9 7 15 17 12 21 -8 13 -88 29 -238 49 -79 11
-159 26 -178 34 l-34 15 36 16 c20 8 97 31 170 50 206 53 293 90 305 129 9 27
-2 32 -64 30 -65 -3 -115 -13 -289 -54 -68 -16 -130 -29 -139 -29 -10 0 19 34
70 83 153 146 101 156 -163 29 -91 -44 -182 -85 -201 -92 -64 -20 -168 -28
-247 -19 -151 19 -437 129 -753 290 -235 120 -338 197 -328 245 2 14 16 6 69
-44 45 -41 72 -60 83 -56 8 3 29 -4 46 -16 36 -25 50 -19 50 21 0 16 4 29 9
29 13 0 61 -38 129 -104 69 -68 70 -67 48 49 -8 39 -12 74 -9 78 12 20 157
-45 246 -112 28 -21 62 -42 75 -46 19 -6 22 -3 22 23 0 16 -4 53 -10 82 -5 29
-8 56 -5 61 3 4 21 -2 40 -15 41 -28 90 -39 129 -28 31 8 39 19 56 65 14 39
36 34 88 -22 55 -58 157 -131 184 -131 30 0 22 44 -17 92 -105 130 -112 146
-71 145 13 0 45 16 71 34 l48 34 113 -3 114 -2 31 30 c38 35 46 36 153 11 118
-28 167 -34 199 -22 64 25 12 70 -164 142 -68 28 -130 53 -136 56 -19 8 -15
22 5 17 9 -2 58 -13 107 -25 116 -29 319 -32 378 -6 43 19 49 49 15 71 -30 19
-112 34 -222 42 l-88 6 68 23 c38 13 76 33 87 46 18 22 18 24 0 37 -19 15 -27
14 -447 -5 -79 -3 -151 -3 -160 0 -15 6 -14 12 9 58 36 70 29 83 -38 75 -29
-3 -78 -14 -109 -25 -88 -30 -221 -44 -303 -31 -129 21 -377 93 -630 185 -220
80 -305 132 -305 188 0 18 5 19 55 13 49 -5 55 -4 66 15 14 27 44 23 166 -25
50 -19 111 -40 135 -46 56 -14 430 -32 440 -22 5 5 -2 24 -15 43 -43 63 -41
64 19 13 111 -95 144 -107 144 -55 0 17 5 33 11 37 6 4 44 -10 85 -31 l73 -38
58 39 c32 22 82 50 111 63 28 14 52 29 52 34 0 5 -19 27 -42 48 -24 21 -38 38
-32 39 6 0 44 -11 85 -25 l74 -26 25 30 c32 38 65 52 233 95 134 34 197 58
197 75 0 5 20 6 43 4 43 -5 107 17 107 36 0 5 -30 19 -67 32 l-68 24 0 53 c0
56 -11 72 -52 72 -12 0 -24 4 -27 9 -7 11 37 32 139 66 214 72 286 135 123
106 -123 -21 -262 -31 -442 -31 -100 -1 -190 2 -199 6 -25 9 -21 21 13 39 72
37 21 56 -179 66 -223 11 -367 36 -479 85 -45 20 -53 27 -50 46 3 20 11 24 63
31 40 5 65 14 77 28 12 14 27 19 53 17 26 -1 41 3 50 15 16 23 22 22 86 -12
30 -16 79 -33 109 -39 58 -10 110 -11 110 -1 0 3 -30 29 -66 59 -76 62 -73 69
31 71 39 1 101 4 139 8 l69 6 -114 55 -114 55 85 5 c99 7 128 20 210 95 32 29
78 62 102 73 76 33 119 134 63 148 -34 8 -77 0 -220 -43 -66 -20 -138 -37
-160 -37 l-40 -1 0 60 0 60 -30 -3 c-16 -2 -79 -19 -140 -38 -160 -52 -194
-53 -356 -10 -226 58 -409 134 -409 170 0 18 32 26 112 26 56 0 71 4 96 25 17
14 36 25 44 25 7 0 37 -18 67 -40 48 -36 59 -40 113 -40 79 0 198 27 205 48 5
10 -8 28 -37 54 -24 21 -41 40 -39 42 2 3 42 -9 88 -25 46 -16 86 -29 88 -29
2 0 1 20 -2 44 l-7 45 38 6 c59 9 69 18 66 57 -2 24 3 39 17 53 27 24 26 30
-5 58 -51 44 -50 50 26 133 120 132 108 134 -225 36 -268 -79 -399 -88 -495
-36 -62 34 -117 100 -103 123 15 24 74 25 158 1 150 -42 172 -13 66 88 -39 37
-71 71 -71 76 0 5 26 6 58 3 66 -7 141 5 153 24 11 19 -11 39 -52 48 l-34 7
40 21 c59 31 116 99 98 117 -3 3 -22 -3 -42 -13 -76 -39 -144 -46 -441 -45
-222 0 -307 4 -385 17 -92 16 -215 60 -215 77 0 4 21 10 46 13 61 7 68 15 56
71 -11 54 -4 58 40 20 39 -32 121 -74 147 -74 10 0 22 7 25 16 5 13 16 16 54
12 54 -6 72 -2 72 17 0 20 32 35 74 35 45 0 86 16 86 33 0 14 -80 94 -159 158
l-44 37 54 -9 c143 -24 274 -38 298 -33 40 10 52 23 41 44 -17 31 -11 55 18
82 39 36 59 45 127 53 33 4 68 12 78 17 25 13 21 34 -10 46 -69 25 -69 27 -3
29 96 4 110 9 110 38 0 18 8 28 25 35 21 8 24 13 16 28 -24 44 -51 57 -123 57
-62 0 -67 1 -49 14 28 18 27 47 -1 54 -13 3 -42 2 -65 -2 -54 -10 -67 -3 -53
33 16 43 13 46 -33 27 -23 -10 -83 -24 -132 -31 -50 -7 -119 -21 -155 -31 -36
-10 -66 -17 -67 -15 -2 1 29 31 68 65 70 63 106 107 96 117 -2 3 -22 -2 -43
-12 -111 -48 -170 -49 -127 -2 29 32 45 67 39 84 -8 22 -17 18 -97 -42 -116
-87 -180 -113 -291 -120 -154 -10 -327 22 -463 86 -93 43 -123 72 -136 131 -6
24 -21 58 -35 76 -29 38 -30 43 -4 43 12 0 29 -14 42 -35 29 -43 55 -55 126
-55 31 0 100 -7 154 -16 54 -9 101 -14 105 -10 3 3 8 30 11 59 l4 54 82 -49
c91 -55 122 -65 145 -51 22 14 25 47 6 63 -8 7 -15 16 -15 21 0 13 119 11 233
-3 90 -11 103 -11 155 7 30 11 57 25 59 31 2 6 -12 30 -31 54 -19 24 -33 48
-30 52 3 4 29 15 58 23 58 17 92 45 83 70 -4 9 -19 15 -37 15 -16 0 -30 4 -30
10 0 5 35 29 77 52 78 43 213 139 246 176 17 19 16 19 -45 31 -98 19 -157 41
-169 63 -10 18 -18 20 -68 15 -32 -4 -65 -9 -74 -13 -21 -8 -22 13 -2 36 8 9
16 27 17 41 5 39 -57 39 -132 0 -33 -17 -85 -38 -117 -46 -59 -15 -253 -21
-253 -7 0 4 17 16 38 27 l37 20 0 72 c0 39 -3 74 -7 78 -3 4 -42 -14 -85 -38
-109 -62 -173 -82 -263 -81 -194 3 -485 111 -727 271 -45 29 -85 58 -89 64
-14 23 10 21 63 -5 54 -26 58 -27 70 -10 7 10 13 29 13 43 0 25 2 25 34 -14
28 -34 40 -40 74 -42 26 -1 64 -14 105 -37 35 -20 67 -33 70 -29 4 3 7 29 7
57 0 77 11 86 55 48 47 -42 127 -82 164 -82 24 0 31 6 40 31 6 18 11 46 12 63
0 17 3 24 6 16 3 -8 14 -38 25 -66 15 -41 23 -51 41 -51 12 0 44 -10 69 -22
26 -11 52 -21 58 -21 6 0 32 20 58 44 26 24 56 46 67 48 21 4 21 5 9 91 -4 28
-3 47 3 47 5 0 36 -9 68 -20 104 -36 134 -23 91 39 -36 51 -33 61 14 61 22 0
40 3 40 6 0 3 -15 24 -33 47 -41 50 -49 71 -35 85 14 14 39 1 90 -44 21 -19
49 -36 64 -40 26 -7 132 1 141 10 2 2 -6 22 -18 43 -13 23 -20 47 -16 56 8 20
47 37 85 37 32 0 111 45 167 94 l40 35 -167 1 c-111 0 -168 4 -168 11 0 5 11
27 25 47 14 20 25 40 25 44 0 20 -45 3 -126 -48 -120 -76 -141 -86 -170 -82
l-24 3 26 39 26 38 -41 -7 c-55 -9 -64 12 -25 61 46 57 49 63 41 70 -13 13
-88 -30 -177 -101 -143 -114 -204 -132 -334 -99 -274 69 -504 193 -546 294
-18 43 -4 54 57 45 40 -6 55 -15 89 -52 41 -44 86 -64 128 -55 16 3 18 10 13
53 -3 27 -2 49 2 49 4 0 27 -22 49 -49 55 -65 139 -108 185 -94 l32 9 -4 86
c-3 79 -1 87 19 101 30 21 60 9 120 -47 51 -48 122 -79 183 -80 69 -2 61 23
-42 121 -93 88 -103 112 -41 98 20 -4 39 -19 53 -41 17 -26 29 -34 51 -34 17
0 40 -10 53 -22 19 -18 39 -23 93 -26 39 -3 70 0 70 5 0 5 -18 22 -40 39 -22
16 -40 34 -40 40 0 18 141 74 187 74 37 0 27 16 -34 55 l-58 36 86 -6 c109 -7
170 7 204 47 30 36 31 49 6 72 -14 13 -48 20 -128 27 -146 12 -156 15 -149 41
18 71 -81 63 -263 -22 -48 -22 -98 -41 -111 -42 -23 -3 -25 0 -25 42 0 42 -2
45 -30 50 -28 5 -30 8 -30 50 0 52 0 52 -98 18 -32 -11 -61 -17 -65 -13 -4 3
-7 27 -7 53 0 63 -21 66 -82 12 -26 -22 -91 -63 -146 -90 -81 -41 -108 -50
-152 -50 -50 0 -187 38 -207 58 -5 5 8 26 32 49 41 42 50 72 26 92 -8 7 -62
13 -137 14 -168 3 -205 23 -260 143 -54 117 -77 258 -44 271 25 9 28 -2 35
-100 6 -90 7 -96 54 -165 51 -77 75 -97 107 -87 26 9 57 72 67 137 l8 53 17
-50 c32 -95 117 -165 198 -165 54 0 61 14 33 74 -23 48 -31 86 -18 86 3 0 14
-5 25 -10 16 -9 21 -7 28 14 20 51 56 43 72 -17 13 -50 114 -153 178 -182 38
-17 43 -17 57 -3 9 8 18 35 21 59 7 54 19 79 38 79 9 0 15 10 15 25 0 23 3 22
41 -20 48 -52 70 -61 101 -42 13 8 57 22 98 32 78 18 188 69 197 92 8 20 -12
38 -80 73 -69 35 -97 57 -97 75 0 24 -29 36 -112 50 -91 15 -164 39 -199 66
l-24 18 28 25 c62 58 18 102 -95 94 -49 -4 -74 -12 -115 -38 -61 -38 -153 -55
-153 -27 0 15 63 50 112 62 35 9 41 28 17 58 -10 14 -19 29 -19 34 0 5 27 15
60 21 63 13 142 64 148 95 5 24 -26 35 -172 56 -71 11 -133 24 -138 29 -11 11
6 57 39 100 l25 33 63 -36 c35 -19 70 -35 77 -35 8 0 24 23 36 51 19 47 24 51
47 45 21 -5 27 -2 35 18 7 19 19 26 47 31 46 7 63 16 77 38 24 38 -42 85 -131
94 -32 3 -66 10 -75 15 -30 15 -21 46 21 73 23 14 41 34 43 47 2 14 25 38 62
63 69 49 80 65 61 91 -11 16 -29 20 -119 22 -58 2 -106 6 -106 8 0 2 29 43 64
91 79 106 86 128 53 161 l-25 25 -34 -21 c-18 -11 -65 -55 -105 -96 -39 -42
-78 -76 -86 -76 -8 0 -31 20 -51 45 -21 25 -45 45 -55 45 -40 0 -119 -125
-161 -253 -16 -48 -36 -85 -68 -120 -93 -107 -248 -227 -291 -227 -27 0 -30
16 -33 195 -3 124 -6 154 -20 175 -13 18 -18 44 -18 100 0 122 31 162 134 176
l47 7 -7 -52 c-12 -96 30 -107 112 -29 52 49 55 51 81 37 49 -26 153 -8 153
26 0 19 -114 136 -160 164 -19 11 -48 21 -63 21 -34 0 -97 25 -97 39 0 16 44
24 102 17 236 -25 342 -17 336 27 -2 15 -15 26 -42 35 -22 7 -57 28 -78 48
-34 30 -44 34 -70 29 -26 -6 -30 -5 -25 10 4 9 7 18 7 20 0 2 33 28 73 58 130
99 148 135 59 123 -52 -7 -236 -93 -270 -126 -29 -28 -34 -23 -22 21 14 46 4
89 -20 89 -40 0 -146 -176 -157 -260 -5 -35 -9 -41 -25 -37 -13 4 -33 -6 -59
-30 l-39 -35 0 53 c0 157 38 254 156 398 86 106 164 218 164 237 0 7 -7 20
-16 29 -18 18 -58 14 -105 -11 -31 -16 -89 -79 -89 -98 0 -19 -39 -66 -55 -66
-23 0 -34 53 -37 190 -4 151 -10 170 -86 243 l-39 38 -6 -92z m-153 -1109 c58
-55 110 -142 120 -203 8 -43 -2 -147 -14 -147 -10 0 -44 80 -69 166 -12 41
-38 94 -60 126 -43 59 -61 108 -41 108 6 0 35 -23 64 -50z m-77 -460 c109 -55
170 -122 188 -207 10 -50 -21 -43 -79 16 -27 28 -63 55 -80 62 -42 17 -84 56
-107 102 -34 65 -13 72 78 27z m872 -249 c25 -16 1 -47 -87 -114 -98 -74 -211
-137 -247 -137 -15 0 -31 -10 -41 -25 -41 -63 -86 5 -52 80 15 32 43 39 128
31 83 -7 120 4 120 37 0 28 24 52 62 61 16 3 30 15 34 29 13 45 47 60 83 38z
m-229 -517 c134 -2 131 -1 111 -33 -9 -14 -89 -34 -131 -32 -26 1 -75 31 -130
80 l-35 32 45 -23 c37 -19 62 -23 140 -24z m200 -49 c41 -30 50 -31 50 -5 0
25 38 28 47 3 5 -11 -5 -26 -31 -49 -43 -37 -82 -50 -102 -33 -19 16 -19 109
1 109 0 0 16 -11 35 -25z m490 -135 c-14 -26 -49 -35 -67 -17 -18 18 -10 35
21 47 31 12 59 -6 46 -30z m-775 -585 c9 -77 3 -220 -8 -232 -18 -17 -45 37
-52 104 -6 62 7 192 22 216 12 20 32 -26 38 -88z m-258 -362 c4 -11 -23 -43
-35 -43 -4 0 -14 5 -22 10 -13 9 -11 13 9 31 25 20 42 21 48 2z m253 -114 c0
-37 -4 -58 -10 -54 -18 11 -12 115 7 115 2 0 3 -27 3 -61z m-390 28 c0 -19
-21 -37 -42 -37 -18 0 -25 29 -11 43 12 12 53 7 53 -6z m-802 -101 c52 -49 87
-66 133 -66 37 0 63 13 112 57 27 24 46 33 65 31 18 -2 26 -8 23 -18 -9 -38
-5 -45 26 -48 23 -2 40 5 66 27 39 35 71 40 82 14 23 -63 -203 -132 -441 -136
-120 -2 -132 4 -164 91 -25 67 -20 92 21 92 22 0 43 -12 77 -44z m642 37 c0
-12 -33 -43 -46 -43 -17 0 -25 15 -18 34 6 15 64 24 64 9z m2328 -1745 c14
-14 16 -44 3 -53 -13 -8 -41 23 -41 46 0 21 20 25 38 7z m-2798 -409 c-70 -59
-243 -123 -252 -95 -6 17 215 116 257 115 18 0 18 -1 -5 -20z m2957 -1401 c27
-11 25 -12 -38 -19 -37 -5 -93 -5 -125 0 -54 7 -57 9 -34 19 34 15 162 15 197
0z m693 -179 c0 -12 -67 -12 -75 0 -3 5 3 11 12 13 25 5 63 -3 63 -13z m45
-835 c26 -17 33 -34 15 -34 -21 0 -75 27 -90 45 -14 17 -13 18 17 12 18 -4 44
-14 58 -23z m-5815 -1324 c-12 -23 -57 -37 -72 -22 -11 11 34 41 65 42 15 0
16 -3 7 -20z m610 -356 c35 -36 63 -64 65 -62 1 2 20 30 42 63 62 92 65 93
104 44 l33 -42 17 22 c25 31 34 26 53 -24 20 -52 52 -80 73 -63 7 6 13 17 13
24 0 21 43 34 113 34 l62 0 -55 -31 c-84 -46 -149 -61 -253 -59 -145 4 -149 3
-142 -20 9 -29 -13 -26 -106 15 -90 39 -100 41 -132 21 -28 -18 -92 0 -92 26
0 9 27 47 59 83 53 60 61 66 72 50 7 -9 40 -46 74 -81z m710 47 c0 -11 -54
-31 -83 -31 -19 0 -20 1 -2 20 18 20 85 29 85 11z m-347 -1357 c11 -12 -13
-44 -33 -44 -26 0 -33 16 -14 34 16 17 36 21 47 10z"/>
</g>
</svg>
