<?xml version="1.0" standalone="no"?>
<!DOCTYPE svg PUBLIC "-//W3C//DTD SVG 20010904//EN"
 "http://www.w3.org/TR/2001/REC-SVG-20010904/DTD/svg10.dtd">
<svg version="1.0" xmlns="http://www.w3.org/2000/svg"
 width="640.000000pt" height="1280.000000pt" viewBox="0 0 640.000000 1280.000000"
 preserveAspectRatio="xMidYMid meet">
<metadata>
Created by potrace 1.15, written by Peter Selinger 2001-2017
</metadata>
<g transform="translate(0.000000,1280.000000) scale(0.100000,-0.100000)"
fill="#000000" stroke="none">
<path d="M3105 12756 c-9 -21 -27 -81 -40 -133 -13 -52 -38 -119 -55 -149 -46
-80 -27 -112 32 -54 37 38 31 19 -23 -72 -31 -52 -47 -68 -70 -73 -28 -6 -39
-25 -37 -65 0 -8 -3 -23 -7 -32 -6 -15 -2 -18 29 -18 20 0 36 -2 36 -5 0 -3
-18 -41 -40 -85 -41 -82 -41 -87 4 -70 22 8 26 7 26 -8 0 -9 5 -24 10 -32 9
-13 14 -11 35 13 26 30 45 35 45 13 0 -19 -27 -46 -46 -46 -8 0 -14 -4 -14 -9
0 -14 22 -26 41 -23 27 5 33 -30 10 -50 -12 -9 -21 -22 -21 -30 0 -8 -5 -19
-12 -26 -20 -20 4 -35 37 -22 20 7 31 7 41 -1 11 -9 7 -18 -19 -52 -26 -32
-60 -54 -173 -109 -78 -37 -149 -68 -160 -68 -33 0 -1 -18 60 -34 32 -9 61
-17 63 -19 9 -9 -62 -116 -84 -126 -31 -14 -29 -26 7 -53 28 -20 29 -23 14
-39 -9 -10 -14 -27 -11 -39 4 -17 1 -19 -19 -14 -13 3 -43 -1 -66 -10 -39 -15
-47 -16 -80 -1 -54 22 -61 20 -55 -15 6 -25 3 -30 -14 -30 -11 0 -17 -4 -14
-10 3 -5 15 -10 26 -10 11 0 27 -7 36 -16 14 -13 14 -16 1 -27 -8 -7 -25 -27
-38 -46 -23 -33 -23 -33 -2 -27 16 5 21 3 19 -11 0 -10 10 -33 23 -50 17 -24
23 -44 22 -77 -2 -45 -2 -45 38 -56 22 -6 40 -13 40 -16 0 -3 -7 -18 -15 -35
-9 -16 -13 -34 -10 -39 3 -6 37 -10 74 -10 67 0 69 -1 81 -30 18 -43 30 -49
78 -40 40 7 42 6 42 -17 0 -32 26 -40 61 -19 29 17 30 17 60 -13 l30 -31 -15
-271 c-8 -150 -18 -275 -23 -279 -14 -13 -104 -39 -177 -51 -286 -48 -681 99
-953 354 -29 27 -57 46 -62 42 -18 -10 -12 -73 9 -115 20 -40 20 -40 1 -40
-11 0 -23 -5 -27 -11 -3 -6 -15 -9 -25 -6 -15 4 -17 2 -9 -13 5 -10 21 -27 35
-38 14 -11 25 -24 25 -30 0 -5 7 -12 15 -16 8 -3 15 -9 15 -13 0 -11 -94 -63
-113 -63 -35 0 -25 -20 13 -26 22 -4 57 -20 77 -36 20 -16 43 -26 50 -24 7 3
13 1 13 -4 0 -13 33 -13 47 1 21 21 25 -12 4 -35 -28 -30 -27 -38 10 -59 27
-15 31 -22 27 -48 -6 -37 12 -48 45 -27 12 8 39 18 60 21 l38 6 -7 -34 c-6
-33 -5 -34 33 -37 l38 -3 -27 -14 c-16 -8 -28 -18 -28 -23 0 -16 51 -7 71 13
21 21 21 21 48 2 34 -26 49 -68 33 -93 -10 -17 -10 -20 7 -20 10 0 30 9 44 20
27 21 42 14 31 -15 -5 -11 -2 -16 7 -14 29 6 68 -11 62 -26 -3 -9 1 -23 10
-33 8 -9 18 -27 21 -39 10 -33 43 -29 65 8 14 23 35 37 72 50 65 23 62 23 49
0 -5 -11 -19 -23 -30 -26 -13 -4 -20 -15 -20 -30 0 -35 18 -40 51 -16 27 20
31 21 59 6 26 -13 30 -21 30 -55 0 -37 2 -40 38 -49 20 -6 43 -11 50 -11 9 0
12 -24 12 -86 l0 -86 43 7 c23 4 57 15 75 26 l32 18 0 -109 c0 -106 -1 -109
-28 -137 -16 -15 -40 -33 -53 -39 -27 -13 -321 -34 -470 -34 -159 0 -292 48
-591 214 -106 58 -188 98 -188 91 0 -7 16 -36 35 -65 30 -44 32 -52 16 -47
-13 3 -21 -1 -24 -12 -2 -11 -10 -3 -24 25 -12 22 -33 45 -47 52 -38 17 -34
-4 15 -69 l40 -54 -30 -3 c-40 -4 -39 -12 7 -41 20 -13 31 -26 25 -28 -10 -4
-9 -8 2 -20 21 -21 19 -32 -6 -26 -25 7 -49 -19 -49 -52 0 -17 -9 -25 -41 -34
-51 -15 -46 -32 14 -51 26 -8 47 -18 47 -22 0 -4 -9 -16 -21 -26 -19 -18 -19
-21 -4 -36 9 -9 20 -16 25 -16 5 0 18 -10 30 -22 18 -20 19 -23 4 -40 -14 -14
-14 -20 -4 -33 7 -8 22 -15 34 -15 34 0 53 -17 38 -32 -22 -22 -12 -36 33 -43
40 -5 50 -13 85 -58 67 -89 141 -123 148 -69 6 44 27 16 25 -32 l-3 -47 34 6
c29 6 36 3 58 -26 l26 -32 12 24 c22 42 73 90 81 77 6 -10 18 -9 54 4 44 17
46 17 41 0 -3 -9 -8 -34 -12 -55 -5 -32 -4 -36 10 -31 9 3 19 18 22 33 11 49
10 49 53 41 48 -9 71 -25 71 -52 0 -28 22 -17 42 21 16 32 17 32 28 11 7 -12
10 -44 8 -71 -2 -38 0 -48 10 -44 8 3 15 5 18 5 8 0 34 60 34 80 0 24 28 27
70 5 16 -8 31 -11 34 -6 4 5 9 37 13 70 3 34 10 64 15 67 13 9 45 -23 52 -52
5 -17 12 -24 24 -22 14 3 17 14 17 58 0 53 1 55 28 58 16 2 35 -2 43 -9 21
-18 27 -6 16 35 -9 31 -8 38 7 46 17 8 18 -6 25 -248 3 -141 10 -304 15 -362
6 -58 7 -121 4 -141 -5 -36 -6 -36 -97 -64 -215 -65 -268 -76 -406 -81 -345
-14 -809 97 -1024 245 -25 18 -46 29 -46 26 0 -10 47 -80 64 -94 9 -7 16 -19
16 -25 0 -6 11 -35 25 -65 25 -53 26 -76 3 -53 -15 15 -102 16 -93 2 3 -5 15
-10 26 -10 10 0 19 -5 19 -10 0 -7 -13 -8 -35 -4 -35 6 -35 6 -25 -21 19 -51
30 -64 65 -76 19 -7 35 -19 35 -25 0 -7 10 -20 21 -28 21 -14 21 -16 5 -40
-12 -19 -13 -26 -4 -28 7 -1 -57 -4 -142 -8 -85 -3 -163 -10 -173 -16 -16 -9
-15 -13 13 -52 32 -45 83 -82 113 -82 27 0 20 -21 -12 -33 -28 -10 -28 -12
-16 -41 8 -17 16 -39 19 -50 5 -14 14 -17 40 -14 33 4 34 3 29 -23 -3 -16 1
-36 10 -49 8 -12 13 -30 10 -41 -4 -15 0 -19 18 -19 13 0 61 -8 107 -17 65
-14 89 -15 112 -6 28 11 31 9 46 -18 16 -32 15 -32 81 13 23 15 46 28 50 28 5
0 27 -18 48 -40 21 -22 44 -40 50 -40 15 0 49 38 69 77 14 28 19 31 34 22 14
-9 26 -8 50 5 18 9 37 14 42 11 5 -3 11 -1 15 5 3 5 15 15 26 20 16 9 21 7 29
-15 11 -30 28 -31 80 -5 56 29 64 26 57 -16 -12 -70 -25 -79 -148 -103 -176
-35 -225 -40 -273 -28 -24 7 -28 5 -22 -8 5 -14 -9 -16 -131 -14 -143 1 -169
-7 -116 -35 15 -8 48 -35 73 -60 24 -25 52 -46 61 -46 29 0 31 -18 4 -36 -28
-18 -25 -31 13 -46 l27 -10 -42 -15 c-24 -8 -43 -19 -43 -24 0 -17 64 -41 129
-47 54 -6 66 -10 66 -25 0 -10 -17 -27 -40 -40 -68 -38 -60 -51 62 -90 59 -20
122 -38 140 -42 42 -8 96 7 134 39 39 33 47 33 55 -1 10 -43 13 -44 51 -28 41
17 113 20 113 4 0 -6 -25 -37 -56 -69 -63 -66 -92 -79 -289 -124 -230 -52
-263 -54 -450 -21 -124 21 -125 21 -78 -27 l42 -43 -24 -17 c-13 -10 -33 -32
-46 -49 l-22 -31 57 7 c54 7 56 7 56 -17 0 -15 -15 -39 -39 -62 -33 -32 -38
-42 -32 -64 8 -31 37 -39 83 -23 26 9 29 9 24 -6 -6 -14 4 -15 94 -9 l100 7 0
-35 c0 -29 4 -37 24 -42 14 -3 45 -2 70 4 44 9 45 9 48 -17 3 -26 4 -26 81
-26 54 0 80 -4 86 -13 7 -12 21 -11 82 1 73 16 74 15 116 -9 23 -13 53 -24 66
-24 61 0 88 -12 94 -41 5 -25 10 -29 38 -29 31 0 123 15 157 26 10 3 18 -1 20
-12 2 -13 15 -7 64 29 l61 45 7 -60 c3 -34 6 -83 6 -110 0 -48 0 -48 -27 -41
-16 5 -50 8 -78 8 -45 0 -50 -2 -53 -23 -4 -23 -5 -23 -90 -18 -48 4 -174 11
-281 17 -106 5 -216 14 -244 19 -27 6 -78 10 -112 10 -105 0 -528 84 -544 108
-3 5 -54 25 -112 46 -171 58 -429 101 -429 71 0 -8 -8 -16 -18 -18 -16 -4 -16
-5 1 -6 14 -1 17 -6 12 -21 -6 -18 -2 -20 50 -20 52 0 125 -23 125 -39 0 -3
-9 -17 -20 -31 -11 -14 -20 -31 -20 -37 0 -8 -15 -13 -40 -13 -40 0 -53 -13
-25 -24 8 -3 38 -8 67 -12 l51 -7 -25 -21 c-14 -12 -34 -26 -44 -32 -18 -11
-18 -13 5 -38 l24 -26 -59 0 c-124 0 -124 -57 0 -67 36 -3 66 -8 66 -10 0 -2
-12 -15 -27 -27 l-27 -24 39 -11 c22 -6 46 -11 54 -11 8 0 11 -6 7 -15 -7 -19
-11 -19 80 6 41 11 78 19 80 16 3 -2 -14 -16 -38 -30 -55 -33 -170 -128 -176
-144 -6 -21 24 -15 55 10 50 42 140 97 157 97 36 0 14 -37 -44 -74 -100 -64
-139 -116 -87 -116 38 0 38 -10 1 -42 -19 -17 -33 -32 -31 -34 2 -2 27 9 56
24 51 29 53 29 105 14 51 -14 54 -17 60 -53 3 -21 10 -41 16 -44 15 -9 66 70
102 156 32 80 41 88 68 66 46 -36 65 -111 39 -159 -30 -55 53 -16 129 61 57
59 61 61 110 61 77 0 87 -7 53 -36 -19 -16 -41 -24 -66 -24 -32 0 -37 -3 -32
-19 4 -17 -3 -21 -47 -30 -53 -12 -126 -41 -126 -52 0 -11 41 -19 95 -19 28 0
57 -5 65 -10 11 -7 21 -2 40 20 37 42 62 43 71 2 6 -30 3 -38 -30 -69 l-36
-34 45 5 c77 9 106 15 134 26 15 5 41 10 57 10 38 0 82 22 142 72 38 32 48 36
53 24 9 -24 30 -19 49 10 12 19 20 23 29 15 7 -6 15 -8 18 -6 3 3 20 -8 38
-25 18 -17 45 -37 59 -44 l25 -14 -32 -16 c-18 -9 -32 -21 -32 -26 0 -23 28
-6 82 50 32 33 65 60 73 60 8 0 15 7 15 15 0 8 7 15 15 15 9 0 15 -9 15 -25 0
-31 2 -31 40 4 25 23 44 30 93 34 34 3 72 9 84 12 20 6 21 4 16 -34 -5 -39 -4
-41 20 -41 13 0 27 7 31 15 3 8 13 15 22 15 14 0 15 -7 11 -37 -4 -21 -12
-109 -18 -195 -7 -87 -16 -155 -21 -152 -4 3 -8 -7 -8 -21 0 -15 -8 -56 -17
-91 l-17 -65 -111 -34 c-415 -129 -1023 -144 -1520 -35 -44 9 -94 18 -111 19
-17 0 -69 12 -115 26 -99 30 -390 95 -422 95 -7 0 7 -12 31 -26 23 -14 42 -31
42 -38 0 -8 11 -21 24 -30 17 -11 23 -21 19 -36 -4 -17 2 -24 36 -38 22 -9 41
-20 41 -23 0 -4 -23 -16 -50 -28 -52 -22 -55 -32 -18 -59 12 -9 17 -21 13 -32
-3 -11 4 -29 20 -48 14 -16 25 -33 25 -36 0 -3 -15 -12 -33 -20 l-32 -14 60
-2 60 -2 -54 -24 c-65 -30 -56 -43 29 -45 l55 0 -40 -18 -40 -18 34 -6 c18 -4
50 -8 70 -8 20 -1 28 -3 18 -6 -47 -12 6 -43 76 -43 33 0 39 -3 27 -11 -11 -8
-4 -9 28 -5 l43 6 -21 -39 c-11 -22 -20 -43 -20 -47 0 -3 23 -4 50 -2 28 1 50
1 50 -2 0 -2 -16 -21 -36 -41 -20 -21 -33 -42 -30 -48 8 -12 61 -14 89 -2 20
7 144 -11 190 -28 15 -6 27 -15 27 -21 0 -9 -108 -84 -134 -93 -5 -2 -6 -15
-2 -30 10 -40 57 -60 126 -55 l58 4 -55 -68 c-49 -62 -52 -68 -31 -68 13 0 43
10 68 21 98 45 93 46 85 -11 -8 -59 -4 -61 73 -25 30 14 58 25 63 25 5 0 9
-25 9 -55 0 -30 3 -55 6 -55 3 0 19 11 36 25 42 35 58 32 58 -10 0 -19 3 -35
6 -35 14 0 131 64 151 82 12 11 30 40 40 65 19 46 16 45 80 27 17 -5 30 2 52
24 l30 30 16 -24 c15 -23 17 -24 45 -9 16 9 37 26 46 40 8 13 21 22 29 19 7
-3 16 0 20 6 5 8 15 3 31 -16 l24 -29 20 24 c11 13 20 30 20 38 0 11 8 10 36
-7 34 -22 36 -22 74 -5 26 12 43 14 55 8 14 -8 6 -14 -42 -32 -90 -34 -94 -39
-84 -100 11 -69 24 -81 54 -53 13 12 28 22 35 22 6 0 26 13 44 29 24 21 48 30
88 35 l55 7 -43 -40 c-24 -22 -56 -43 -73 -46 -16 -4 -29 -10 -29 -15 0 -14
60 -17 80 -3 22 15 34 3 25 -26 -3 -11 -1 -22 5 -26 5 -3 10 -22 10 -42 0 -29
3 -34 18 -29 29 10 -47 -51 -153 -122 -240 -162 -535 -281 -990 -397 -93 -24
-192 -46 -220 -50 -27 -3 -99 -22 -159 -41 -60 -19 -115 -33 -122 -30 -7 3
-16 1 -18 -3 -3 -5 -50 -19 -103 -31 -54 -12 -102 -25 -107 -27 -36 -22 132
-30 274 -13 83 10 120 5 120 -15 0 -20 -9 -23 -78 -27 -39 -2 -62 -7 -62 -15
0 -19 50 -72 83 -90 l31 -16 -32 -27 c-38 -31 -39 -39 -12 -70 12 -13 18 -30
16 -37 -6 -16 59 -18 98 -3 31 11 32 6 6 -27 -27 -34 -27 -57 -1 -43 11 5 30
10 42 10 21 0 22 -8 5 -51 -6 -14 1 -14 66 -3 92 16 357 38 365 31 3 -4 1 -20
-5 -37 -10 -27 -8 -32 11 -44 12 -8 38 -17 57 -21 59 -11 100 -26 100 -37 0
-5 -18 -26 -40 -45 -66 -60 -50 -88 43 -77 43 5 56 3 77 -14 l24 -20 79 34
c88 37 117 58 117 86 0 26 17 22 36 -7 20 -31 24 -31 69 -1 21 15 58 27 90 31
48 6 55 10 55 30 0 12 -7 28 -15 35 -24 20 -17 50 20 86 19 18 35 36 35 41 0
4 11 22 25 38 l25 30 30 -33 c17 -18 30 -43 30 -57 0 -14 4 -25 9 -25 19 0 32
31 30 71 l-3 41 59 24 c69 28 78 29 96 8 12 -14 14 -14 26 2 7 10 13 28 13 40
0 12 7 27 16 34 12 11 18 10 31 -3 14 -14 15 -31 3 -169 -7 -84 -9 -180 -6
-213 12 -97 17 -708 8 -860 -4 -77 -4 -197 1 -267 9 -118 8 -130 -13 -185 -16
-42 -24 -88 -28 -170 l-5 -112 27 -12 c19 -9 23 -15 14 -21 -29 -18 58 -48
151 -51 33 -1 56 -6 53 -11 -3 -6 48 -6 129 -1 74 4 159 9 189 11 30 1 68 7
84 13 15 6 70 16 120 21 51 5 108 16 127 24 l34 14 -28 11 c-16 6 -33 11 -38
11 -12 0 -11 7 5 33 8 12 17 32 21 45 6 20 3 22 -31 22 l-37 0 6 263 c4 177 2
313 -7 422 -10 128 -10 164 0 185 15 30 44 163 45 205 0 45 -20 452 -35 700
-8 121 -12 222 -10 224 7 8 54 -110 60 -152 3 -23 10 -52 16 -64 6 -11 9 -37
6 -57 -4 -32 -1 -36 19 -36 36 0 68 -42 108 -143 l38 -95 28 10 c16 5 42 25
58 44 17 19 32 34 35 34 2 0 19 -25 36 -56 35 -60 68 -96 82 -88 4 3 8 31 8
63 0 73 17 100 53 84 19 -9 27 -22 32 -50 3 -21 23 -81 43 -133 30 -75 43 -96
59 -98 14 -2 27 6 39 22 17 27 44 35 44 13 0 -13 60 -77 72 -77 3 0 8 9 11 20
3 11 9 20 14 20 4 0 38 -44 74 -98 62 -92 133 -162 165 -162 10 0 14 12 14 41
0 37 2 40 23 33 12 -4 41 -22 64 -41 23 -19 47 -32 53 -28 5 3 10 35 10 71 0
35 4 64 8 64 5 0 19 -12 33 -26 31 -33 71 -54 105 -54 27 0 27 1 21 55 -7 64
0 67 53 25 37 -29 98 -60 120 -60 15 0 -14 64 -55 120 -20 27 -32 51 -28 53 5
3 36 0 69 -7 l60 -13 20 30 c10 17 28 47 40 66 19 34 23 36 78 39 58 3 58 3
54 33 l-5 29 121 1 121 1 -60 20 c-33 11 -96 30 -140 42 l-80 23 38 12 c52 18
46 29 -49 87 -18 11 -17 13 7 22 15 6 40 28 58 49 30 37 31 38 11 47 -20 9
-20 9 2 34 l23 25 -30 -6 c-16 -4 -91 -22 -165 -42 -77 -21 -172 -39 -220 -42
-82 -5 -91 -4 -210 37 -69 23 -142 51 -162 61 -25 13 -47 17 -68 13 -24 -5
-29 -4 -25 8 4 10 -19 32 -72 69 -89 61 -309 226 -368 276 -44 37 -177 194
-170 201 2 3 25 -8 50 -23 38 -22 49 -24 61 -14 13 10 31 -3 112 -83 177 -174
251 -224 305 -205 27 9 33 7 56 -20 14 -17 35 -36 47 -42 12 -5 86 -11 165
-12 124 -1 154 2 218 21 69 21 75 22 107 7 l33 -16 3 42 c3 37 6 42 31 45 31
4 33 9 11 40 -20 29 -10 44 22 32 48 -19 64 -13 84 34 10 24 23 47 29 50 19
12 12 25 -20 41 l-31 16 69 49 c37 27 86 67 107 89 l39 40 -199 -6 c-274 -8
-506 14 -719 68 -202 51 -448 150 -427 171 8 8 18 9 36 0 31 -14 36 -8 23 28
-20 52 2 57 78 16 79 -42 117 -46 139 -14 9 12 18 19 21 16 3 -3 15 -40 27
-82 16 -59 24 -76 37 -74 10 2 17 15 19 35 l3 31 76 -35 c120 -55 175 -55 126
0 -15 17 -16 21 -4 25 8 3 25 15 38 28 12 12 25 19 28 14 3 -5 22 -14 43 -21
20 -6 49 -24 64 -40 15 -16 31 -29 35 -29 4 0 16 14 26 31 17 30 20 31 65 25
l48 -6 -4 35 c-5 45 16 54 75 33 38 -14 59 -9 33 7 -5 3 -10 12 -10 19 0 10
10 10 54 -1 34 -8 62 -10 77 -5 l23 9 -29 16 c-28 15 -29 16 -6 17 13 0 54 8
93 17 53 13 74 23 88 43 l19 27 -25 13 c-31 17 -15 30 38 30 44 0 91 16 84 29
-3 5 17 26 44 47 44 33 48 39 33 48 -10 5 -46 9 -80 8 -34 -2 -64 1 -67 6 -8
13 59 57 124 82 30 11 80 34 110 50 l55 29 -90 -7 c-172 -13 -600 -7 -735 12
-497 68 -926 224 -1292 468 l-118 79 0 132 c0 130 16 376 24 384 7 8 126 -29
126 -39 0 -4 -13 -11 -30 -14 -16 -4 -30 -10 -30 -14 0 -4 27 -61 60 -127 101
-201 168 -244 259 -167 31 26 32 26 71 10 22 -9 56 -16 76 -16 30 0 34 2 25
18 -5 10 -40 47 -76 83 -58 55 -95 104 -95 124 0 3 14 -1 30 -10 34 -18 34
-17 18 36 -6 22 -9 42 -6 45 11 10 63 -23 100 -65 50 -56 80 -69 112 -48 l24
16 31 -80 c17 -44 31 -86 31 -91 0 -6 8 -4 18 5 31 28 53 20 137 -48 103 -84
105 -84 80 -2 -13 42 -13 53 0 83 8 19 17 34 20 34 22 0 74 -54 126 -131 33
-49 64 -87 69 -84 6 4 10 24 10 46 0 43 2 44 32 28 23 -12 42 5 33 29 -3 9 12
12 57 12 60 0 60 0 46 22 -8 13 -50 47 -94 76 -43 29 -80 57 -82 62 -5 14 78
33 119 27 32 -4 36 -2 32 13 -3 10 -14 26 -24 36 -10 9 -19 20 -19 23 0 3 48
6 108 6 105 0 193 18 175 35 -4 5 -71 28 -147 51 -84 25 -155 52 -177 69 -21
15 -52 33 -68 40 -16 6 -32 18 -35 26 -7 18 -9 19 77 -16 49 -20 93 -30 126
-30 28 0 51 2 51 5 0 3 -7 16 -16 29 -18 29 -11 35 56 43 55 6 63 20 34 61
-21 31 -10 42 41 42 24 0 55 4 69 10 l26 10 -37 35 c-46 42 -36 55 42 55 54 0
86 13 70 28 -6 5 -36 19 -68 32 -62 24 -63 31 -4 50 40 13 57 34 57 75 0 14 7
41 15 61 l14 35 -51 -7 c-69 -9 -57 7 27 37 99 35 103 49 15 49 l-72 0 27 31
c32 39 20 59 -22 36 -43 -24 -306 -103 -418 -126 -93 -18 -187 -39 -423 -92
-73 -17 -115 -21 -190 -17 -54 3 -107 10 -119 16 -11 6 -47 14 -79 18 -45 5
-66 13 -89 34 -20 19 -46 31 -77 35 -27 4 -48 10 -48 14 0 4 -44 16 -97 26
-77 14 -93 20 -75 26 27 10 21 29 -9 29 -18 0 -19 8 -19 110 l0 110 43 0 c23
0 49 4 56 9 11 7 21 1 38 -22 13 -17 23 -39 23 -49 0 -25 20 -23 59 6 31 23
61 25 61 4 0 -5 -23 -19 -52 -32 -28 -12 -47 -25 -42 -29 15 -9 166 -49 207
-54 27 -4 37 -10 37 -23 0 -9 9 -25 20 -35 20 -18 21 -18 47 8 l27 26 35 -31
c34 -30 36 -31 111 -25 50 4 81 2 88 -5 8 -8 22 -1 53 24 l42 35 44 -33 c25
-19 49 -34 53 -34 5 0 19 13 32 30 15 21 30 30 49 30 29 0 59 23 59 45 0 8 16
16 39 20 21 3 58 12 82 19 l44 13 -49 25 -50 25 45 7 c65 10 81 23 36 30 -20
3 -53 9 -73 12 l-36 5 26 28 c17 18 26 38 26 59 0 18 5 32 12 32 6 0 4 7 -6
18 -24 27 -83 42 -168 42 -163 0 -359 52 -515 136 -173 94 -376 273 -476 420
-46 67 -49 75 -53 150 -2 43 -11 150 -20 237 -9 87 -13 161 -10 165 3 3 6 -7
6 -21 0 -15 5 -27 10 -27 6 0 10 7 10 16 0 9 6 14 13 12 7 -3 15 -31 18 -67 5
-50 12 -68 33 -89 l26 -27 0 30 c0 17 -4 46 -10 65 -8 29 -7 37 12 57 27 28
38 20 69 -50 23 -53 23 -53 68 -52 42 0 47 -3 62 -34 19 -40 47 -59 55 -37 4
11 12 13 29 6 26 -10 38 -1 50 39 7 23 8 23 18 5 19 -37 73 -86 119 -110 60
-31 64 -30 77 7 19 54 50 77 102 77 30 -1 65 8 102 25 69 33 73 33 122 0 26
-18 56 -28 90 -30 47 -4 51 -2 70 29 17 28 27 33 64 36 40 3 43 5 38 28 -2 13
0 27 5 30 5 3 3 13 -4 22 -12 14 -8 15 33 9 30 -4 52 -2 63 6 14 11 15 15 1
41 -25 47 -16 54 70 48 77 -5 77 -5 63 17 -13 21 -83 61 -107 61 -26 0 1 19
49 35 53 18 70 37 70 79 0 28 -18 41 -72 51 -58 11 -61 41 -9 85 94 78 116 99
109 105 -4 4 -34 0 -67 -8 -33 -9 -69 -13 -80 -10 -18 4 -16 7 12 34 39 35 32
35 -85 4 -51 -14 -104 -25 -119 -25 -14 0 -29 -4 -35 -10 -16 -16 -233 -58
-368 -71 -150 -14 -323 -7 -384 15 -23 8 -79 22 -124 31 -95 18 -168 49 -255
108 -56 37 -63 46 -63 74 0 19 5 32 11 30 6 -1 16 12 23 28 6 17 16 39 22 49
12 20 13 20 54 1 24 -11 46 -29 51 -42 8 -23 42 -32 53 -14 3 4 40 -2 83 -14
86 -25 251 -51 260 -41 4 3 0 17 -7 31 -19 35 -7 41 28 15 l30 -23 52 52 c59
59 84 63 110 16 19 -35 50 -46 50 -18 0 10 -14 36 -30 57 -17 22 -30 43 -30
48 0 18 32 6 57 -22 33 -37 47 -38 38 -3 -4 16 -3 25 0 21 4 -4 23 -1 41 7 33
14 34 14 61 -23 50 -68 76 -79 95 -37 7 16 19 25 33 25 23 0 47 22 58 53 4 11
17 17 37 17 38 0 70 16 70 34 0 21 34 46 62 46 15 0 31 9 39 20 8 12 35 26 64
34 31 8 51 18 53 29 3 14 -2 15 -30 7 -30 -9 -31 -8 -14 5 11 8 27 15 36 15 9
0 22 11 28 25 6 14 18 25 26 25 8 0 27 5 41 10 26 10 26 11 11 35 -9 13 -13
32 -9 41 5 14 3 16 -13 10 -31 -12 -39 -12 -37 2 2 6 -5 12 -14 12 -30 0 -1
16 82 44 89 31 107 42 82 52 -9 3 -36 -3 -60 -15 -48 -23 -103 -28 -110 -8 -3
9 -7 9 -20 -1 -16 -13 -82 -8 -92 8 -2 4 15 13 38 20 23 7 80 32 128 55 81 41
118 69 106 81 -3 3 -114 -31 -247 -76 -291 -97 -402 -125 -557 -140 -65 -6
-146 -15 -179 -20 -89 -14 -225 -12 -302 4 -37 8 -107 21 -157 30 -104 19
-186 55 -214 95 -18 25 -20 52 -27 287 -6 232 -5 267 11 336 18 77 19 78 67
103 26 14 52 25 58 25 6 0 18 -16 26 -35 19 -45 50 -46 100 -3 24 21 47 32 68
33 28 0 32 4 40 43 9 37 13 42 37 42 49 0 78 17 87 51 6 25 14 33 36 36 19 3
33 -2 42 -14 7 -10 14 -13 14 -7 0 6 27 23 59 37 32 14 66 35 74 47 14 20 19
21 50 11 19 -6 41 -9 49 -6 8 3 33 2 56 -4 32 -7 42 -6 42 4 0 7 -7 15 -15 19
-22 8 -18 34 7 42 11 3 53 26 92 49 39 23 82 46 95 50 19 6 22 12 17 36 -4 21
-1 31 9 35 12 5 12 9 -2 30 -15 23 -15 25 16 35 17 6 31 15 31 19 0 5 23 22
51 39 35 22 49 37 47 49 -2 9 -11 15 -19 13 -27 -8 -109 -13 -109 -6 0 22 27
46 82 73 60 30 166 114 123 97 -223 -88 -481 -135 -734 -135 -98 0 -114 3
-219 40 -62 22 -139 43 -170 46 -32 4 -76 17 -100 31 -62 35 -114 84 -108 100
7 18 -40 93 -59 93 -11 0 -15 -11 -16 -37 0 -21 -4 -47 -8 -58 -4 -10 -11 98
-15 241 -4 163 -3 269 3 285 l10 24 0 -23 c1 -37 21 -14 21 24 0 39 30 50 31
12 0 -13 8 -48 18 -78 l17 -55 11 32 c16 43 49 35 70 -19 17 -42 37 -46 38 -7
3 64 4 67 26 62 14 -4 29 -23 41 -54 12 -27 25 -49 29 -49 5 0 15 16 23 35 17
39 40 45 56 15 14 -27 49 -45 62 -32 7 7 4 22 -11 45 -32 52 -25 103 9 62 20
-24 28 -18 35 24 8 45 30 60 46 30 18 -34 80 -99 95 -99 18 0 18 23 -1 84 -19
63 -19 69 4 54 15 -9 23 -9 35 1 21 18 20 22 -9 65 -32 48 -10 47 31 -1 36
-42 54 -38 54 14 0 26 5 36 20 40 24 6 25 21 5 47 -25 33 -20 48 12 33 23 -10
28 -9 37 7 6 11 26 37 45 58 l34 38 -24 21 c-13 11 -36 23 -52 26 -15 3 -30
10 -33 15 -4 6 9 6 31 2 27 -5 40 -3 46 7 10 16 12 60 3 83 -7 18 -44 22 -44
5 0 -6 -7 -3 -16 6 -13 13 -19 13 -32 3 -14 -12 -14 -10 0 12 9 14 21 44 28
68 6 23 15 42 20 42 6 0 10 8 10 17 0 13 -8 9 -33 -15 -18 -18 -36 -30 -39
-27 -2 3 -55 -6 -116 -20 -61 -14 -116 -25 -122 -25 -8 0 -9 11 -5 33 10 43
22 57 52 57 l25 0 -27 36 -27 35 26 52 c15 31 23 61 20 74 -3 11 -1 24 5 27
17 11 13 56 -5 56 -9 0 -52 -16 -97 -37 -83 -37 -173 -52 -317 -55 -62 -2
-170 17 -179 30 -3 5 -26 15 -50 23 -52 16 -66 39 -26 39 22 0 25 3 16 14 -9
11 -7 20 13 41 14 15 26 31 28 37 2 5 30 -7 63 -26 32 -20 65 -36 72 -36 7 0
31 11 53 25 23 14 55 28 72 32 l32 6 -45 13 c-190 53 -190 53 -160 83 15 15
32 21 49 19 23 -3 27 1 30 24 3 22 -2 29 -22 34 -28 7 -34 20 -13 27 6 2 -9 7
-34 11 -31 4 -64 20 -99 46 -34 25 -68 41 -96 46 -33 5 -44 11 -44 24 0 19 13
22 165 36 40 4 77 13 88 22 31 27 22 86 -34 204 -66 142 -89 198 -84 198 3 0
16 -21 29 -47 34 -68 85 -135 96 -128 6 3 10 18 10 32 0 14 5 44 12 66 l12 40
-59 55 c-33 30 -51 52 -40 47 53 -20 88 -26 111 -18 l25 8 -53 80 c-57 86 -97
120 -156 130 -36 6 -40 10 -106 136 -94 176 -91 173 -111 125z m-67 -1403 c-2
-14 -12 -17 -48 -15 -25 1 -57 -4 -73 -12 -45 -24 -74 -4 -41 28 11 12 36 16
90 16 66 0 75 -2 72 -17z m66 -7 c-3 -9 -16 -16 -28 -16 -21 1 -21 1 3 21 26
22 35 20 25 -5z m-94 -146 c0 -3 -19 -13 -41 -22 -41 -17 -45 -38 -8 -38 10 0
19 -6 19 -13 0 -9 12 -12 38 -10 l37 4 -45 -25 c-46 -26 -114 -34 -125 -15 -4
5 1 19 11 30 22 24 14 24 -47 -2 l-49 -21 -50 38 c-27 21 -50 41 -50 44 0 13
115 26 146 17 35 -11 69 -3 59 12 -3 6 7 16 21 24 24 12 31 12 56 -2 15 -9 28
-18 28 -21z m90 5 c0 -15 -6 -25 -14 -25 -22 0 -30 19 -16 35 18 22 30 18 30
-10z m-9 -117 c-29 -12 -32 -8 -14 16 15 21 19 22 24 8 4 -11 0 -20 -10 -24z
m419 -430 c0 -12 -61 -20 -106 -13 l-44 6 0 87 1 87 74 -80 c41 -44 74 -83 75
-87z m-400 28 c0 -3 -4 -8 -10 -11 -5 -3 -10 -1 -10 4 0 6 5 11 10 11 6 0 10
-2 10 -4z m1450 -1050 c0 -3 -4 -8 -10 -11 -5 -3 -10 -1 -10 4 0 6 5 11 10 11
6 0 10 -2 10 -4z m-2649 -614 c-13 -4 -91 55 -91 69 0 5 23 -8 51 -28 29 -20
47 -39 40 -41z m139 -31 c0 -15 -15 -21 -39 -14 -17 4 -19 8 -9 14 18 12 48
11 48 0z m-193 -378 c-9 -9 -19 -14 -23 -11 -10 10 6 28 24 28 15 0 15 -1 -1
-17z m-187 -873 c8 -5 12 -11 9 -14 -3 -3 -14 1 -25 9 -21 16 -8 20 16 5z
m926 -1245 c-19 -30 -46 -33 -46 -6 0 12 10 23 28 29 35 12 38 8 18 -23z
m1048 -794 l29 -6 -39 -34 -38 -34 -7 24 c-17 60 -12 65 55 50z m-1104 -775
c0 -2 -7 -6 -15 -10 -8 -3 -15 -1 -15 4 0 6 7 10 15 10 8 0 15 -2 15 -4z
m2885 -1476 c-3 -5 -10 -10 -16 -10 -5 0 -9 5 -9 10 0 6 7 10 16 10 8 0 12 -4
9 -10z m-2694 -257 c-5 -10 -22 -29 -37 -43 -28 -26 -26 -16 8 33 22 30 45 38
29 10z m1329 -1003 c0 -5 -2 -10 -4 -10 -3 0 -8 5 -11 10 -3 6 -1 10 4 10 6 0
11 -4 11 -10z m-1159 -1985 c19 -8 27 -14 19 -14 -14 0 -72 28 -59 29 4 0 22
-7 40 -15z"/>
<path d="M2382 9537 c-27 -29 -28 -37 -1 -37 44 0 91 40 61 52 -29 11 -38 9
-60 -15z"/>
<path d="M2785 241 c-3 -5 4 -13 16 -16 28 -9 33 -2 9 13 -11 6 -21 8 -25 3z"/>
</g>
</svg>
