<svg width="1600" height="1200" viewBox="0 0 1600 1200" fill="none" xmlns="http://www.w3.org/2000/svg">
<g clip-path="url(#clip0)">
<path d="M406.425 253.277C406.913 254.23 407.889 256.953 408.593 259.314C409.298 261.674 410.653 264.715 411.574 266.077C414.068 269.708 413.038 271.161 409.84 268.528C407.835 266.803 408.16 267.666 411.087 271.796C412.767 274.156 413.634 274.883 414.881 275.11C416.398 275.382 416.994 276.245 416.886 278.06C416.886 278.423 417.049 279.104 417.265 279.513C417.591 280.194 417.374 280.33 415.694 280.33C414.61 280.33 413.742 280.421 413.742 280.557C413.742 280.693 414.718 282.418 415.91 284.415C418.133 288.137 418.133 288.364 415.694 287.592C414.501 287.229 414.284 287.275 414.284 287.955C414.284 288.364 414.013 289.045 413.742 289.408C413.255 289.998 412.984 289.907 411.845 288.818C410.436 287.456 409.406 287.229 409.406 288.228C409.406 289.09 410.87 290.316 411.9 290.316C412.333 290.316 412.658 290.497 412.658 290.724C412.658 291.36 411.466 291.904 410.436 291.768C408.973 291.541 408.648 293.13 409.894 294.038C410.545 294.446 411.032 295.036 411.032 295.4C411.032 295.763 411.303 296.262 411.683 296.58C412.767 297.488 411.466 298.169 409.677 297.578C408.593 297.261 407.997 297.261 407.455 297.624C406.859 298.032 407.076 298.441 408.485 299.984C409.894 301.437 411.737 302.435 417.862 304.932C422.089 306.611 425.938 308.018 426.534 308.018C428.322 308.018 426.588 308.835 423.282 309.562C421.547 309.97 419.975 310.333 419.867 310.424C419.379 310.833 423.227 315.69 424.42 316.143C426.1 316.779 425.992 317.324 424.041 318.549C422.523 319.457 422.469 319.593 423.282 320.319C423.77 320.773 424.041 321.545 423.878 322.09C423.661 322.861 423.824 322.952 424.908 322.725C425.612 322.589 427.238 322.771 428.485 323.179C430.599 323.86 431.032 323.905 432.821 323.224C435.748 322.226 436.127 322.317 435.802 323.905C435.477 325.04 435.639 325.267 436.561 325.267C437.157 325.267 437.482 325.449 437.32 325.721C437.157 325.948 436.507 326.175 435.91 326.175C435.314 326.175 434.447 326.493 433.959 326.901C433.2 327.491 433.2 327.627 433.905 328.127C434.339 328.444 435.26 329.352 435.965 330.215C437.211 331.713 437.211 331.713 436.073 331.44C435.206 331.213 434.935 331.304 435.043 331.94C435.043 332.394 434.501 333.438 433.797 334.209C432.875 335.299 432.55 336.206 432.604 337.704C432.713 339.747 432.713 339.747 430.545 340.246C429.352 340.519 428.377 340.836 428.377 340.972C428.377 341.109 428.756 341.79 429.19 342.561C429.677 343.287 429.894 344.104 429.732 344.331C429.569 344.604 427.726 344.785 425.721 344.785C422.089 344.785 421.981 344.831 421.33 346.147C420.355 348.099 419.704 348.371 417.103 347.963C414.935 347.645 414.826 347.69 414.826 348.734C414.826 350.187 413.417 350.55 411.52 349.597C409.948 348.825 409.894 348.825 408.268 350.187L406.642 351.594L407.455 363.895C407.889 370.704 408.431 376.378 408.702 376.559C409.461 377.149 414.339 378.329 418.295 378.874C433.797 381.053 455.206 374.38 469.948 362.806C471.52 361.58 473.038 360.718 473.309 360.899C474.284 361.353 473.959 364.213 472.821 366.119C471.737 367.935 471.737 367.935 472.767 367.935C473.363 367.935 474.013 368.162 474.23 368.434C474.393 368.707 475.043 368.843 475.585 368.707C476.398 368.525 476.507 368.616 476.073 369.297C475.802 369.751 474.935 370.522 474.176 371.022C473.417 371.521 472.821 372.111 472.821 372.383C472.821 372.61 472.442 372.928 472.008 373.109C471.574 373.246 471.195 373.518 471.195 373.7C471.195 374.199 476.29 376.559 477.32 376.559C479.217 376.559 478.675 377.467 476.615 377.739C475.423 377.921 473.526 378.647 472.442 379.374C471.358 380.1 470.111 380.554 469.732 380.463C469.352 380.327 469.027 380.418 469.027 380.644C469.027 381.235 467.238 381.235 466.479 380.599C465.341 379.646 465.124 381.144 466.263 382.188C467.78 383.549 467.726 383.913 465.721 384.866C464.257 385.547 464.04 385.864 464.257 387.045C464.582 388.724 463.607 389.223 461.818 388.27C461.168 387.907 459.704 387.453 458.566 387.317L456.507 387.045L456.886 388.588C457.211 390.086 457.157 390.131 455.097 390.267L453.038 390.404L454.501 391.039C455.368 391.402 456.019 391.856 456.019 392.083C456.019 392.809 453.255 392.401 452.171 391.493C451.032 390.54 451.032 390.54 449.569 391.402C447.726 392.582 446.913 394.489 447.78 395.624C448.322 396.395 448.322 396.531 447.401 396.531C446.859 396.531 445.775 396.123 445.016 395.624C443.553 394.67 442.74 394.988 443.336 396.304C443.607 396.804 443.444 397.031 442.956 396.94C441.385 396.668 439.271 397.439 439.596 398.12C439.759 398.529 439.542 399.164 439.054 399.618C438.62 400.027 438.078 400.844 437.916 401.388C437.374 402.886 435.585 402.705 434.393 401.025C433.634 399.981 432.496 399.346 430.49 398.756C426.967 397.712 427.13 397.712 427.835 398.756C428.106 399.255 428.864 399.8 429.461 399.936C430.165 400.117 430.545 400.617 430.545 401.297C430.545 402.886 429.569 403.113 427.78 402.024C426.317 401.116 426.1 401.071 424.583 401.751C423.173 402.341 422.956 402.705 422.956 404.248C422.956 405.927 422.848 406.064 420.897 406.472C419.813 406.744 418.566 406.971 418.187 406.971C417.699 406.971 417.536 408.061 417.536 410.875V414.779L415.206 414.461C413.959 414.279 412.116 413.78 411.141 413.281L409.406 412.464V417.411C409.406 422.223 409.461 422.359 410.924 423.63C411.791 424.311 413.092 425.128 413.797 425.4C415.26 425.99 431.195 426.944 439.271 426.944C447.889 426.944 455.097 424.765 471.303 417.23C477.049 414.597 481.493 412.781 481.493 413.099C481.493 413.417 480.626 414.733 479.596 416.05C477.97 418.047 477.862 418.41 478.729 418.183C479.433 418.047 479.867 418.228 480.03 418.728C480.138 419.227 480.572 418.864 481.33 417.593C481.981 416.594 483.119 415.55 483.878 415.233C485.937 414.461 485.721 415.414 483.065 418.365L480.897 420.816L482.523 420.952C484.691 421.133 484.637 421.497 482.143 422.813C481.059 423.403 480.463 423.993 480.788 424.084C481.33 424.265 481.276 424.447 480.68 424.992C479.542 425.945 479.65 426.444 481.005 426.172C482.36 425.854 483.661 427.034 483.661 428.532C483.661 429.304 484.149 429.667 485.883 430.076C488.647 430.756 488.376 431.528 485.124 432.391C483.715 432.754 482.577 433.208 482.577 433.389C482.577 433.571 483.065 434.115 483.715 434.569C484.745 435.386 484.745 435.523 483.932 436.203C483.444 436.612 482.848 436.93 482.577 436.93C482.306 436.93 481.601 437.384 480.951 437.928C479.975 438.836 479.921 438.972 480.734 439.744C481.493 440.379 481.493 440.652 480.951 441.242C480.572 441.605 479.759 441.923 479.108 441.923C477.265 441.923 476.236 442.694 477.049 443.375C478.241 444.374 477.699 445.009 475.26 445.327C473.092 445.554 472.55 445.917 470.653 447.96C467.021 452 463.011 453.543 462.631 451.092C462.306 449.095 461.168 450.365 461.276 452.544L461.439 454.678L459.596 454.405C458.024 454.133 457.645 454.269 456.452 455.585L455.043 457.038L454.393 455.949C453.2 454.042 450.436 451.863 450.003 452.453C449.677 452.907 449.027 452.862 447.076 452.272C444.691 451.5 444.582 451.5 444.854 452.272C445.016 452.68 445.287 453.815 445.504 454.768C445.775 456.221 445.721 456.403 444.962 456.176C444.474 456.039 443.932 455.359 443.769 454.678C443.173 452.453 443.227 452.453 440.897 452.817C438.295 453.225 437.049 453.951 437.049 455.177C437.049 456.448 435.856 455.949 434.772 454.224C433.905 452.771 433.851 452.771 433.255 453.724C432.875 454.269 432.713 455.722 432.821 456.947C432.929 458.672 432.821 459.126 432.279 458.944C431.845 458.808 431.466 458.717 431.303 458.717C430.87 458.717 429.461 455.994 429.461 455.086C429.461 453.997 427.943 453.861 425.667 454.859C424.799 455.222 423.986 455.359 423.824 455.132C423.607 454.905 423.336 453.452 423.119 451.954C422.956 450.411 422.577 449.049 422.306 448.913C421.601 448.504 419.867 449.957 419.488 451.273C419.217 452.045 418.837 452.363 418.187 452.272C417.428 452.136 417.265 451.636 417.265 449.639C417.265 447.233 417.211 447.143 415.748 447.007C414.881 446.916 413.851 447.097 413.417 447.415C412.279 448.232 411.954 447.687 412.55 445.826C413.038 444.419 412.984 444.101 412.171 443.738C411.249 443.375 411.195 444.011 410.816 454.995C410.653 461.396 410.274 468.794 410.003 471.427C409.677 474.06 409.623 476.919 409.786 477.827C410.057 479.461 410.111 479.461 415.043 480.732C426.696 483.683 429.569 484.182 437.049 484.409C455.748 485.044 480.897 480.006 492.55 473.288C493.905 472.471 495.043 471.972 495.043 472.108C495.043 472.562 492.496 475.739 491.574 476.375C491.087 476.692 490.707 477.237 490.707 477.509C490.707 477.782 490.111 479.098 489.352 480.46C487.997 482.866 487.943 483.91 489.19 482.866C490.003 482.185 494.718 482.139 494.23 482.775C494.068 483.002 493.417 483.229 492.821 483.229C492.279 483.229 491.791 483.456 491.791 483.683C491.791 484 492.496 484.046 493.688 483.864C495.585 483.592 495.585 483.592 495.043 484.817C494.013 487.132 493.417 487.723 491.52 488.267C490.49 488.585 489.623 489.13 489.623 489.402C489.623 489.72 489.081 490.31 488.485 490.673C487.347 491.308 487.347 491.399 488.214 492.489C488.864 493.351 488.918 493.669 488.431 493.76C488.051 493.805 491.52 493.941 496.127 494.123C500.734 494.259 504.962 494.577 505.504 494.849C506.371 495.257 506.317 495.439 504.799 497.209C503.065 499.252 500.301 500.931 498.675 500.931C497.211 500.931 497.591 501.885 499.325 502.429C500.843 502.883 500.843 502.974 500.192 504.29C499.759 505.062 499.325 506.061 499.162 506.56C498.891 507.195 498.404 507.332 496.994 507.195C495.206 507.014 495.152 507.059 495.423 508.239C495.585 508.966 495.368 509.873 494.881 510.464C494.447 511.008 494.176 511.825 494.339 512.325C494.555 513.005 494.339 513.187 493.363 513.187C492.658 513.187 490.057 513.55 487.563 513.959C484.04 514.594 482.74 514.64 481.493 514.231C479.975 513.732 479.813 513.823 479 515.048C478.133 516.501 478.187 516.501 474.61 514.458C473.363 513.777 472.116 513.187 471.9 513.187C471.629 513.187 470.436 514.004 469.298 515.003C468.16 516.001 466.913 516.818 466.588 516.818C465.775 516.818 463.932 515.093 462.848 513.323C462.089 512.052 461.818 511.916 461.005 512.325C460.246 512.733 459.596 512.688 458.295 512.098C457.32 511.689 456.29 511.462 456.019 511.598C455.748 511.734 455.423 511.644 455.206 511.371C455.043 511.144 454.393 510.69 453.797 510.464C452.929 510.055 452.658 510.146 452.225 511.144C451.629 512.506 450.707 512.552 447.889 511.371C444.854 510.055 444.42 510.191 444.799 512.098C445.45 515.275 446.154 515.684 452.821 516.773C462.36 518.362 465.016 518.589 467.618 518.044C468.919 517.726 469.135 517.817 468.81 518.407C468.539 519.043 469.298 519.133 475.91 519.043C483.661 518.997 485.07 519.36 482.198 520.631C481.385 520.994 479.596 522.22 478.241 523.355C476.94 524.489 475.423 525.443 474.935 525.443C473.363 525.443 473.255 526.26 474.718 527.077C476.236 527.894 476.073 528.484 474.013 529.165L472.55 529.619L474.826 530.3C476.127 530.663 477.157 531.162 477.157 531.389C477.157 532.161 473.688 533.25 470.165 533.522C467.238 533.795 466.588 533.976 466.588 534.657C466.588 535.111 467.509 535.883 468.756 536.473C472.442 538.198 472.008 538.788 465.395 540.558C462.198 541.466 458.783 542.283 457.807 542.464C455.531 542.828 452.604 542.147 450.545 540.694C448.431 539.196 447.997 539.196 447.564 540.74C447.022 542.691 446.859 542.737 444.799 542.01C442.577 541.239 438.675 541.103 438.675 541.829C438.675 542.101 440.03 543.508 441.71 544.961C445.125 547.957 446.696 548.547 457.374 550.589C469.84 552.95 471.629 553.041 481.764 551.543C488.485 550.589 488.539 550.589 485.992 552.768L483.715 554.72L485.016 555.492C485.721 555.946 486.805 556.944 487.509 557.716L488.702 559.123L485.612 558.805C482.685 558.488 482.577 558.488 482.577 559.577C482.577 560.258 483.39 561.347 484.691 562.391C486.479 563.844 486.75 564.298 486.425 565.296C485.992 566.703 484.42 567.066 481.927 566.34C480.517 565.932 480.355 565.932 480.626 566.613C480.951 567.248 480.409 567.293 475.531 567.021L470.111 566.703V568.292C470.111 569.608 469.894 569.972 468.81 570.198C468.051 570.335 466.371 570.289 465.016 570.017C462.631 569.608 462.577 569.608 462.414 570.789C462.252 571.969 462.198 571.969 458.024 571.969C455.097 571.969 453.688 572.15 453.363 572.559C452.984 573.104 452.225 573.058 448.919 572.513C444.962 571.787 444.908 571.833 442.631 572.922C441.385 573.512 439.759 574.011 439.054 574.011C435.748 574.011 434.284 574.556 433.959 575.872C433.688 577.007 433.417 577.189 431.9 577.189C430.219 577.189 425.233 576.508 423.39 576.009C422.848 575.872 422.414 576.054 422.306 576.553C422.198 577.143 421.493 576.871 418.837 575.237L415.531 573.194L415.152 575.918C414.989 577.461 414.826 579.685 414.826 580.911C414.826 583.09 414.826 583.09 416.29 582.772C417.157 582.545 419 582.409 420.517 582.409C422.956 582.409 423.227 582.5 423.39 583.453C423.607 584.497 423.661 584.497 428.268 584.27C430.87 584.088 437.699 583.77 443.498 583.498C449.244 583.271 455.206 582.863 456.723 582.636C458.187 582.363 460.951 582.182 462.794 582.182C468.485 582.182 491.412 578.369 492.279 577.28C492.442 577.053 495.206 576.145 498.349 575.192C507.618 572.559 521.601 570.607 521.601 571.969C521.601 572.332 522.035 572.695 522.577 572.786C523.444 572.967 523.444 573.013 522.523 573.058C521.764 573.104 521.601 573.33 521.872 574.011C522.198 574.828 521.981 574.919 519.162 574.919C516.344 574.919 512.387 575.963 512.387 576.689C512.387 576.826 512.875 577.461 513.471 578.097C514.068 578.732 514.555 579.504 514.555 579.776C514.555 580.139 515.368 580.366 516.723 580.366C518.891 580.366 519.596 580.956 518.078 581.456C517.645 581.592 516.019 581.819 514.447 582L511.683 582.318L513.038 583.271C513.797 583.816 514.881 584.451 515.423 584.724C516.398 585.223 516.398 585.314 515.152 586.449L513.851 587.629H517.049C523.769 587.629 523.769 590.216 517.049 590.67C515.097 590.806 513.471 591.033 513.471 591.124C513.471 591.215 514.122 591.805 514.935 592.349L516.398 593.439L514.284 593.938C513.092 594.21 511.791 594.437 511.358 594.437C510.924 594.437 510.761 594.71 510.978 595.118C511.358 595.981 511.574 595.981 506.642 594.846C504.42 594.347 502.414 593.984 502.306 594.12C502.143 594.21 503.065 594.846 504.366 595.481C507.347 596.979 513.58 601.291 513.905 602.018C514.23 602.971 512.604 602.699 510.924 601.564C508.214 599.657 503.336 597.161 502.414 597.161C500.463 597.161 501.656 598.84 504.799 600.52C510.219 603.425 512.333 605.785 509.515 605.785C507.455 605.785 507.455 606.239 509.46 607.692C510.49 608.463 511.249 609.144 511.141 609.235C511.032 609.326 509.677 608.826 508.105 608.146C505.341 606.829 505.233 606.829 502.414 607.51C499.65 608.146 499.488 608.282 499.162 609.916C499 610.869 498.62 611.777 498.295 611.913C497.482 612.322 494.718 608.736 492.767 604.832C491.032 601.201 490.545 600.838 489.081 601.836C486.588 603.47 485.558 606.875 486.967 609.053C488.593 611.55 484.095 609.78 479.975 606.285C476.886 603.606 476.669 603.516 474.013 603.516C469.84 603.516 469.298 603.833 471.141 605.15C472.171 605.876 473.363 606.239 474.718 606.239C476.452 606.239 476.723 606.375 476.452 607.102C476.236 607.873 476.615 608.055 479 608.463C481.872 609.008 485.829 610.324 485.829 610.824C485.829 611.323 483.607 611.686 480.68 611.686C479.162 611.686 477.591 611.913 477.157 612.14C476.561 612.458 476.019 612.231 474.989 611.232C472.984 609.326 471.629 609.28 471.141 611.141C470.816 612.503 470.978 612.866 472.767 614.273L474.718 615.817L472.279 615.59C468.106 615.181 466.534 614.909 465.016 614.41C464.203 614.183 462.794 613.956 461.927 613.956C459.867 613.956 457.482 612.957 454.23 610.687C452.171 609.235 451.629 609.053 451.358 609.598C450.87 610.687 449.732 610.461 448.702 609.144C448.051 608.282 447.618 608.1 447.13 608.463C446.751 608.736 446.317 608.826 446.154 608.736C445.992 608.599 445.07 609.099 444.095 609.87C443.119 610.642 441.656 611.55 440.897 611.868L439.542 612.503L441.276 613.229C442.252 613.638 443.011 614.183 443.011 614.41C443.011 615.454 441.493 614.682 438.566 612.14C436.832 610.642 435.043 609.417 434.61 609.417C434.176 609.417 433.797 609.099 433.797 608.736C433.797 608.373 433.417 608.055 432.984 608.055C432.496 608.055 432.171 608.463 432.171 609.19C432.171 610.597 432.062 610.597 430.003 609.008C428.648 607.964 427.618 607.646 424.962 607.465C423.119 607.329 421.059 607.056 420.409 606.92C419.325 606.648 419.271 606.738 419.542 608.463C419.813 610.234 419.759 610.324 418.458 610.324C417.753 610.324 416.994 610.007 416.778 609.643C416.615 609.28 416.073 608.963 415.585 608.963C414.826 608.963 414.772 609.28 414.989 610.642C415.206 611.595 415.639 615.59 415.965 619.493C416.344 623.442 416.832 626.529 417.103 626.393C417.32 626.257 417.536 626.711 417.536 627.346C417.536 628.027 417.97 629.888 418.458 631.477L419.379 634.427L425.396 635.97C447.889 641.826 480.843 642.507 507.78 637.559C510.165 637.151 512.875 636.742 513.797 636.697C514.718 636.697 517.536 636.152 520.03 635.517C525.395 634.155 541.168 631.204 542.902 631.204C543.282 631.204 542.523 631.749 541.222 632.385C539.975 633.02 538.946 633.792 538.946 634.109C538.946 634.473 538.349 635.063 537.645 635.471C536.723 635.97 536.398 636.424 536.615 637.105C536.832 637.877 536.507 638.195 534.664 638.83C533.471 639.239 532.441 639.738 532.441 639.874C532.441 640.056 533.688 640.6 535.152 641.145C537.97 642.144 538.133 642.598 536.127 643.823C535.477 644.232 535.206 644.776 535.423 645.276C535.585 645.775 535.206 646.592 534.339 647.454C533.58 648.181 532.984 648.952 532.984 649.089C532.984 649.225 533.797 649.633 534.772 649.996L536.507 650.632L533.255 650.723L530.002 650.813L532.929 651.903C536.452 653.264 535.965 653.855 531.357 653.945H528.376L530.544 654.762L532.712 655.579L530.87 655.852C529.894 656.033 528.16 656.215 527.076 656.215C525.992 656.26 525.558 656.351 526.1 656.487C528.647 657.032 525.775 658.439 521.981 658.439C520.192 658.439 519.867 658.575 520.517 658.938C521.114 659.302 520.734 659.347 519 659.165L516.669 658.893L517.807 660.663C518.404 661.662 518.891 662.615 518.891 662.797C518.891 662.933 517.645 662.978 516.181 662.887C514.664 662.842 513.471 662.842 513.471 662.978C513.471 663.069 514.339 663.931 515.423 664.839C516.507 665.792 517.211 666.746 517.049 667.018C516.615 667.563 513.742 667.654 512.225 667.109C511.141 666.791 504.42 667.608 501.927 668.38C501.114 668.652 500.463 669.061 500.463 669.333C500.463 669.742 506.317 673.146 507.726 673.554C507.997 673.645 508.051 674.235 507.834 674.916C507.292 676.732 504.745 677.64 501.005 677.413L497.862 677.231L500.843 680.318C503.498 683.132 503.661 683.404 502.523 683.404C501.818 683.404 500.192 682.95 498.837 682.451C493.526 680.408 493.797 680.363 494.23 682.95C494.664 685.628 494.447 685.719 490.274 684.085C488.647 683.45 487.13 682.95 486.859 682.95C486.588 682.95 486.371 684.085 486.371 685.447C486.371 686.809 486.208 687.943 486.046 687.943C485.883 687.943 485.016 687.444 484.095 686.809C481.818 685.22 480.951 685.356 480.951 687.263C480.951 688.125 480.788 688.851 480.626 688.851C479.867 688.851 473.526 685.946 472.442 685.129C471.791 684.63 470.816 683.314 470.274 682.179C469.244 680.091 469.406 680.136 465.937 680.953C465.016 681.18 464.311 680.862 463.119 679.864L461.493 678.502L460.626 679.591C459.813 680.635 459.704 680.681 458.187 680C457.32 679.591 456.181 678.82 455.694 678.184C455.26 677.594 454.555 677.186 454.122 677.322C453.742 677.458 453.255 677.322 453.038 677.05C452.767 676.686 452.225 676.913 451.358 677.776L450.057 679.092L448.973 678.003C448.377 677.413 447.889 676.641 447.889 676.278C447.889 675.779 447.455 675.824 445.938 676.596C444.095 677.594 443.986 677.594 441.927 676.823C440.517 676.278 439.596 676.187 438.946 676.459C438.187 676.823 438.62 677.095 441.222 677.912C446.1 679.455 446.317 679.682 445.775 682.451C445.179 685.583 444.474 686.128 442.848 684.857C442.143 684.312 441.33 683.858 440.951 683.858C440.626 683.858 439.542 683.268 438.566 682.542C437.265 681.589 435.965 681.18 433.797 680.953L430.816 680.635L433.146 682.451C434.447 683.45 436.181 684.403 437.103 684.539C437.97 684.721 438.675 684.993 438.675 685.22C438.675 685.855 435.423 685.992 434.339 685.356C433.146 684.675 432.496 685.22 432.984 686.536C433.146 687.036 433.038 687.535 432.713 687.716C432.442 687.853 432.171 688.715 432.171 689.623C432.171 690.939 432.008 691.166 431.195 690.939C429.623 690.485 433.742 693.254 439.488 696.477C452.496 703.83 468.485 709.232 493.146 714.497C498.187 715.587 503.553 716.585 505.07 716.767C506.534 716.903 510.436 717.766 513.688 718.628C516.94 719.49 519.921 720.126 520.301 719.99C520.68 719.854 521.168 719.944 521.276 720.126C521.439 720.353 523.986 720.988 526.859 721.533C529.786 722.078 532.387 722.668 532.658 722.759C534.61 723.757 525.504 724.12 517.807 723.349C513.309 722.895 511.303 723.122 511.303 724.03C511.303 724.937 511.791 725.074 515.531 725.255C517.645 725.346 518.891 725.573 518.891 725.936C518.891 726.798 516.181 729.204 514.393 730.021L512.713 730.747L514.447 731.973C516.507 733.38 516.561 733.743 515.097 735.15C514.447 735.74 514.122 736.512 514.23 736.83C514.555 737.556 511.032 737.647 508.918 736.966C507.238 736.467 507.184 736.694 508.593 738.192C510.057 739.735 510.057 740.779 508.647 740.143C508.051 739.916 507.021 739.689 506.371 739.689C505.233 739.689 505.179 740.053 506.1 742.004C506.425 742.64 506.046 742.64 502.523 742.141C497.536 741.414 483.173 740.416 482.74 740.733C482.577 740.915 482.685 741.641 483.011 742.413C483.553 743.639 483.444 743.865 482.414 744.41C481.764 744.773 480.355 745.182 479.325 745.363C476.127 745.863 473.905 746.544 473.905 747.043C473.905 747.27 474.881 748.223 476.073 749.085C479.65 751.809 478.783 753.08 473.742 752.581C471.412 752.354 470.707 752.444 469.569 753.216L468.268 754.124L463.986 752.581C459.217 750.901 457.645 749.948 457.645 748.677C457.645 747.497 456.723 747.678 455.694 748.995C454.61 750.402 454.393 750.402 451.954 749.04C450.816 748.359 448.81 747.815 447.076 747.633C444.474 747.361 444.095 747.179 444.095 746.271C444.095 745.727 444.474 745 444.908 744.683C446.209 743.775 445.829 742.413 443.824 740.779C442.794 739.962 441.927 739.145 441.927 738.918C441.927 738.736 441.33 737.919 440.572 737.193L439.217 735.831L437.591 737.329C436.669 738.146 435.965 739.281 435.965 739.916C435.965 740.552 435.748 741.051 435.477 741.051C434.447 741.051 433.742 739.644 433.851 737.828L434.013 735.967L430.816 734.878C427.076 733.607 426.588 733.562 425.612 734.515C424.962 735.15 424.854 735.15 424.203 734.424C423.824 733.97 423.498 733.153 423.498 732.608C423.498 732.064 423.119 731.383 422.631 731.065C421.981 730.566 421.656 730.611 420.951 731.201C420.192 731.837 420.138 732.608 420.788 738.872C421.168 742.685 421.276 747.043 421.114 748.541C420.463 752.944 420.192 780.678 420.68 787.577C420.897 791.072 420.897 796.519 420.626 799.697C420.138 805.053 420.192 805.598 421.33 808.094C422.198 810.001 422.631 812.089 422.848 815.811L423.119 820.894L421.656 821.439C420.626 821.848 420.409 822.12 420.897 822.392C422.469 823.209 417.753 824.571 412.713 824.707C410.924 824.753 409.677 824.98 409.84 825.207C410.003 825.479 407.238 825.479 402.848 825.252C398.837 825.07 394.23 824.844 392.604 824.753C390.978 824.707 388.919 824.435 388.051 824.163C387.238 823.89 384.257 823.436 381.547 823.209C378.783 822.982 375.694 822.483 374.664 822.12L372.821 821.485L374.339 820.985C375.206 820.713 376.127 820.486 376.398 820.486C377.049 820.486 376.994 820.168 376.127 818.988C375.694 818.443 375.206 817.536 374.989 816.945C374.664 816.038 374.826 815.947 376.669 815.947H378.675L378.349 804.009C378.133 795.975 378.241 789.801 378.729 784.854C379.271 779.044 379.271 777.41 378.729 776.456C377.916 775.095 376.344 769.058 376.29 767.151C376.29 765.109 377.374 746.634 378.187 735.377C378.62 729.885 378.837 725.3 378.729 725.21C378.349 724.847 375.802 730.203 375.477 732.109C375.314 733.153 374.935 734.469 374.61 735.014C374.284 735.513 374.122 736.694 374.284 737.602C374.501 739.054 374.339 739.236 373.255 739.236C371.303 739.236 369.569 741.142 367.401 745.727L365.341 750.039L363.824 749.585C362.957 749.358 361.547 748.45 360.68 747.588C359.759 746.725 358.946 746.044 358.783 746.044C358.675 746.044 357.753 747.179 356.832 748.586C354.935 751.31 353.146 752.944 352.387 752.581C352.171 752.444 351.954 751.173 351.954 749.721C351.954 746.407 351.032 745.182 349.081 745.908C348.051 746.317 347.618 746.907 347.347 748.178C347.184 749.131 346.1 751.854 345.016 754.215C343.39 757.619 342.686 758.572 341.818 758.663C341.06 758.754 340.355 758.391 339.705 757.664C338.783 756.439 337.32 756.076 337.32 757.074C337.32 757.664 334.068 760.569 333.417 760.569C333.255 760.569 332.984 760.161 332.821 759.662C332.658 759.162 332.333 758.754 332.062 758.754C331.845 758.754 330.003 760.751 328.051 763.202C324.691 767.378 320.843 770.556 319.108 770.556C318.566 770.556 318.35 770.011 318.35 768.695C318.35 767.015 318.241 766.879 317.103 767.197C316.453 767.378 314.881 768.195 313.634 769.058C312.387 769.92 311.087 770.51 310.761 770.329C310.49 770.192 310.219 768.74 310.219 767.106C310.219 765.517 310.003 764.201 309.786 764.201C309.515 764.201 308.756 764.745 307.997 765.381C306.317 766.879 304.149 767.832 302.306 767.832C300.843 767.832 300.843 767.787 301.168 765.336C301.547 762.431 301.168 762.294 298.295 764.201C296.29 765.517 292.984 766.924 291.791 766.924C290.978 766.924 292.55 764.019 294.772 761.477C295.856 760.252 296.507 759.162 296.29 759.072C296.019 758.935 294.339 759.072 292.55 759.389L289.298 759.979L288.214 758.618C287.672 757.846 286.696 756.484 286.046 755.622C285.016 754.079 284.799 753.988 281.818 753.852C278.675 753.715 278.675 753.715 278.892 752.354L279.163 751.037L272.604 750.992L266.046 750.947L269.298 750.039C271.087 749.539 274.501 748.677 276.886 748.132L281.222 747.088L279.163 746.544C276.344 745.727 276.669 745.227 281.818 742.595C282.794 742.095 282.74 742.004 281.439 741.596C280.626 741.324 279.271 740.325 278.295 739.372C276.669 737.692 276.615 737.647 277.699 737.238C278.783 736.83 278.783 736.83 277.591 735.695L276.344 734.56L277.97 734.833C278.837 735.014 282.902 735.831 286.913 736.739C291.087 737.692 296.236 738.509 298.837 738.646C303.282 738.872 303.77 738.827 310.219 736.966C313.959 735.922 317.916 734.651 319 734.197C320.355 733.607 321.547 733.425 322.686 733.607C323.986 733.834 324.257 733.789 324.041 733.244C323.824 732.79 325.07 731.791 327.943 730.112C332.767 727.343 344.691 719.854 347.889 717.584C350.274 715.904 357.482 708.778 357.103 708.46C356.994 708.324 355.748 708.823 354.393 709.504C352.333 710.503 351.737 710.594 351.087 710.14C350.382 709.686 349.406 710.276 345.016 713.907C335.423 721.805 331.412 724.075 328.485 723.212C327.022 722.804 326.696 722.895 325.45 724.12C324.691 724.892 323.553 725.754 322.902 726.027C322.252 726.254 318.241 726.526 313.959 726.571C307.238 726.617 305.612 726.481 302.144 725.618C298.404 724.665 298.079 724.62 296.344 725.3L294.556 726.027L294.393 724.12C294.23 722.441 294.068 722.214 292.713 722.078C291.033 721.896 290.924 721.669 292.117 720.262C293.201 718.946 292.659 718.265 290.924 718.81C288.322 719.672 287.455 719.4 286.371 717.266C285.829 716.177 285.125 715.133 284.799 714.997C283.77 714.452 284.149 713.862 285.883 713.136L287.564 712.409L283.824 710.185C281.818 708.96 279.163 707.144 278.024 706.145L275.911 704.33L286.696 704.602C301.547 704.965 314.122 703.967 325.667 701.515C336.615 699.2 349.948 694.707 348.81 693.754C348.377 693.39 347.835 693.345 346.859 693.754C345.179 694.389 344.908 694.117 345.612 692.483C346.696 690.122 345.504 689.895 341.385 691.756C337.103 693.663 335.043 693.844 333.851 692.392C333.363 691.847 332.875 691.529 332.713 691.666C332.55 691.802 331.9 693.481 331.249 695.388C330.382 698.066 329.948 698.837 329.244 698.747C328.702 698.656 328.322 698.066 328.214 697.158L328.051 695.751L323.932 697.339C317.428 699.836 314.447 699.836 317.103 697.339C317.916 696.568 317.97 696.386 317.32 696.205C316.886 696.068 315.965 695.524 315.26 694.934C314.61 694.389 313.905 694.071 313.743 694.298C313.58 694.525 312.55 694.934 311.412 695.251C310.328 695.524 308.756 696.341 307.943 697.067C307.13 697.793 306.263 698.383 306.046 698.383C305.829 698.383 305.179 697.748 304.637 696.976C303.715 695.615 303.553 695.569 301.114 695.842L298.512 696.114L298.729 694.525C299 692.483 297.862 692.074 294.664 693.027C292.604 693.663 291.466 693.436 292.875 692.71C293.146 692.573 293.417 692.165 293.417 691.847C293.417 691.393 292.875 691.393 290.49 691.892C288.648 692.256 287.13 692.346 286.317 692.119L285.07 691.711L286.642 690.985C288.16 690.304 288.214 690.258 286.967 690.213C286.263 690.213 284.041 689.85 281.927 689.441C279.054 688.851 277.916 688.397 277.157 687.49L276.127 686.264L277.482 685.674C279.163 684.902 278.295 684.312 275.423 684.312C273.038 684.312 270.491 683.586 270.87 682.996C271.033 682.769 269.949 681.816 268.485 680.862C266.1 679.364 265.883 679.092 266.696 678.684C267.238 678.457 269.19 678.275 271.033 678.32C272.875 678.411 274.501 678.275 274.664 678.048C275.098 677.458 271.466 675.461 267.943 674.326C266.317 673.827 263.607 672.783 261.981 672.056L259 670.74L263.878 671.058C273.201 671.648 296.398 671.376 303.715 670.513C330.653 667.427 353.905 660.346 373.742 649.27L380.138 645.684V639.693C380.138 633.792 379.271 622.625 378.837 622.262C378.458 621.899 372.008 623.579 372.008 624.033C372.008 624.214 372.713 624.532 373.634 624.668C374.501 624.85 375.26 625.122 375.26 625.303C375.26 625.485 373.797 628.072 372.008 631.068C366.534 640.192 362.902 642.144 357.97 638.649C356.29 637.468 356.236 637.468 354.122 638.195C352.929 638.603 351.087 638.921 350.003 638.921C348.377 638.921 348.16 638.83 348.648 638.104C348.919 637.65 350.816 635.97 352.767 634.336C355.91 631.84 357.916 629.616 357.916 628.708C357.916 628.572 357.157 628.753 356.29 629.162C354.447 629.979 354.447 629.933 355.314 627.528C355.639 626.529 355.802 625.621 355.639 625.485C355.043 625.031 352.225 626.529 350.219 628.435C347.509 630.977 345.883 631.567 344.149 630.614L342.848 629.888L341.168 633.519C340.247 635.517 339.488 637.423 339.488 637.65C339.488 637.922 339.054 637.831 338.512 637.423C336.832 636.152 335.639 636.515 331.087 639.602C325.504 643.415 325.396 643.415 326.751 639.693C327.455 637.786 327.455 637.287 326.751 635.925C326.317 635.063 325.829 634.382 325.667 634.382C324.474 634.382 321.656 636.833 318.837 640.328C317.049 642.552 315.369 644.277 315.098 644.141C314.772 643.959 314.556 643.051 314.556 642.053C314.556 640.101 314.447 640.056 312.821 640.782C311.574 641.327 310.545 640.555 311.032 639.466C311.195 639.057 310.382 638.921 307.943 638.921C304.691 638.921 304.691 638.921 305.45 637.922C305.883 637.332 308.16 635.789 310.545 634.473C312.875 633.156 314.881 631.885 314.989 631.658C315.26 631.023 310.761 630.16 308.539 630.433C306.805 630.614 306.588 630.523 306.805 629.843C306.967 629.389 307.564 628.662 308.106 628.209C308.648 627.8 309.135 627.301 309.135 627.165C309.135 627.028 306.534 626.892 303.282 626.892C297.591 626.892 292.821 626.075 293.797 625.303C294.014 625.077 297.645 624.033 301.764 622.989C306.317 621.854 310.165 620.628 311.358 619.857C312.496 619.176 314.176 618.359 315.043 618.041C315.911 617.769 316.778 617.224 316.94 616.861C317.32 616.044 317.428 615.998 312.767 617.587C310.111 618.495 307.726 618.949 305.938 618.949C304.42 618.949 303.173 618.858 303.173 618.722C303.173 618.586 303.553 617.995 304.041 617.405C305.016 616.089 304.637 615.817 301.005 615.454C298.024 615.181 297.591 614.546 299.163 612.685C300.301 611.278 299.705 610.778 296.94 610.778C295.64 610.778 293.959 610.597 293.201 610.324L291.791 609.87L293.797 608.282C296.29 606.375 295.748 605.785 291.52 605.785C288.593 605.785 286.859 605.195 287.726 604.514C288.051 604.287 289.677 603.652 291.412 603.062C294.772 601.972 294.827 601.655 291.629 600.792C289.461 600.202 288.539 599.249 288.539 597.388C288.539 596.752 288.16 595.527 287.726 594.619L286.967 593.03L289.732 593.348C293.472 593.757 292.821 593.03 288.268 591.669C282.902 590.08 282.686 589.444 287.455 589.444H291.358L289.894 588.037C288.16 586.267 288.81 585.359 291.087 586.403C293.417 587.493 307.672 591.078 313.743 592.122C318.783 592.939 323.878 593.893 336.669 596.298C340.626 597.07 342.902 597.252 346.967 597.07C349.894 596.934 352.767 596.616 353.417 596.344C354.013 596.072 355.965 595.708 357.699 595.527C360.138 595.3 361.276 594.937 362.523 593.984C363.607 593.121 365.016 592.576 366.696 592.395C368.16 592.213 369.298 591.941 369.298 591.759C369.298 591.578 371.683 591.033 374.555 590.579C378.729 589.944 379.596 589.671 378.62 589.399C377.157 588.945 377.482 588.083 379.108 588.083C380.084 588.083 380.138 587.719 380.138 583.09V578.097H377.807C376.561 578.097 375.152 577.915 374.772 577.688C374.176 577.37 373.634 577.643 372.713 578.687C372.008 579.458 371.466 580.457 371.466 580.911C371.466 582.046 370.382 581.955 368.268 580.638C366.588 579.594 364.962 579.504 364.962 580.457C364.962 580.684 366.209 581.319 367.78 581.909C369.298 582.454 370.328 583.044 370.057 583.226C369.244 583.634 361.06 585.45 358.837 585.677C357.374 585.858 356.832 586.131 356.832 586.721C356.832 587.129 356.344 587.856 355.748 588.31C354.664 589.127 354.61 589.127 353.2 587.946L351.737 586.766L349.84 588.173C347.997 589.535 347.889 589.581 343.824 589.308C341.114 589.127 339.434 589.217 339.054 589.535C338.621 589.898 337.862 589.581 336.182 588.446L333.905 586.857L331.52 588.355C330.165 589.217 328.864 589.898 328.648 589.898C328.377 589.898 327.618 589.308 326.913 588.537C326.1 587.583 325.287 587.175 324.257 587.175C322.686 587.175 321.06 586.131 321.06 585.132C321.06 584.769 320.192 584.406 318.946 584.224C317.808 584.088 315.802 583.68 314.501 583.362L312.116 582.772L314.772 581.637L317.482 580.502L315.043 580.185C311.52 579.731 310.653 579.141 313.092 578.823C314.176 578.687 315.965 578.414 317.049 578.278L319 578.051L317.591 576.78C316.669 575.963 316.182 575.055 316.182 574.102C316.182 573.285 315.911 572.65 315.531 572.65C315.206 572.65 315.314 572.332 315.856 571.833C317.157 570.607 320.355 569.926 324.962 569.926C333.797 569.926 344.42 567.566 352.875 563.753C362.252 559.486 373.255 551.361 378.675 544.689C381.168 541.647 381.331 541.284 381.547 537.88C381.656 535.928 382.144 531.071 382.631 527.122C383.119 523.173 383.336 519.814 383.173 519.633C383.011 519.496 382.848 519.95 382.848 520.586C382.848 521.267 382.577 521.811 382.306 521.811C381.981 521.811 381.764 521.494 381.764 521.085C381.764 520.677 381.439 520.45 381.06 520.54C380.68 520.677 380.247 521.948 380.084 523.582C379.813 525.851 379.434 526.668 378.295 527.621L376.886 528.847V527.485C376.886 526.714 377.103 525.397 377.428 524.535C377.862 523.219 377.807 522.855 376.778 521.948C375.314 520.677 374.718 521.04 373.038 524.217C371.791 526.623 371.791 526.623 369.352 526.577C367.076 526.577 366.805 526.714 365.992 528.121C364.962 529.936 363.444 530.799 363.011 529.8C362.794 529.301 362.36 529.21 361.439 529.528C360.03 529.982 359.379 529.573 358.729 527.758C358.35 526.714 358.295 526.714 357.753 527.531C356.723 529.21 353.797 531.434 351.303 532.524C348.051 533.931 347.835 533.885 347.13 532.206C346.1 529.755 344.42 528.711 341.602 528.711C339.976 528.756 338.079 528.348 336.073 527.576C332.333 526.078 332.116 526.078 329.461 527.576C328.051 528.393 326.425 528.847 324.583 528.938C322.035 529.119 321.818 529.029 320.789 527.621C319.867 526.35 319.325 526.124 317.32 525.987C315.152 525.851 314.989 525.76 315.26 524.716C315.369 524.126 315.26 523.491 314.989 523.355C314.718 523.219 314.827 522.765 315.206 522.356C315.856 521.721 315.64 521.675 313.417 521.948C311.791 522.129 310.599 522.038 310.003 521.675C309.244 521.176 309.19 520.994 309.948 519.814C311.303 517.681 310.816 517.363 306.154 517.635C301.981 517.862 301.981 517.862 302.74 516.864C303.444 515.91 307.238 514.095 308.539 514.095C309.948 514.095 308.485 513.232 305.883 512.506C303.011 511.689 302.089 510.827 302.089 508.92C302.089 507.649 303.065 507.059 305.992 506.605C309.135 506.106 309.298 504.744 306.48 502.747C301.385 499.207 300.192 498.253 300.572 497.981C300.789 497.799 302.415 497.981 304.203 498.344C305.992 498.753 307.943 498.934 308.539 498.798C309.515 498.616 309.406 498.48 307.889 497.255C305.775 495.666 306.154 495.666 312.496 497.073C315.26 497.709 318.133 498.208 318.946 498.208C319.705 498.208 320.518 498.389 320.843 498.662C321.71 499.388 333.471 501.294 340.789 501.885C348.919 502.52 358.295 502.202 361.602 501.204C362.848 500.841 365.883 500.205 368.322 499.797C373.471 498.98 377.428 497.572 382.144 494.894C385.179 493.215 385.558 492.806 385.558 491.535C385.558 490.673 385.287 490.083 384.962 490.174C384.637 490.219 384.095 489.629 383.715 488.903C383.39 488.131 382.848 487.132 382.523 486.679C381.873 485.771 381.818 485.771 379.596 486.633C378.295 487.132 377.103 487.949 376.832 488.54C376.398 489.584 374.555 489.992 373.959 489.175C373.797 488.993 371.791 489.266 369.461 489.811C364.799 490.945 355.856 492.125 355.368 491.672C355.152 491.535 355.368 490.9 355.748 490.264C356.778 488.676 356.127 488.403 354.23 489.584L352.604 490.628L349.786 488.267C346.588 485.589 345.233 485.408 343.824 487.541C342.794 489.13 341.114 489.629 341.114 488.358C341.114 487.904 341.873 486.724 342.74 485.771C343.661 484.772 344.366 483.819 344.366 483.592C344.366 482.775 342.631 483.32 341.276 484.591C339.488 486.27 338.729 486.315 339.217 484.727C339.434 484 339.379 483.592 339.217 483.773C339 483.955 337.97 483.819 336.995 483.456C335.206 482.82 335.152 482.82 333.688 484.5C330.978 487.586 329.569 488.086 328.539 486.179C328.16 485.453 327.509 485.044 326.751 485.044C325.504 485.044 324.203 484.046 323.607 482.639C323.39 482.139 322.686 481.867 321.602 481.867C319.542 481.867 317.808 481.141 317.808 480.324C317.808 479.371 315.965 478.236 314.447 478.236C313.634 478.236 312.767 477.827 312.333 477.328C311.9 476.783 310.436 476.148 308.864 475.785C307.184 475.421 306.1 474.968 305.992 474.468C305.829 473.833 306.1 473.787 307.618 474.151C309.244 474.559 309.298 474.514 308.377 473.924C307.78 473.56 306.913 473.243 306.425 473.243C305.938 473.243 305.233 472.743 304.908 472.108C304.583 471.472 303.932 470.973 303.499 470.973C303.065 470.973 302.035 470.746 301.276 470.519C299.867 470.065 299.867 470.02 300.68 468.931C301.168 468.34 301.385 467.478 301.168 467.069C300.897 466.434 301.005 466.343 301.873 466.616C303.553 467.16 303.986 467.16 303.878 466.525C303.77 466.252 304.149 465.98 304.637 465.98C306.263 465.98 304.691 465.254 300.192 463.983C295.369 462.576 294.393 462.076 295.748 461.623C296.236 461.486 297.699 461.759 299 462.303C301.602 463.347 304.583 463.574 304.962 462.667C305.125 462.258 305.341 462.258 306.046 462.712C306.913 463.302 310.49 463.075 311.032 462.349C311.141 462.167 310.219 461.759 308.973 461.441C307.726 461.123 304.637 459.988 302.035 458.944C297.645 457.083 295.64 455.812 296.29 455.268C296.453 455.132 302.469 456.675 309.677 458.717C325.45 463.12 331.466 464.391 339.867 465.072C343.39 465.345 347.78 465.753 349.569 465.98C354.393 466.616 361.764 466.525 365.938 465.799C367.943 465.435 371.737 464.845 374.447 464.437C380.084 463.574 384.528 461.94 386.046 460.125C387.022 458.99 387.13 457.764 387.509 447.097C387.835 436.567 387.78 434.978 386.913 431.846C385.938 428.351 385.883 428.305 383.282 427.171C381.873 426.535 380.463 426.036 380.138 426.036C379.813 426.036 379.162 426.762 378.729 427.624C377.699 429.667 376.019 429.712 373.309 427.761C372.008 426.807 370.761 426.308 369.623 426.263C368.106 426.263 367.889 426.081 367.455 424.311C366.967 422.631 366.751 422.404 365.45 422.404C362.794 422.404 361.222 421.633 360.734 420.089C360.409 418.955 359.976 418.592 358.783 418.455C357.753 418.319 356.994 418.546 356.507 419.091C356.127 419.545 355.748 419.681 355.748 419.409C355.748 419.136 354.284 418.365 352.55 417.729C350.816 417.094 348.973 416.14 348.539 415.596C347.78 414.688 347.509 414.643 345.829 415.096C344.799 415.369 343.607 415.505 343.173 415.369C342.74 415.233 341.385 415.278 340.138 415.55C338.404 415.868 337.862 415.823 337.862 415.369C337.862 415.051 338.241 414.688 338.675 414.506C339.867 414.143 339.65 412.963 338.295 412.6C337.699 412.464 335.423 411.42 333.309 410.376C331.195 409.332 328.864 408.288 328.16 408.106C327.13 407.834 326.967 407.561 327.238 406.472C327.455 405.519 327.293 405.065 326.751 404.883C326.1 404.656 326.1 404.475 326.859 403.522C327.672 402.478 327.672 402.387 325.992 401.933C325.07 401.661 324.312 401.252 324.312 401.071C324.312 400.844 323.065 400.072 321.547 399.3C319.65 398.302 318.892 397.621 319 397.076C319.108 396.668 319.596 396.395 320.03 396.486C321.493 396.849 325.938 397.076 325.938 396.758C325.938 395.76 324.474 394.67 321.493 393.445C318.241 392.083 312.496 388.27 314.827 389.042C326.913 393.036 340.897 395.17 354.61 395.17C359.921 395.17 360.789 395.034 366.48 393.354C369.84 392.355 374.013 391.402 375.694 391.266C377.428 391.084 379.813 390.494 381.114 389.859C384.474 388.27 387.293 386.046 386.967 385.32C386.588 384.503 389.135 381.098 390.165 381.098C390.761 381.098 390.978 381.598 391.032 382.778C391.032 383.731 391.249 384.911 391.466 385.411C391.683 385.864 392.062 380.962 392.279 374.471C392.496 367.072 392.442 362.261 392.116 361.535L391.574 360.445V361.489C391.52 363.169 390.436 362.125 390.436 360.4C390.436 358.63 388.81 358.13 388.756 359.855C388.756 360.445 388.322 362.034 387.78 363.396L386.859 365.892L386.263 364.44C385.396 362.488 383.607 362.851 382.469 365.302C381.547 367.209 380.463 367.39 380.409 365.62C380.247 362.715 380.192 362.579 379 362.806C378.241 362.987 377.428 363.85 376.778 365.257C376.127 366.482 375.423 367.481 375.206 367.481C374.935 367.481 374.393 366.755 373.959 365.892C373.038 364.122 371.791 363.85 370.924 365.211C370.165 366.437 368.268 367.254 367.564 366.664C367.184 366.346 367.347 365.665 368.16 364.621C369.894 362.261 369.515 359.946 367.672 361.807C366.588 362.896 366.154 362.624 365.775 360.718C365.341 358.675 364.149 357.994 363.282 359.356C362.306 360.899 358.946 363.85 358.133 363.85C357.157 363.85 357.157 362.806 358.187 360.037C359.217 357.177 359.217 356.905 357.97 357.586C357.157 357.994 356.723 357.994 356.073 357.54C354.935 356.723 354.989 356.542 356.561 354.59C358.295 352.411 357.103 352.456 354.881 354.635C352.929 356.542 351.954 356.36 351.954 354C351.954 352.82 351.683 352.366 350.87 352.184C349.569 351.912 349.515 351.231 350.599 350.051C351.954 348.553 351.683 347.872 349.948 348.553C348.702 349.007 348.431 348.961 347.943 348.235C347.618 347.736 346.534 346.556 345.504 345.602L343.661 343.878L344.962 342.924C345.667 342.425 346.913 341.88 347.78 341.744C348.593 341.608 349.406 341.29 349.569 341.063C349.786 340.791 349.081 340.791 347.889 340.972C346.425 341.199 345.721 341.109 345.396 340.655C344.854 339.928 344.745 337.931 345.233 336.887C345.612 336.07 347.618 335.889 347.618 336.66C347.618 336.933 347.997 336.796 348.485 336.388C349.19 335.798 349.515 335.798 350.219 336.252C350.978 336.796 350.978 336.706 350.219 335.707C349.732 335.072 349.081 333.71 348.702 332.62C348.377 331.576 347.889 330.714 347.618 330.714C347.293 330.714 347.076 330.351 347.076 329.942C347.076 329.352 347.509 329.534 348.864 330.623C349.84 331.44 350.816 331.985 350.978 331.849C351.087 331.713 353.959 332.121 357.266 332.757C360.572 333.392 363.553 333.891 363.878 333.891C364.312 333.891 364.366 333.392 364.149 332.394C363.607 330.442 362.957 329.806 361.331 329.806H359.976L361.439 328.172L362.902 326.583L361.493 324.223C360.68 322.816 360.247 321.454 360.409 320.864C360.572 320.365 360.463 319.775 360.138 319.639C359.217 319.139 359.434 317.097 360.409 317.097C360.897 317.097 363.228 317.823 365.667 318.776C370.165 320.456 375.043 321.137 382.848 321.273C386.209 321.363 392.062 320.501 392.55 319.911C392.713 319.684 393.959 319.23 395.26 318.867C398.078 318.141 398.837 317.097 396.669 317.097C395.477 317.097 395.314 316.96 395.802 316.461C396.29 315.962 396.181 315.553 395.097 314.6C394.339 313.919 393.688 313.193 393.58 312.921C393.471 312.694 391.954 313.238 390.165 314.101C388.431 315.009 386.642 315.735 386.263 315.735C385.883 315.735 384.583 315.236 383.39 314.6C382.144 313.965 380.409 313.329 379.488 313.148L377.753 312.875L380.192 312.285C390.49 309.879 390.49 309.879 388.864 308.518C388.051 307.837 387.13 307.565 386.209 307.655C384.962 307.791 384.745 307.61 384.583 306.566C384.42 305.567 384.691 305.25 385.775 305.023C387.293 304.705 387.618 304.115 386.48 303.797C386.154 303.706 386.967 303.479 388.322 303.298C390.003 303.116 391.791 302.39 393.688 301.21C395.531 300.075 397.374 299.349 398.891 299.122C400.68 298.895 401.276 298.622 401.276 298.032C401.276 297.17 400.572 297.034 392.333 296.398C390.165 296.217 388.16 295.808 387.564 295.4C385.883 294.174 386.371 291.496 389.406 286.14C392.984 279.694 394.23 277.152 393.959 277.152C393.797 277.152 393.092 278.106 392.387 279.286C390.545 282.372 387.78 285.414 387.184 285.096C386.859 284.96 386.642 284.279 386.642 283.643C386.642 283.008 386.371 281.646 385.992 280.647L385.341 278.832L388.539 276.335C390.328 274.974 391.303 273.975 390.707 274.202C387.835 275.11 385.938 275.382 384.691 275.019L383.336 274.656L386.209 271.025C389.298 267.121 391.466 265.578 394.664 265.124C396.615 264.851 396.832 264.67 400.409 258.95C405.504 250.962 405.341 251.098 406.425 253.277ZM410.057 316.96C410.165 317.596 410.707 317.732 412.658 317.641C414.013 317.596 415.748 317.823 416.615 318.186C419.054 319.275 420.626 318.368 418.837 316.915C418.241 316.37 416.886 316.189 413.959 316.189C410.382 316.189 409.894 316.28 410.057 316.96ZM406.48 317.278C406.642 317.687 407.347 318.004 407.997 318.004C409.135 317.959 409.135 317.959 407.835 317.051C406.425 316.053 405.938 316.143 406.48 317.278ZM411.574 323.905C411.574 324.042 412.604 324.495 413.797 324.904C416.019 325.676 416.236 326.629 414.23 326.629C413.688 326.629 413.2 326.901 413.2 327.219C413.2 327.627 412.55 327.764 411.141 327.673L409.135 327.491L411.574 328.626C414.068 329.806 417.753 330.169 418.349 329.307C418.566 329.08 418.295 328.444 417.753 327.945C416.561 326.856 416.994 326.856 420.301 328.036L422.956 328.989L425.667 327.264C427.13 326.311 428.377 325.403 428.377 325.267C428.377 324.677 422.143 324.087 420.463 324.495C418.566 324.995 416.723 324.632 417.265 323.951C417.428 323.678 416.886 323.224 416.127 322.861C414.826 322.317 414.447 322.317 413.092 322.952C412.279 323.361 411.574 323.769 411.574 323.905ZM406.696 323.678C406.696 324.359 407.022 324.813 407.455 324.813C408.648 324.813 409.081 323.951 408.322 323.224C407.347 322.226 406.696 322.407 406.696 323.678ZM407.184 328.989C408.756 329.534 408.919 329.352 407.943 328.263C407.13 327.31 406.913 327.264 406.642 327.9C406.425 328.399 406.642 328.808 407.184 328.989ZM384.474 348.507C384.474 349.052 387.78 349.415 390.219 349.098L392.604 348.825V344.876L392.55 340.927L388.539 344.558C386.317 346.556 384.528 348.326 384.474 348.507ZM406.154 347.236C406.154 347.373 406.371 347.6 406.696 347.736C406.967 347.872 407.238 347.781 407.238 347.554C407.238 347.282 406.967 347.055 406.696 347.055C406.371 347.055 406.154 347.146 406.154 347.236ZM327.564 394.897C327.564 395.034 327.78 395.26 328.106 395.397C328.377 395.533 328.648 395.442 328.648 395.215C328.648 394.943 328.377 394.716 328.106 394.716C327.78 394.716 327.564 394.807 327.564 394.897ZM471.141 422.768C471.845 422.949 476.073 420.271 476.073 419.636C476.073 419.409 474.826 419.999 473.309 420.907C471.737 421.814 470.761 422.677 471.141 422.768ZM463.607 424.175C463.607 424.856 464.42 425.128 465.721 424.81C466.642 424.629 466.75 424.447 466.208 424.175C465.233 423.63 463.607 423.675 463.607 424.175ZM474.068 441.333C474.555 441.741 475.097 441.968 475.314 441.832C475.856 441.378 474.989 440.561 474.013 440.561C473.2 440.561 473.2 440.606 474.068 441.333ZM484.203 480.959C483.769 481.186 483.553 481.459 483.715 481.595C483.878 481.731 484.474 481.549 485.07 481.186C486.208 480.46 485.504 480.278 484.203 480.959ZM434.013 537.471C435.043 538.833 436.507 538.969 436.507 537.744C436.507 537.199 435.965 536.7 434.989 536.427C433.092 535.883 432.929 536.064 434.013 537.471ZM377.211 573.512L375.639 573.784L377.753 575.328L379.813 576.871L380.192 575.782C381.114 573.058 380.843 572.831 377.211 573.512ZM437.049 608.69C437.049 608.781 437.428 608.963 437.862 609.144C438.295 609.28 438.675 609.19 438.675 608.963C438.675 608.69 438.295 608.509 437.862 608.509C437.428 608.509 437.049 608.599 437.049 608.69ZM280.68 675.688C280.843 675.915 281.222 676.142 281.547 676.142C281.818 676.142 282.035 675.915 282.035 675.688C282.035 675.415 281.656 675.234 281.168 675.234C280.734 675.234 280.518 675.415 280.68 675.688ZM426.696 687.353C426.967 687.807 427.889 688.67 428.702 689.305C430.219 690.485 430.111 690.031 428.268 687.807C427.076 686.446 425.829 686.082 426.696 687.353ZM354.664 732.881C354.664 733.108 354.772 733.335 354.881 733.335C355.043 733.335 355.314 733.108 355.477 732.881C355.639 732.608 355.531 732.427 355.26 732.427C354.935 732.427 354.664 732.608 354.664 732.881ZM417.482 822.982C416.452 823.346 416.019 823.618 416.452 823.618C417.211 823.618 420.355 822.347 419.65 822.302C419.433 822.302 418.458 822.619 417.482 822.982Z" fill="#050505"/>
<path d="M736.76 312.928C737.143 313.621 737.909 315.601 738.462 317.317C739.016 319.033 740.08 321.244 740.803 322.234C742.761 324.874 741.952 325.93 739.441 324.016C737.867 322.762 738.122 323.389 740.42 326.392C741.739 328.108 742.42 328.636 743.399 328.801C744.591 328.999 745.059 329.626 744.974 330.946C744.974 331.21 745.102 331.705 745.272 332.002C745.527 332.497 745.357 332.596 744.038 332.596C743.186 332.596 742.506 332.662 742.506 332.761C742.506 332.86 743.272 334.114 744.208 335.566C745.953 338.272 745.953 338.437 744.038 337.876C743.101 337.612 742.931 337.645 742.931 338.14C742.931 338.437 742.718 338.932 742.506 339.196C742.122 339.625 741.91 339.559 741.016 338.767C739.909 337.777 739.101 337.612 739.101 338.338C739.101 338.965 740.25 339.856 741.059 339.856C741.399 339.856 741.654 339.988 741.654 340.153C741.654 340.615 740.718 341.011 739.909 340.912C738.76 340.747 738.505 341.902 739.484 342.562C739.995 342.859 740.378 343.288 740.378 343.552C740.378 343.816 740.59 344.179 740.888 344.41C741.739 345.07 740.718 345.565 739.314 345.136C738.462 344.905 737.994 344.905 737.569 345.169C737.101 345.466 737.271 345.763 738.377 346.885C739.484 347.941 740.931 348.667 745.74 350.482C749.06 351.703 752.081 352.726 752.549 352.726C753.954 352.726 752.592 353.32 749.996 353.848C748.634 354.145 747.4 354.409 747.315 354.475C746.932 354.772 749.953 358.303 750.89 358.633C752.209 359.095 752.124 359.491 750.592 360.382C749.4 361.042 749.357 361.141 749.996 361.669C750.379 361.999 750.592 362.56 750.464 362.956C750.294 363.517 750.421 363.583 751.273 363.418C751.826 363.319 753.103 363.451 754.082 363.748C755.741 364.243 756.082 364.276 757.486 363.781C759.784 363.055 760.082 363.121 759.827 364.276C759.572 365.101 759.699 365.266 760.423 365.266C760.891 365.266 761.146 365.398 761.019 365.596C760.891 365.761 760.38 365.926 759.912 365.926C759.444 365.926 758.763 366.157 758.38 366.454C757.784 366.883 757.784 366.982 758.337 367.345C758.678 367.576 759.401 368.236 759.955 368.863C760.933 369.952 760.933 369.952 760.04 369.754C759.359 369.589 759.146 369.655 759.231 370.117C759.231 370.448 758.806 371.207 758.252 371.768C757.529 372.56 757.273 373.22 757.316 374.309C757.401 375.794 757.401 375.794 755.699 376.157C754.762 376.355 753.996 376.586 753.996 376.685C753.996 376.784 754.294 377.279 754.635 377.84C755.018 378.368 755.188 378.962 755.06 379.127C754.933 379.325 753.486 379.457 751.911 379.457C749.06 379.457 748.974 379.49 748.464 380.447C747.698 381.866 747.187 382.064 745.144 381.767C743.442 381.536 743.357 381.569 743.357 382.328C743.357 383.384 742.25 383.648 740.761 382.955C739.526 382.394 739.484 382.394 738.207 383.384L736.93 384.407L737.569 393.35C737.909 398.3 738.335 402.425 738.548 402.557C739.143 402.986 742.974 403.844 746.08 404.24C758.252 405.824 775.063 400.973 786.639 392.558C787.873 391.667 789.065 391.04 789.278 391.172C790.044 391.502 789.788 393.581 788.895 394.967C788.043 396.287 788.043 396.287 788.852 396.287C789.32 396.287 789.831 396.452 790.001 396.65C790.129 396.848 790.64 396.947 791.065 396.848C791.704 396.716 791.789 396.782 791.448 397.277C791.235 397.607 790.554 398.168 789.959 398.531C789.363 398.894 788.895 399.323 788.895 399.521C788.895 399.686 788.597 399.917 788.256 400.049C787.916 400.148 787.618 400.346 787.618 400.478C787.618 400.841 791.618 402.557 792.427 402.557C793.917 402.557 793.491 403.217 791.874 403.415C790.937 403.547 789.448 404.075 788.597 404.603C787.746 405.131 786.767 405.461 786.469 405.395C786.171 405.296 785.916 405.362 785.916 405.527C785.916 405.956 784.511 405.956 783.915 405.494C783.022 404.801 782.851 405.89 783.745 406.649C784.937 407.639 784.894 407.903 783.319 408.596C782.17 409.091 782 409.322 782.17 410.18C782.426 411.401 781.66 411.764 780.255 411.071C779.744 410.807 778.595 410.477 777.702 410.378L776.084 410.18L776.382 411.302C776.638 412.391 776.595 412.424 774.978 412.523L773.361 412.622L774.51 413.084C775.191 413.348 775.701 413.678 775.701 413.843C775.701 414.371 773.531 414.074 772.68 413.414C771.786 412.721 771.786 412.721 770.637 413.348C769.19 414.206 768.552 415.592 769.232 416.417C769.658 416.978 769.658 417.077 768.935 417.077C768.509 417.077 767.658 416.78 767.062 416.417C765.913 415.724 765.274 415.955 765.743 416.912C765.955 417.275 765.828 417.44 765.445 417.374C764.211 417.176 762.551 417.737 762.806 418.232C762.934 418.529 762.764 418.991 762.38 419.321C762.04 419.618 761.614 420.212 761.487 420.608C761.061 421.697 759.657 421.565 758.72 420.344C758.125 419.585 757.231 419.123 755.656 418.694C752.89 417.935 753.018 417.935 753.571 418.694C753.784 419.057 754.379 419.453 754.848 419.552C755.401 419.684 755.699 420.047 755.699 420.542C755.699 421.697 754.933 421.862 753.528 421.07C752.379 420.41 752.209 420.377 751.017 420.872C749.911 421.301 749.741 421.565 749.741 422.687C749.741 423.908 749.655 424.007 748.123 424.304C747.272 424.502 746.293 424.667 745.995 424.667C745.612 424.667 745.485 425.459 745.485 427.505V430.343L743.655 430.112C742.676 429.98 741.229 429.617 740.463 429.254L739.101 428.66V432.257C739.101 435.755 739.143 435.854 740.292 436.778C740.973 437.273 741.995 437.867 742.548 438.065C743.697 438.494 756.209 439.187 762.551 439.187C769.318 439.187 774.978 437.603 787.703 432.125C792.214 430.211 795.704 428.891 795.704 429.122C795.704 429.353 795.023 430.31 794.214 431.267C792.938 432.719 792.853 432.983 793.534 432.818C794.087 432.719 794.427 432.851 794.555 433.214C794.64 433.577 794.981 433.313 795.576 432.389C796.087 431.663 796.981 430.904 797.577 430.673C799.194 430.112 799.024 430.805 796.938 432.95L795.236 434.732L796.513 434.831C798.215 434.963 798.172 435.227 796.215 436.184C795.364 436.613 794.895 437.042 795.151 437.108C795.576 437.24 795.534 437.372 795.066 437.768C794.172 438.461 794.257 438.824 795.321 438.626C796.385 438.395 797.406 439.253 797.406 440.342C797.406 440.903 797.789 441.167 799.151 441.464C801.322 441.959 801.109 442.52 798.555 443.147C797.449 443.411 796.555 443.741 796.555 443.873C796.555 444.005 796.938 444.401 797.449 444.731C798.258 445.325 798.258 445.424 797.619 445.919C797.236 446.216 796.768 446.447 796.555 446.447C796.342 446.447 795.789 446.777 795.278 447.173C794.512 447.833 794.47 447.932 795.108 448.493C795.704 448.955 795.704 449.153 795.278 449.582C794.981 449.846 794.342 450.077 793.831 450.077C792.384 450.077 791.576 450.638 792.214 451.133C793.151 451.859 792.725 452.321 790.81 452.552C789.107 452.717 788.682 452.981 787.192 454.466C784.341 457.403 781.191 458.525 780.894 456.743C780.638 455.291 779.744 456.215 779.83 457.799L779.957 459.35L778.51 459.152C777.276 458.954 776.978 459.053 776.042 460.01L774.935 461.066L774.425 460.274C773.488 458.888 771.318 457.304 770.977 457.733C770.722 458.063 770.211 458.03 768.679 457.601C766.807 457.04 766.721 457.04 766.934 457.601C767.062 457.898 767.275 458.723 767.445 459.416C767.658 460.472 767.615 460.604 767.019 460.439C766.636 460.34 766.211 459.845 766.083 459.35C765.615 457.733 765.658 457.733 763.827 457.997C761.785 458.294 760.806 458.822 760.806 459.713C760.806 460.637 759.87 460.274 759.018 459.02C758.337 457.964 758.295 457.964 757.827 458.657C757.529 459.053 757.401 460.109 757.486 461C757.571 462.254 757.486 462.585 757.061 462.452C756.72 462.353 756.422 462.288 756.295 462.288C755.954 462.288 754.848 460.307 754.848 459.647C754.848 458.855 753.656 458.756 751.868 459.482C751.188 459.746 750.549 459.845 750.421 459.68C750.251 459.515 750.038 458.459 749.868 457.37C749.741 456.248 749.443 455.258 749.23 455.159C748.677 454.862 747.315 455.918 747.017 456.875C746.804 457.436 746.506 457.667 745.995 457.601C745.4 457.502 745.272 457.139 745.272 455.687C745.272 453.938 745.229 453.872 744.08 453.773C743.399 453.707 742.591 453.839 742.25 454.07C741.356 454.664 741.101 454.268 741.569 452.915C741.952 451.892 741.91 451.661 741.271 451.397C740.548 451.133 740.505 451.595 740.207 459.581C740.08 464.235 739.782 469.614 739.569 471.528C739.314 473.442 739.271 475.521 739.399 476.181C739.612 477.369 739.654 477.369 743.527 478.293C752.677 480.438 754.933 480.801 760.806 480.966C775.489 481.428 795.236 477.765 804.386 472.881C805.45 472.287 806.344 471.924 806.344 472.023C806.344 472.353 804.343 474.663 803.62 475.125C803.237 475.356 802.939 475.752 802.939 475.95C802.939 476.148 802.471 477.105 801.875 478.095C800.811 479.844 800.769 480.603 801.747 479.844C802.386 479.349 806.088 479.316 805.705 479.778C805.578 479.943 805.067 480.108 804.599 480.108C804.173 480.108 803.79 480.273 803.79 480.438C803.79 480.669 804.343 480.702 805.28 480.57C806.769 480.372 806.769 480.372 806.344 481.263C805.535 482.946 805.067 483.375 803.577 483.771C802.769 484.002 802.088 484.398 802.088 484.596C802.088 484.827 801.662 485.256 801.194 485.52C800.3 485.982 800.3 486.048 800.981 486.84C801.492 487.467 801.535 487.698 801.152 487.764C800.854 487.797 803.577 487.896 807.195 488.028C810.812 488.127 814.132 488.358 814.558 488.556C815.239 488.853 815.196 488.985 814.004 490.272C812.642 491.757 810.472 492.978 809.195 492.978C808.046 492.978 808.344 493.671 809.706 494.067C810.898 494.397 810.898 494.463 810.387 495.42C810.046 495.981 809.706 496.707 809.578 497.07C809.365 497.532 808.982 497.631 807.876 497.532C806.471 497.4 806.429 497.433 806.642 498.291C806.769 498.819 806.599 499.479 806.216 499.908C805.876 500.304 805.663 500.898 805.79 501.261C805.961 501.756 805.79 501.888 805.024 501.888C804.471 501.888 802.428 502.152 800.471 502.449C797.704 502.911 796.683 502.944 795.704 502.647C794.512 502.284 794.385 502.35 793.746 503.241C793.065 504.297 793.108 504.297 790.299 502.812C789.32 502.317 788.341 501.888 788.171 501.888C787.958 501.888 787.022 502.482 786.128 503.208C785.235 503.934 784.256 504.528 784 504.528C783.362 504.528 781.915 503.274 781.064 501.987C780.468 501.063 780.255 500.964 779.617 501.261C779.021 501.558 778.51 501.525 777.489 501.096C776.723 500.799 775.914 500.634 775.701 500.733C775.489 500.832 775.233 500.766 775.063 500.568C774.935 500.403 774.425 500.073 773.956 499.908C773.276 499.611 773.063 499.677 772.722 500.403C772.254 501.393 771.531 501.426 769.318 500.568C766.934 499.611 766.594 499.71 766.892 501.096C767.402 503.406 767.956 503.703 773.19 504.495C780.681 505.65 782.766 505.815 784.809 505.419C785.83 505.188 786.001 505.254 785.745 505.683C785.532 506.145 786.128 506.211 791.32 506.145C797.406 506.112 798.513 506.376 796.257 507.3C795.619 507.564 794.214 508.455 793.151 509.28C792.129 510.105 790.937 510.798 790.554 510.798C789.32 510.798 789.235 511.392 790.384 511.986C791.576 512.58 791.448 513.009 789.831 513.504L788.682 513.834L790.469 514.329C791.491 514.593 792.299 514.956 792.299 515.121C792.299 515.682 789.576 516.474 786.809 516.672C784.511 516.87 784 517.002 784 517.497C784 517.827 784.724 518.388 785.703 518.817C788.597 520.071 788.256 520.5 783.064 521.787C780.553 522.447 777.872 523.041 777.106 523.173C775.318 523.437 773.02 522.942 771.403 521.886C769.743 520.797 769.403 520.797 769.062 521.919C768.637 523.338 768.509 523.371 766.892 522.843C765.147 522.282 762.083 522.183 762.083 522.711C762.083 522.909 763.147 523.932 764.466 524.988C767.147 527.166 768.381 527.595 776.765 529.08C786.554 530.796 787.958 530.862 795.917 529.773C801.194 529.08 801.237 529.08 799.236 530.664L797.449 532.083L798.47 532.644C799.024 532.974 799.875 533.7 800.428 534.261L801.364 535.284L798.939 535.053C796.64 534.822 796.555 534.822 796.555 535.614C796.555 536.109 797.194 536.901 798.215 537.66C799.619 538.716 799.832 539.046 799.577 539.772C799.236 540.795 798.002 541.059 796.045 540.531C794.938 540.234 794.81 540.234 795.023 540.729C795.278 541.191 794.853 541.224 791.023 541.026L786.767 540.795V541.95C786.767 542.907 786.596 543.171 785.745 543.336C785.149 543.435 783.83 543.402 782.766 543.204C780.894 542.907 780.851 542.907 780.723 543.765C780.596 544.623 780.553 544.623 777.276 544.623C774.978 544.623 773.871 544.755 773.616 545.052C773.318 545.448 772.722 545.415 770.126 545.019C767.019 544.491 766.977 544.524 765.189 545.316C764.211 545.745 762.934 546.108 762.38 546.108C759.784 546.108 758.635 546.504 758.38 547.461C758.167 548.286 757.954 548.418 756.763 548.418C755.443 548.418 751.528 547.923 750.081 547.56C749.655 547.461 749.315 547.593 749.23 547.956C749.145 548.385 748.591 548.187 746.506 546.999L743.91 545.514L743.612 547.494C743.484 548.616 743.357 550.233 743.357 551.124C743.357 552.708 743.357 552.708 744.506 552.477C745.187 552.312 746.634 552.213 747.825 552.213C749.741 552.213 749.953 552.279 750.081 552.972C750.251 553.731 750.294 553.731 753.911 553.566C755.954 553.434 761.317 553.203 765.87 553.005C770.382 552.84 775.063 552.543 776.255 552.378C777.404 552.18 779.574 552.048 781.021 552.048C785.49 552.048 803.492 549.276 804.173 548.484C804.301 548.319 806.471 547.659 808.94 546.966C816.217 545.052 827.198 543.633 827.198 544.623C827.198 544.887 827.538 545.151 827.964 545.217C828.645 545.349 828.645 545.382 827.921 545.415C827.325 545.448 827.198 545.613 827.41 546.108C827.666 546.702 827.495 546.768 825.282 546.768C823.069 546.768 819.963 547.527 819.963 548.055C819.963 548.154 820.346 548.616 820.814 549.078C821.282 549.54 821.665 550.101 821.665 550.299C821.665 550.563 822.303 550.728 823.367 550.728C825.07 550.728 825.623 551.157 824.431 551.52C824.091 551.619 822.814 551.784 821.58 551.916L819.409 552.147L820.473 552.84C821.069 553.236 821.92 553.698 822.346 553.896C823.112 554.259 823.112 554.325 822.133 555.15L821.112 556.008H823.623C828.9 556.008 828.9 557.89 823.623 558.22C822.091 558.319 820.814 558.484 820.814 558.55C820.814 558.616 821.324 559.045 821.963 559.441L823.112 560.233L821.452 560.596C820.516 560.794 819.494 560.959 819.154 560.959C818.813 560.959 818.686 561.157 818.856 561.454C819.154 562.081 819.324 562.081 815.451 561.256C813.706 560.893 812.132 560.629 812.047 560.728C811.919 560.794 812.642 561.256 813.664 561.718C816.005 562.807 820.899 565.942 821.154 566.47C821.41 567.163 820.133 566.965 818.813 566.14C816.686 564.754 812.855 562.939 812.132 562.939C810.6 562.939 811.536 564.16 814.004 565.381C818.26 567.493 819.92 569.209 817.707 569.209C816.09 569.209 816.09 569.539 817.664 570.595C818.473 571.156 819.069 571.651 818.984 571.717C818.899 571.783 817.835 571.42 816.6 570.925C814.43 569.968 814.345 569.968 812.132 570.463C809.961 570.925 809.834 571.024 809.578 572.212C809.451 572.905 809.153 573.565 808.897 573.664C808.259 573.961 806.088 571.354 804.556 568.516C803.194 565.876 802.811 565.612 801.662 566.338C799.705 567.526 798.896 570.001 800.002 571.585C801.279 573.4 797.747 572.113 794.512 569.572C792.087 567.625 791.916 567.559 789.831 567.559C786.554 567.559 786.128 567.79 787.575 568.747C788.384 569.275 789.32 569.539 790.384 569.539C791.746 569.539 791.959 569.638 791.746 570.166C791.576 570.727 791.874 570.859 793.746 571.156C796.002 571.552 799.109 572.509 799.109 572.872C799.109 573.235 797.364 573.499 795.066 573.499C793.874 573.499 792.64 573.664 792.299 573.829C791.831 574.06 791.406 573.895 790.597 573.169C789.022 571.783 787.958 571.75 787.575 573.103C787.32 574.093 787.448 574.357 788.852 575.38L790.384 576.502L788.469 576.337C785.192 576.04 783.958 575.842 782.766 575.479C782.128 575.314 781.021 575.149 780.34 575.149C778.723 575.149 776.85 574.423 774.297 572.773C772.68 571.717 772.254 571.585 772.041 571.981C771.658 572.773 770.765 572.608 769.956 571.651C769.445 571.024 769.105 570.892 768.722 571.156C768.424 571.354 768.083 571.42 767.956 571.354C767.828 571.255 767.105 571.618 766.338 572.179C765.572 572.74 764.423 573.4 763.827 573.631L762.764 574.093L764.125 574.621C764.891 574.918 765.487 575.314 765.487 575.479C765.487 576.238 764.296 575.677 761.997 573.829C760.636 572.74 759.231 571.849 758.891 571.849C758.55 571.849 758.252 571.618 758.252 571.354C758.252 571.09 757.954 570.859 757.614 570.859C757.231 570.859 756.976 571.156 756.976 571.684C756.976 572.707 756.89 572.707 755.273 571.552C754.209 570.793 753.401 570.562 751.315 570.43C749.868 570.331 748.251 570.133 747.74 570.034C746.889 569.836 746.847 569.902 747.059 571.156C747.272 572.443 747.23 572.509 746.208 572.509C745.655 572.509 745.059 572.278 744.889 572.014C744.761 571.75 744.336 571.519 743.952 571.519C743.357 571.519 743.314 571.75 743.484 572.74C743.655 573.433 743.995 576.337 744.25 579.175C744.548 582.046 744.931 584.29 745.144 584.191C745.314 584.092 745.485 584.422 745.485 584.884C745.485 585.379 745.825 586.732 746.208 587.887L746.932 590.032L751.656 591.154C769.318 595.411 795.193 595.906 816.345 592.309C818.218 592.012 820.346 591.715 821.069 591.682C821.793 591.682 824.006 591.286 825.963 590.824C830.177 589.834 842.561 587.689 843.923 587.689C844.221 587.689 843.625 588.085 842.604 588.547C841.625 589.009 840.816 589.57 840.816 589.801C840.816 590.065 840.348 590.494 839.795 590.791C839.071 591.154 838.816 591.484 838.986 591.979C839.157 592.54 838.901 592.771 837.454 593.233C836.518 593.53 835.709 593.893 835.709 593.992C835.709 594.124 836.688 594.52 837.837 594.916C840.05 595.642 840.178 595.972 838.603 596.863C838.093 597.16 837.88 597.556 838.05 597.919C838.178 598.282 837.88 598.876 837.199 599.503C836.603 600.031 836.135 600.592 836.135 600.691C836.135 600.79 836.773 601.087 837.539 601.351L838.901 601.813L836.348 601.879L833.794 601.945L836.092 602.737C838.859 603.727 838.476 604.156 834.858 604.222H832.517L834.22 604.816L835.922 605.41L834.475 605.608C833.709 605.74 832.347 605.872 831.496 605.872C830.645 605.905 830.304 605.971 830.73 606.07C832.73 606.466 830.475 607.489 827.495 607.489C826.091 607.489 825.836 607.588 826.346 607.852C826.815 608.116 826.517 608.149 825.155 608.017L823.325 607.819L824.218 609.106C824.687 609.832 825.07 610.525 825.07 610.657C825.07 610.756 824.091 610.789 822.942 610.723C821.75 610.69 820.814 610.69 820.814 610.789C820.814 610.855 821.495 611.482 822.346 612.142C823.197 612.835 823.75 613.528 823.623 613.726C823.282 614.122 821.027 614.188 819.835 613.792C818.984 613.561 813.706 614.155 811.749 614.716C811.11 614.914 810.6 615.211 810.6 615.409C810.6 615.706 815.196 618.181 816.303 618.478C816.515 618.544 816.558 618.973 816.388 619.468C815.962 620.788 813.962 621.448 811.025 621.283L808.557 621.151L810.898 623.395C812.983 625.441 813.111 625.639 812.217 625.639C811.664 625.639 810.387 625.309 809.323 624.946C805.152 623.461 805.365 623.428 805.705 625.309C806.046 627.256 805.876 627.322 802.599 626.134C801.322 625.672 800.13 625.309 799.917 625.309C799.705 625.309 799.534 626.134 799.534 627.124C799.534 628.114 799.407 628.939 799.279 628.939C799.151 628.939 798.47 628.576 797.747 628.114C795.959 626.959 795.278 627.058 795.278 628.444C795.278 629.071 795.151 629.599 795.023 629.599C794.427 629.599 789.448 627.487 788.597 626.893C788.086 626.53 787.32 625.573 786.894 624.748C786.086 623.23 786.213 623.263 783.49 623.857C782.766 624.022 782.213 623.791 781.277 623.065L780 622.075L779.319 622.867C778.681 623.626 778.595 623.659 777.404 623.164C776.723 622.867 775.829 622.306 775.446 621.844C775.106 621.415 774.552 621.118 774.212 621.217C773.914 621.316 773.531 621.217 773.361 621.019C773.148 620.755 772.722 620.92 772.041 621.547L771.02 622.504L770.169 621.712C769.701 621.283 769.318 620.722 769.318 620.458C769.318 620.095 768.977 620.128 767.785 620.689C766.338 621.415 766.253 621.415 764.636 620.854C763.53 620.458 762.806 620.392 762.295 620.59C761.7 620.854 762.04 621.052 764.083 621.646C767.913 622.768 768.083 622.933 767.658 624.946C767.19 627.223 766.636 627.619 765.36 626.695C764.806 626.299 764.168 625.969 763.87 625.969C763.615 625.969 762.764 625.54 761.997 625.012C760.976 624.319 759.955 624.022 758.252 623.857L755.912 623.626L757.742 624.946C758.763 625.672 760.125 626.365 760.848 626.464C761.529 626.596 762.083 626.794 762.083 626.959C762.083 627.421 759.529 627.52 758.678 627.058C757.742 626.563 757.231 626.959 757.614 627.916C757.742 628.279 757.656 628.642 757.401 628.774C757.188 628.873 756.976 629.5 756.976 630.16C756.976 631.117 756.848 631.282 756.209 631.117C754.975 630.787 758.21 632.8 762.721 635.143C772.935 640.489 785.49 644.416 804.854 648.244C808.812 649.036 813.025 649.762 814.217 649.895C815.366 649.993 818.43 650.621 820.984 651.248C823.538 651.875 825.878 652.337 826.176 652.238C826.474 652.139 826.857 652.205 826.942 652.337C827.07 652.502 829.07 652.964 831.326 653.36C833.624 653.756 835.667 654.185 835.88 654.251C837.412 654.977 830.262 655.241 824.218 654.68C820.686 654.35 819.111 654.515 819.111 655.175C819.111 655.835 819.494 655.934 822.431 656.066C824.091 656.132 825.07 656.297 825.07 656.561C825.07 657.188 822.942 658.937 821.537 659.531L820.218 660.059L821.58 660.95C823.197 661.973 823.24 662.237 822.091 663.26C821.58 663.689 821.324 664.25 821.41 664.481C821.665 665.009 818.899 665.075 817.239 664.58C815.919 664.217 815.877 664.382 816.983 665.471C818.133 666.593 818.133 667.352 817.026 666.89C816.558 666.725 815.749 666.56 815.239 666.56C814.345 666.56 814.302 666.824 815.026 668.243C815.281 668.705 814.983 668.705 812.217 668.342C808.301 667.814 797.023 667.088 796.683 667.319C796.555 667.451 796.64 667.979 796.896 668.54C797.321 669.431 797.236 669.596 796.428 669.992C795.917 670.256 794.81 670.553 794.002 670.685C791.491 671.048 789.746 671.543 789.746 671.906C789.746 672.071 790.512 672.764 791.448 673.391C794.257 675.371 793.576 676.295 789.618 675.932C787.788 675.767 787.235 675.833 786.341 676.394L785.32 677.054L781.958 675.932C778.212 674.711 776.978 674.018 776.978 673.094C776.978 672.236 776.255 672.368 775.446 673.325C774.595 674.348 774.425 674.348 772.509 673.358C771.616 672.863 770.041 672.467 768.679 672.335C766.636 672.137 766.338 672.005 766.338 671.345C766.338 670.949 766.636 670.421 766.977 670.19C767.998 669.53 767.7 668.54 766.126 667.352C765.317 666.758 764.636 666.164 764.636 665.999C764.636 665.867 764.168 665.273 763.572 664.745L762.508 663.755L761.231 664.844C760.508 665.438 759.955 666.263 759.955 666.725C759.955 667.187 759.784 667.55 759.572 667.55C758.763 667.55 758.21 666.527 758.295 665.207L758.423 663.854L755.912 663.062C752.975 662.138 752.592 662.105 751.826 662.798C751.315 663.26 751.23 663.26 750.719 662.732C750.421 662.402 750.166 661.808 750.166 661.412C750.166 661.016 749.868 660.521 749.485 660.29C748.974 659.927 748.719 659.96 748.166 660.389C747.57 660.851 747.527 661.412 748.038 665.966C748.336 668.738 748.421 671.906 748.294 672.995C747.783 676.196 747.57 696.359 747.953 701.375C748.123 703.916 748.123 707.876 747.91 710.186C747.527 714.08 747.57 714.476 748.464 716.291C749.145 717.677 749.485 719.195 749.655 721.901L749.868 725.597L748.719 725.993C747.91 726.29 747.74 726.488 748.123 726.686C749.357 727.28 745.655 728.27 741.697 728.369C740.292 728.402 739.314 728.567 739.441 728.732C739.569 728.93 737.398 728.93 733.951 728.765C730.802 728.633 727.184 728.468 725.908 728.402C724.631 728.369 723.014 728.171 722.333 727.973C721.694 727.775 719.354 727.445 717.226 727.28C715.055 727.115 712.629 726.752 711.821 726.488L710.374 726.026L711.565 725.663C712.246 725.465 712.97 725.3 713.182 725.3C713.693 725.3 713.651 725.069 712.97 724.211C712.629 723.815 712.246 723.155 712.076 722.726C711.821 722.066 711.948 722 713.395 722H714.97L714.715 713.321C714.544 707.48 714.629 702.992 715.012 699.395C715.438 695.171 715.438 693.983 715.012 693.29C714.374 692.3 713.14 687.911 713.097 686.525C713.097 685.04 713.949 671.609 714.587 663.425C714.927 659.432 715.098 656.099 715.012 656.033C714.715 655.769 712.714 659.663 712.459 661.049C712.331 661.808 712.033 662.765 711.778 663.161C711.523 663.524 711.395 664.382 711.523 665.042C711.693 666.098 711.565 666.23 710.714 666.23C709.182 666.23 707.82 667.616 706.118 670.949L704.5 674.084L703.309 673.754C702.628 673.589 701.521 672.929 700.84 672.302C700.117 671.675 699.479 671.18 699.351 671.18C699.266 671.18 698.542 672.005 697.819 673.028C696.329 675.008 694.925 676.196 694.329 675.932C694.159 675.833 693.988 674.909 693.988 673.853C693.988 671.444 693.265 670.553 691.733 671.081C690.924 671.378 690.584 671.807 690.371 672.731C690.243 673.424 689.392 675.404 688.541 677.12C687.264 679.595 686.711 680.288 686.03 680.354C685.434 680.42 684.881 680.156 684.37 679.628C683.647 678.737 682.498 678.473 682.498 679.199C682.498 679.628 679.944 681.74 679.433 681.74C679.306 681.74 679.093 681.443 678.965 681.08C678.837 680.717 678.582 680.42 678.369 680.42C678.199 680.42 676.752 681.872 675.22 683.654C672.581 686.69 669.56 689 668.198 689C667.772 689 667.602 688.604 667.602 687.647C667.602 686.426 667.517 686.327 666.623 686.558C666.112 686.69 664.878 687.284 663.899 687.911C662.92 688.538 661.899 688.967 661.644 688.835C661.431 688.736 661.218 687.68 661.218 686.492C661.218 685.337 661.048 684.38 660.878 684.38C660.665 684.38 660.069 684.776 659.473 685.238C658.154 686.327 656.452 687.02 655.005 687.02C653.855 687.02 653.855 686.987 654.111 685.205C654.409 683.093 654.111 682.994 651.855 684.38C650.281 685.337 647.684 686.36 646.748 686.36C646.11 686.36 647.344 684.248 649.089 682.4C649.94 681.509 650.451 680.717 650.281 680.651C650.068 680.552 648.748 680.651 647.344 680.882L644.79 681.311L643.939 680.321C643.514 679.76 642.748 678.77 642.237 678.143C641.428 677.021 641.258 676.955 638.917 676.856C636.449 676.757 636.449 676.757 636.619 675.767L636.832 674.81L631.682 674.777L626.533 674.744L629.086 674.084C630.491 673.721 633.172 673.094 635.044 672.698L638.449 671.939L636.832 671.543C634.619 670.949 634.874 670.586 638.917 668.672C639.683 668.309 639.641 668.243 638.619 667.946C637.981 667.748 636.917 667.022 636.151 666.329C634.874 665.108 634.832 665.075 635.683 664.778C636.534 664.481 636.534 664.481 635.598 663.656L634.619 662.831L635.896 663.029C636.577 663.161 639.768 663.755 642.918 664.415C646.195 665.108 650.238 665.702 652.281 665.801C655.771 665.966 656.154 665.933 661.218 664.58C664.155 663.821 667.261 662.897 668.113 662.567C669.177 662.138 670.113 662.006 671.007 662.138C672.028 662.303 672.241 662.27 672.071 661.874C671.9 661.544 672.879 660.818 675.135 659.597C678.923 657.584 688.286 652.139 690.797 650.489C692.669 649.267 698.329 644.086 698.032 643.855C697.946 643.756 696.968 644.119 695.904 644.614C694.286 645.34 693.818 645.406 693.307 645.076C692.754 644.746 691.988 645.175 688.541 647.815C681.008 653.558 677.859 655.208 675.56 654.581C674.411 654.284 674.156 654.35 673.177 655.241C672.581 655.802 671.688 656.429 671.177 656.627C670.666 656.792 667.517 656.99 664.155 657.023C658.877 657.056 657.601 656.957 654.877 656.33C651.94 655.637 651.685 655.604 650.323 656.099L648.919 656.627L648.791 655.241C648.663 654.02 648.536 653.855 647.472 653.756C646.152 653.624 646.067 653.459 647.003 652.436C647.855 651.479 647.429 650.984 646.067 651.38C644.024 652.007 643.343 651.809 642.492 650.258C642.067 649.465 641.513 648.706 641.258 648.607C640.449 648.211 640.747 647.782 642.109 647.254L643.429 646.726L640.492 645.109C638.917 644.218 636.832 642.898 635.938 642.172L634.278 640.852L642.748 641.05C654.409 641.314 664.282 640.588 673.347 638.806C681.944 637.123 692.414 633.856 691.52 633.163C691.18 632.899 690.754 632.866 689.988 633.163C688.669 633.625 688.456 633.427 689.009 632.239C689.86 630.523 688.924 630.358 685.689 631.711C682.327 633.097 680.71 633.229 679.774 632.173C679.391 631.777 679.008 631.546 678.88 631.645C678.752 631.744 678.242 632.965 677.731 634.351C677.05 636.298 676.71 636.859 676.156 636.793C675.731 636.727 675.433 636.298 675.348 635.638L675.22 634.615L671.986 635.77C666.878 637.585 664.538 637.585 666.623 635.77C667.261 635.209 667.304 635.077 666.793 634.945C666.453 634.846 665.729 634.45 665.176 634.021C664.665 633.625 664.112 633.394 663.984 633.559C663.857 633.724 663.048 634.021 662.154 634.252C661.303 634.45 660.069 635.044 659.431 635.572C658.792 636.1 658.111 636.529 657.941 636.529C657.771 636.529 657.26 636.067 656.835 635.506C656.111 634.516 655.983 634.483 654.068 634.681L652.025 634.879L652.196 633.724C652.408 632.239 651.515 631.942 649.004 632.635C647.387 633.097 646.493 632.932 647.599 632.404C647.812 632.305 648.025 632.008 648.025 631.777C648.025 631.447 647.599 631.447 645.727 631.81C644.28 632.074 643.088 632.14 642.45 631.975L641.471 631.678L642.705 631.15C643.897 630.655 643.939 630.622 642.96 630.589C642.407 630.589 640.662 630.325 639.002 630.028C636.747 629.599 635.853 629.269 635.257 628.609L634.449 627.718L635.513 627.289C636.832 626.728 636.151 626.299 633.895 626.299C632.023 626.299 630.023 625.771 630.32 625.342C630.448 625.177 629.597 624.484 628.448 623.791C626.575 622.702 626.405 622.504 627.043 622.207C627.469 622.042 629.001 621.91 630.448 621.943C631.895 622.009 633.172 621.91 633.3 621.745C633.64 621.316 630.789 619.864 628.022 619.039C626.745 618.676 624.618 617.917 623.341 617.389L621 616.432L624.83 616.663C632.15 617.092 650.366 616.894 656.111 616.267C677.263 614.023 695.521 608.875 711.097 600.823L716.119 598.216V593.86C716.119 589.57 715.438 581.452 715.098 581.188C714.8 580.924 709.735 582.145 709.735 582.475C709.735 582.607 710.288 582.838 711.012 582.937C711.693 583.069 712.289 583.267 712.289 583.399C712.289 583.531 711.14 585.412 709.735 587.59C705.437 594.223 702.585 595.642 698.712 593.101C697.393 592.243 697.351 592.243 695.691 592.771C694.755 593.068 693.307 593.299 692.456 593.299C691.18 593.299 691.009 593.233 691.392 592.705C691.605 592.375 693.095 591.154 694.627 589.966C697.095 588.151 698.67 586.534 698.67 585.874C698.67 585.775 698.074 585.907 697.393 586.204C695.946 586.798 695.946 586.765 696.627 585.016C696.882 584.29 697.01 583.63 696.882 583.531C696.414 583.201 694.201 584.29 692.627 585.676C690.499 587.524 689.222 587.953 687.86 587.26L686.839 586.732L685.519 589.372C684.796 590.824 684.2 592.21 684.2 592.375C684.2 592.573 683.859 592.507 683.434 592.21C682.115 591.286 681.178 591.55 677.603 593.794C673.22 596.566 673.135 596.566 674.199 593.86C674.752 592.474 674.752 592.111 674.199 591.121C673.858 590.494 673.475 589.999 673.347 589.999C672.411 589.999 670.198 591.781 667.985 594.322C666.581 595.939 665.261 597.193 665.048 597.094C664.793 596.962 664.623 596.302 664.623 595.576C664.623 594.157 664.538 594.124 663.261 594.652C662.282 595.048 661.473 594.487 661.857 593.695C661.984 593.398 661.346 593.299 659.431 593.299C656.877 593.299 656.877 593.299 657.473 592.573C657.813 592.144 659.601 591.022 661.473 590.065C663.304 589.108 664.878 588.184 664.963 588.019C665.176 587.557 661.644 586.93 659.899 587.128C658.537 587.26 658.367 587.194 658.537 586.699C658.665 586.369 659.133 585.841 659.558 585.511C659.984 585.214 660.367 584.851 660.367 584.752C660.367 584.653 658.324 584.554 655.771 584.554C651.302 584.554 647.557 583.96 648.323 583.399C648.493 583.234 651.344 582.475 654.579 581.716C658.154 580.891 661.176 580 662.112 579.439C663.006 578.944 664.325 578.35 665.006 578.119C665.687 577.921 666.368 577.525 666.495 577.261C666.793 576.667 666.878 576.634 663.218 577.789C661.133 578.449 659.26 578.779 657.856 578.779C656.664 578.779 655.685 578.713 655.685 578.614C655.685 578.515 655.983 578.086 656.366 577.657C657.132 576.7 656.835 576.502 653.983 576.238C651.642 576.04 651.302 575.578 652.536 574.225C653.43 573.202 652.962 572.839 650.791 572.839C649.77 572.839 648.45 572.707 647.855 572.509L646.748 572.179L648.323 571.024C650.281 569.638 649.855 569.209 646.535 569.209C644.237 569.209 642.875 568.78 643.556 568.285C643.812 568.12 645.088 567.658 646.45 567.229C649.089 566.437 649.131 566.206 646.62 565.579C644.918 565.15 644.195 564.457 644.195 563.104C644.195 562.642 643.897 561.751 643.556 561.091L642.96 559.936L645.131 560.167C648.067 560.464 647.557 559.936 643.982 558.946C639.768 557.791 639.598 557.329 643.343 557.329H646.408L645.259 556.306C643.897 555.018 644.407 554.358 646.195 555.117C648.025 555.91 659.218 558.517 663.984 559.276C667.942 559.87 671.943 560.563 681.987 562.312C685.094 562.873 686.881 563.005 690.073 562.873C692.371 562.774 694.627 562.543 695.138 562.345C695.606 562.147 697.138 561.883 698.5 561.751C700.415 561.586 701.309 561.322 702.287 560.629C703.139 560.002 704.245 559.606 705.564 559.474C706.714 559.342 707.607 559.144 707.607 559.012C707.607 558.88 709.48 558.484 711.735 558.154C715.012 557.692 715.693 557.494 714.927 557.296C713.778 556.966 714.034 556.339 715.31 556.339C716.076 556.339 716.119 556.075 716.119 552.708V549.078H714.289C713.31 549.078 712.204 548.946 711.906 548.781C711.438 548.55 711.012 548.748 710.288 549.507C709.735 550.068 709.31 550.794 709.31 551.124C709.31 551.949 708.458 551.883 706.799 550.926C705.479 550.167 704.203 550.101 704.203 550.794C704.203 550.959 705.181 551.421 706.416 551.85C707.607 552.246 708.416 552.675 708.203 552.807C707.565 553.104 701.138 554.424 699.393 554.589C698.244 554.721 697.819 554.919 697.819 555.348C697.819 555.645 697.436 556.174 696.968 556.504C696.116 557.098 696.074 557.098 694.967 556.24L693.818 555.382L692.329 556.405C690.882 557.395 690.797 557.428 687.605 557.23C685.477 557.098 684.157 557.164 683.859 557.395C683.519 557.659 682.923 557.428 681.604 556.603L679.816 555.447L677.944 556.537C676.88 557.164 675.858 557.659 675.688 557.659C675.475 557.659 674.88 557.23 674.326 556.669C673.688 555.975 673.049 555.678 672.241 555.678C671.007 555.678 669.73 554.919 669.73 554.193C669.73 553.929 669.049 553.665 668.07 553.533C667.176 553.434 665.602 553.137 664.58 552.906L662.708 552.477L664.793 551.652L666.921 550.827L665.006 550.596C662.24 550.266 661.559 549.837 663.474 549.606C664.325 549.507 665.729 549.309 666.581 549.21L668.113 549.045L667.006 548.121C666.283 547.527 665.9 546.867 665.9 546.174C665.9 545.58 665.687 545.118 665.389 545.118C665.134 545.118 665.219 544.887 665.644 544.524C666.666 543.633 669.177 543.138 672.794 543.138C679.731 543.138 688.073 541.422 694.712 538.65C702.075 535.548 710.714 529.641 714.97 524.79C716.928 522.579 717.055 522.315 717.226 519.84C717.311 518.421 717.694 514.89 718.077 512.019C718.46 509.148 718.63 506.706 718.502 506.574C718.375 506.475 718.247 506.805 718.247 507.267C718.247 507.762 718.034 508.158 717.821 508.158C717.566 508.158 717.396 507.927 717.396 507.63C717.396 507.333 717.14 507.168 716.843 507.234C716.545 507.333 716.204 508.257 716.076 509.445C715.864 511.095 715.566 511.689 714.672 512.382L713.565 513.273V512.283C713.565 511.722 713.736 510.765 713.991 510.138C714.332 509.181 714.289 508.917 713.48 508.257C712.331 507.333 711.863 507.597 710.544 509.907C709.565 511.656 709.565 511.656 707.65 511.623C705.862 511.623 705.65 511.722 705.011 512.745C704.203 514.065 703.011 514.692 702.67 513.966C702.5 513.603 702.16 513.537 701.436 513.768C700.33 514.098 699.819 513.801 699.308 512.481C699.01 511.722 698.968 511.722 698.542 512.316C697.734 513.537 695.435 515.154 693.478 515.946C690.924 516.969 690.754 516.936 690.201 515.715C689.392 513.933 688.073 513.174 685.86 513.174C684.583 513.207 683.093 512.91 681.519 512.349C678.582 511.26 678.412 511.26 676.327 512.349C675.22 512.943 673.943 513.273 672.496 513.339C670.496 513.471 670.326 513.405 669.517 512.382C668.794 511.458 668.368 511.293 666.793 511.194C665.091 511.095 664.963 511.029 665.176 510.27C665.261 509.841 665.176 509.379 664.963 509.28C664.751 509.181 664.836 508.851 665.134 508.554C665.644 508.092 665.474 508.059 663.729 508.257C662.452 508.389 661.516 508.323 661.048 508.059C660.452 507.696 660.41 507.564 661.005 506.706C662.069 505.155 661.686 504.924 658.026 505.122C654.749 505.287 654.749 505.287 655.345 504.561C655.898 503.868 658.877 502.548 659.899 502.548C661.005 502.548 659.856 501.921 657.813 501.393C655.558 500.799 654.834 500.172 654.834 498.786C654.834 497.862 655.6 497.433 657.899 497.103C660.367 496.74 660.495 495.75 658.282 494.298C654.281 491.724 653.345 491.031 653.643 490.833C653.813 490.701 655.09 490.833 656.494 491.097C657.899 491.394 659.431 491.526 659.899 491.427C660.665 491.295 660.58 491.196 659.388 490.305C657.728 489.15 658.026 489.15 663.006 490.173C665.176 490.635 667.432 490.998 668.07 490.998C668.666 490.998 669.304 491.13 669.56 491.328C670.241 491.856 679.476 493.242 685.221 493.671C691.605 494.133 698.968 493.902 701.564 493.176C702.543 492.912 704.926 492.45 706.841 492.153C710.884 491.559 713.991 490.536 717.694 488.589C720.077 487.368 720.375 487.071 720.375 486.147C720.375 485.52 720.162 485.091 719.907 485.157C719.651 485.19 719.226 484.761 718.928 484.233C718.673 483.672 718.247 482.946 717.992 482.616C717.481 481.956 717.438 481.956 715.693 482.583C714.672 482.946 713.736 483.54 713.523 483.969C713.182 484.728 711.735 485.025 711.267 484.431C711.14 484.299 709.565 484.497 707.735 484.893C704.075 485.718 697.053 486.576 696.67 486.246C696.499 486.147 696.67 485.685 696.968 485.223C697.776 484.068 697.265 483.87 695.776 484.728L694.499 485.487L692.286 483.771C689.775 481.824 688.711 481.692 687.605 483.243C686.796 484.398 685.477 484.761 685.477 483.837C685.477 483.507 686.072 482.649 686.753 481.956C687.477 481.23 688.03 480.537 688.03 480.372C688.03 479.778 686.668 480.174 685.604 481.098C684.2 482.319 683.604 482.352 683.987 481.197C684.157 480.669 684.115 480.372 683.987 480.504C683.817 480.636 683.008 480.537 682.242 480.273C680.838 479.811 680.795 479.811 679.646 481.032C677.518 483.276 676.412 483.639 675.603 482.253C675.305 481.725 674.794 481.428 674.199 481.428C673.22 481.428 672.198 480.702 671.73 479.679C671.56 479.316 671.007 479.118 670.155 479.118C668.538 479.118 667.176 478.59 667.176 477.996C667.176 477.303 665.729 476.478 664.538 476.478C663.899 476.478 663.218 476.181 662.878 475.818C662.537 475.422 661.388 474.96 660.154 474.696C658.835 474.432 657.984 474.102 657.899 473.739C657.771 473.277 657.984 473.244 659.175 473.508C660.452 473.805 660.495 473.772 659.771 473.343C659.303 473.079 658.622 472.848 658.239 472.848C657.856 472.848 657.303 472.485 657.047 472.023C656.792 471.561 656.281 471.198 655.941 471.198C655.6 471.198 654.792 471.033 654.196 470.868C653.089 470.538 653.089 470.505 653.728 469.713C654.111 469.284 654.281 468.657 654.111 468.36C653.898 467.898 653.983 467.832 654.664 468.03C655.983 468.426 656.324 468.426 656.239 467.964C656.154 467.766 656.452 467.568 656.835 467.568C658.111 467.568 656.877 467.04 653.345 466.116C649.557 465.093 648.791 464.73 649.855 464.4C650.238 464.301 651.387 464.499 652.408 464.895C654.451 465.654 656.792 465.819 657.09 465.159C657.218 464.862 657.388 464.862 657.941 465.192C658.622 465.621 661.431 465.456 661.857 464.928C661.942 464.796 661.218 464.499 660.239 464.268C659.26 464.037 656.835 463.212 654.792 462.452C651.344 461.099 649.77 460.175 650.281 459.779C650.408 459.68 655.132 460.802 660.793 462.288C673.177 465.489 677.901 466.413 684.498 466.908C687.264 467.106 690.711 467.403 692.116 467.568C695.904 468.03 701.692 467.964 704.969 467.436C706.543 467.172 709.522 466.743 711.65 466.446C716.076 465.819 719.566 464.631 720.758 463.311C721.524 462.486 721.609 461.594 721.907 453.839C722.162 446.183 722.12 445.028 721.439 442.751C720.673 440.21 720.63 440.177 718.587 439.352C717.481 438.89 716.374 438.527 716.119 438.527C715.864 438.527 715.353 439.055 715.012 439.682C714.204 441.167 712.885 441.2 710.757 439.781C709.735 439.088 708.756 438.725 707.863 438.692C706.671 438.692 706.501 438.56 706.16 437.273C705.777 436.052 705.607 435.887 704.586 435.887C702.5 435.887 701.266 435.326 700.883 434.204C700.628 433.379 700.287 433.115 699.351 433.016C698.542 432.917 697.946 433.082 697.563 433.478C697.265 433.808 696.968 433.907 696.968 433.709C696.968 433.511 695.818 432.95 694.457 432.488C693.095 432.026 691.648 431.333 691.307 430.937C690.711 430.277 690.499 430.244 689.179 430.574C688.371 430.772 687.434 430.871 687.094 430.772C686.753 430.673 685.689 430.706 684.711 430.904C683.349 431.135 682.923 431.102 682.923 430.772C682.923 430.541 683.221 430.277 683.562 430.145C684.498 429.881 684.328 429.023 683.264 428.759C682.795 428.66 681.008 427.901 679.348 427.142C677.688 426.383 675.858 425.624 675.305 425.492C674.496 425.294 674.369 425.096 674.582 424.304C674.752 423.611 674.624 423.281 674.199 423.149C673.688 422.984 673.688 422.852 674.284 422.159C674.922 421.4 674.922 421.334 673.603 421.004C672.879 420.806 672.283 420.509 672.283 420.377C672.283 420.212 671.305 419.651 670.113 419.09C668.623 418.364 668.028 417.869 668.113 417.473C668.198 417.176 668.581 416.978 668.921 417.044C670.07 417.308 673.56 417.473 673.56 417.242C673.56 416.516 672.411 415.724 670.07 414.833C667.517 413.843 663.006 411.071 664.836 411.632C674.326 414.536 685.306 416.087 696.074 416.087C700.245 416.087 700.926 415.988 705.394 414.767C708.033 414.041 711.31 413.348 712.629 413.249C713.991 413.117 715.864 412.688 716.885 412.226C719.524 411.071 721.737 409.454 721.481 408.926C721.184 408.332 723.184 405.857 723.992 405.857C724.461 405.857 724.631 406.22 724.673 407.078C724.673 407.771 724.844 408.629 725.014 408.992C725.184 409.322 725.482 405.758 725.652 401.039C725.822 395.66 725.78 392.162 725.525 391.634L725.099 390.842V391.601C725.056 392.822 724.205 392.063 724.205 390.809C724.205 389.522 722.928 389.159 722.886 390.413C722.886 390.842 722.545 391.997 722.12 392.987L721.396 394.802L720.928 393.746C720.247 392.327 718.843 392.591 717.949 394.373C717.226 395.759 716.374 395.891 716.332 394.604C716.204 392.492 716.162 392.393 715.225 392.558C714.629 392.69 713.991 393.317 713.48 394.34C712.97 395.231 712.416 395.957 712.246 395.957C712.033 395.957 711.608 395.429 711.267 394.802C710.544 393.515 709.565 393.317 708.884 394.307C708.288 395.198 706.799 395.792 706.245 395.363C705.947 395.132 706.075 394.637 706.714 393.878C708.075 392.162 707.777 390.479 706.33 391.832C705.479 392.624 705.139 392.426 704.841 391.04C704.5 389.555 703.564 389.06 702.883 390.05C702.117 391.172 699.479 393.317 698.84 393.317C698.074 393.317 698.074 392.558 698.883 390.545C699.691 388.466 699.691 388.268 698.712 388.763C698.074 389.06 697.734 389.06 697.223 388.73C696.329 388.136 696.372 388.004 697.606 386.585C698.968 385.001 698.032 385.034 696.287 386.618C694.755 388.004 693.988 387.872 693.988 386.156C693.988 385.298 693.776 384.968 693.137 384.836C692.116 384.638 692.073 384.143 692.924 383.285C693.988 382.196 693.776 381.701 692.414 382.196C691.435 382.526 691.222 382.493 690.839 381.965C690.584 381.602 689.733 380.744 688.924 380.051L687.477 378.797L688.498 378.104C689.052 377.741 690.03 377.345 690.711 377.246C691.35 377.147 691.988 376.916 692.116 376.751C692.286 376.553 691.733 376.553 690.797 376.685C689.647 376.85 689.094 376.784 688.839 376.454C688.413 375.926 688.328 374.474 688.711 373.715C689.009 373.121 690.584 372.989 690.584 373.55C690.584 373.748 690.882 373.649 691.265 373.352C691.818 372.923 692.073 372.923 692.627 373.253C693.222 373.649 693.222 373.583 692.627 372.857C692.244 372.395 691.733 371.405 691.435 370.612C691.18 369.853 690.797 369.226 690.584 369.226C690.328 369.226 690.158 368.962 690.158 368.665C690.158 368.236 690.499 368.368 691.563 369.16C692.329 369.754 693.095 370.15 693.222 370.051C693.307 369.952 695.563 370.249 698.159 370.711C700.755 371.173 703.096 371.536 703.351 371.536C703.692 371.536 703.734 371.173 703.564 370.448C703.139 369.028 702.628 368.566 701.351 368.566H700.287L701.436 367.378L702.585 366.223L701.479 364.507C700.84 363.484 700.5 362.494 700.628 362.065C700.755 361.702 700.67 361.273 700.415 361.174C699.691 360.811 699.862 359.326 700.628 359.326C701.011 359.326 702.841 359.854 704.756 360.547C708.288 361.768 712.118 362.263 718.247 362.362C720.886 362.428 725.482 361.801 725.865 361.372C725.993 361.207 726.972 360.877 727.993 360.613C730.206 360.085 730.802 359.326 729.099 359.326C728.163 359.326 728.035 359.227 728.419 358.864C728.802 358.501 728.716 358.204 727.865 357.511C727.269 357.016 726.759 356.488 726.674 356.29C726.589 356.125 725.397 356.521 723.992 357.148C722.631 357.808 721.226 358.336 720.928 358.336C720.63 358.336 719.609 357.973 718.673 357.511C717.694 357.049 716.332 356.587 715.608 356.455L714.246 356.257L716.162 355.828C724.248 354.079 724.248 354.079 722.971 353.089C722.333 352.594 721.609 352.396 720.886 352.462C719.907 352.561 719.737 352.429 719.609 351.67C719.481 350.944 719.694 350.713 720.545 350.548C721.737 350.317 721.992 349.888 721.098 349.657C720.843 349.591 721.481 349.426 722.545 349.294C723.865 349.162 725.269 348.634 726.759 347.776C728.206 346.951 729.653 346.423 730.844 346.258C732.249 346.093 732.717 345.895 732.717 345.466C732.717 344.839 732.164 344.74 725.695 344.278C723.992 344.146 722.418 343.849 721.95 343.552C720.63 342.661 721.013 340.714 723.397 336.82C726.205 332.134 727.184 330.286 726.972 330.286C726.844 330.286 726.291 330.979 725.737 331.837C724.29 334.081 722.12 336.292 721.652 336.061C721.396 335.962 721.226 335.467 721.226 335.005C721.226 334.543 721.013 333.553 720.715 332.827L720.205 331.507L722.716 329.692C724.12 328.702 724.886 327.976 724.418 328.141C722.162 328.801 720.673 328.999 719.694 328.735L718.63 328.471L720.886 325.831C723.311 322.993 725.014 321.871 727.525 321.541C729.057 321.343 729.227 321.211 732.036 317.053C736.037 311.245 735.909 311.344 736.76 312.928ZM739.612 359.227C739.697 359.689 740.122 359.788 741.654 359.722C742.718 359.689 744.08 359.854 744.761 360.118C746.676 360.91 747.91 360.25 746.506 359.194C746.038 358.798 744.974 358.666 742.676 358.666C739.867 358.666 739.484 358.732 739.612 359.227ZM736.803 359.458C736.93 359.755 737.484 359.986 737.994 359.986C738.888 359.953 738.888 359.953 737.867 359.293C736.76 358.567 736.377 358.633 736.803 359.458ZM740.803 364.276C740.803 364.375 741.612 364.705 742.548 365.002C744.293 365.563 744.463 366.256 742.889 366.256C742.463 366.256 742.08 366.454 742.08 366.685C742.08 366.982 741.569 367.081 740.463 367.015L738.888 366.883L740.803 367.708C742.761 368.566 745.655 368.83 746.123 368.203C746.293 368.038 746.08 367.576 745.655 367.213C744.719 366.421 745.059 366.421 747.655 367.279L749.741 367.972L751.868 366.718C753.018 366.025 753.996 365.365 753.996 365.266C753.996 364.837 749.102 364.408 747.783 364.705C746.293 365.068 744.846 364.804 745.272 364.309C745.4 364.111 744.974 363.781 744.378 363.517C743.357 363.121 743.059 363.121 741.995 363.583C741.356 363.88 740.803 364.177 740.803 364.276ZM736.973 364.111C736.973 364.606 737.228 364.936 737.569 364.936C738.505 364.936 738.845 364.309 738.25 363.781C737.484 363.055 736.973 363.187 736.973 364.111ZM737.356 367.972C738.59 368.368 738.718 368.236 737.952 367.444C737.313 366.751 737.143 366.718 736.93 367.18C736.76 367.543 736.93 367.84 737.356 367.972ZM719.524 382.163C719.524 382.559 722.12 382.823 724.035 382.592L725.908 382.394V379.523L725.865 376.652L722.716 379.292C720.971 380.744 719.566 382.031 719.524 382.163ZM736.547 381.239C736.547 381.338 736.717 381.503 736.973 381.602C737.186 381.701 737.398 381.635 737.398 381.47C737.398 381.272 737.186 381.107 736.973 381.107C736.717 381.107 736.547 381.173 736.547 381.239ZM674.837 415.889C674.837 415.988 675.007 416.153 675.263 416.252C675.475 416.351 675.688 416.285 675.688 416.12C675.688 415.922 675.475 415.757 675.263 415.757C675.007 415.757 674.837 415.823 674.837 415.889ZM787.575 436.151C788.129 436.283 791.448 434.336 791.448 433.874C791.448 433.709 790.469 434.138 789.278 434.798C788.043 435.458 787.277 436.085 787.575 436.151ZM781.66 437.174C781.66 437.669 782.298 437.867 783.319 437.636C784.043 437.504 784.128 437.372 783.702 437.174C782.936 436.778 781.66 436.811 781.66 437.174ZM789.873 449.648C790.257 449.945 790.682 450.11 790.852 450.011C791.278 449.681 790.597 449.087 789.831 449.087C789.193 449.087 789.193 449.12 789.873 449.648ZM797.832 478.458C797.492 478.623 797.321 478.821 797.449 478.92C797.577 479.019 798.045 478.887 798.513 478.623C799.407 478.095 798.853 477.963 797.832 478.458ZM758.423 519.543C759.231 520.533 760.38 520.632 760.38 519.741C760.38 519.345 759.955 518.982 759.189 518.784C757.699 518.388 757.571 518.52 758.423 519.543ZM713.821 545.745L712.587 545.943L714.246 547.065L715.864 548.187L716.162 547.395C716.885 545.415 716.672 545.25 713.821 545.745ZM760.806 571.321C760.806 571.387 761.104 571.519 761.444 571.651C761.785 571.75 762.083 571.684 762.083 571.519C762.083 571.321 761.785 571.189 761.444 571.189C761.104 571.189 760.806 571.255 760.806 571.321ZM638.024 620.029C638.151 620.194 638.449 620.359 638.705 620.359C638.917 620.359 639.088 620.194 639.088 620.029C639.088 619.831 638.79 619.699 638.407 619.699C638.066 619.699 637.896 619.831 638.024 620.029ZM752.677 628.51C752.89 628.84 753.613 629.467 754.252 629.929C755.443 630.787 755.358 630.457 753.911 628.84C752.975 627.85 751.996 627.586 752.677 628.51ZM696.116 661.61C696.116 661.775 696.201 661.94 696.287 661.94C696.414 661.94 696.627 661.775 696.755 661.61C696.882 661.412 696.797 661.28 696.585 661.28C696.329 661.28 696.116 661.412 696.116 661.61ZM745.442 727.115C744.633 727.379 744.293 727.577 744.633 727.577C745.229 727.577 747.698 726.653 747.144 726.62C746.974 726.62 746.208 726.851 745.442 727.115Z" fill="#050505"/>
</g>
<defs>
<clipPath id="clip0">
<rect width="1600" height="1200" fill="white"/>
</clipPath>
</defs>
</svg>
