<svg width="1600" height="1200" viewBox="0 0 1600 1200" fill="none" xmlns="http://www.w3.org/2000/svg">
<g clip-path="url(#clip0)">
<path d="M871.901 351.445C871.759 351.778 871.474 352.728 871.268 353.551C871.062 354.375 870.666 355.436 870.397 355.911C869.668 357.177 869.969 357.684 870.903 356.766C871.489 356.164 871.394 356.465 870.539 357.906C870.048 358.729 869.795 358.983 869.431 359.062C868.987 359.157 868.813 359.458 868.845 360.091C868.845 360.218 868.797 360.455 868.734 360.598C868.639 360.835 868.702 360.883 869.193 360.883C869.51 360.883 869.763 360.915 869.763 360.962C869.763 361.01 869.478 361.611 869.13 362.308C868.481 363.606 868.481 363.686 869.193 363.416C869.542 363.29 869.605 363.306 869.605 363.543C869.605 363.686 869.684 363.923 869.763 364.05C869.906 364.256 869.985 364.224 870.318 363.844C870.729 363.369 871.03 363.29 871.03 363.638C871.03 363.939 870.603 364.367 870.302 364.367C870.175 364.367 870.08 364.43 870.08 364.509C870.08 364.731 870.428 364.921 870.729 364.873C871.157 364.794 871.252 365.348 870.888 365.665C870.698 365.808 870.555 366.013 870.555 366.14C870.555 366.267 870.476 366.441 870.365 366.552C870.048 366.868 870.428 367.106 870.951 366.9C871.268 366.789 871.442 366.789 871.6 366.916C871.774 367.059 871.711 367.201 871.299 367.739C870.888 368.246 870.349 368.595 868.56 369.465C867.325 370.051 866.2 370.542 866.026 370.542C865.504 370.542 866.01 370.827 866.976 371.081C867.483 371.223 867.942 371.35 867.974 371.381C868.116 371.524 866.992 373.218 866.644 373.377C866.153 373.598 866.185 373.788 866.755 374.216C867.198 374.533 867.214 374.58 866.976 374.833C866.834 374.992 866.755 375.261 866.802 375.451C866.866 375.72 866.818 375.752 866.501 375.673C866.295 375.625 865.82 375.689 865.456 375.831C864.839 376.069 864.712 376.084 864.189 375.847C863.334 375.499 863.223 375.53 863.318 376.084C863.413 376.48 863.366 376.56 863.097 376.56C862.923 376.56 862.828 376.623 862.875 376.718C862.923 376.797 863.113 376.876 863.287 376.876C863.461 376.876 863.714 376.987 863.857 377.13C864.079 377.335 864.079 377.383 863.873 377.557C863.746 377.668 863.477 377.985 863.271 378.286C862.907 378.808 862.907 378.808 863.239 378.713C863.493 378.634 863.572 378.666 863.54 378.887C863.54 379.046 863.699 379.41 863.904 379.679C864.174 380.059 864.269 380.376 864.253 380.898C864.221 381.611 864.221 381.611 864.854 381.785C865.203 381.88 865.488 381.991 865.488 382.038C865.488 382.086 865.377 382.323 865.25 382.593C865.108 382.846 865.045 383.131 865.092 383.21C865.14 383.305 865.678 383.369 866.264 383.369C867.325 383.369 867.356 383.384 867.546 383.844C867.831 384.525 868.021 384.62 868.782 384.477C869.415 384.366 869.447 384.382 869.447 384.746C869.447 385.253 869.858 385.38 870.413 385.047C870.872 384.778 870.888 384.778 871.363 385.253L871.838 385.744L871.6 390.035C871.474 392.41 871.315 394.39 871.236 394.453C871.014 394.659 869.589 395.071 868.433 395.261C863.904 396.021 857.65 393.693 853.342 389.655C852.883 389.227 852.44 388.927 852.361 388.99C852.076 389.148 852.171 390.146 852.503 390.811C852.82 391.444 852.82 391.444 852.519 391.444C852.345 391.444 852.155 391.524 852.091 391.619C852.044 391.714 851.854 391.761 851.696 391.714C851.458 391.65 851.426 391.682 851.553 391.919C851.632 392.078 851.886 392.347 852.107 392.521C852.329 392.695 852.503 392.901 852.503 392.996C852.503 393.075 852.614 393.186 852.741 393.25C852.867 393.297 852.978 393.392 852.978 393.455C852.978 393.63 851.49 394.453 851.189 394.453C850.635 394.453 850.793 394.77 851.395 394.865C851.743 394.928 852.297 395.181 852.614 395.435C852.931 395.688 853.295 395.847 853.406 395.815C853.517 395.767 853.612 395.799 853.612 395.878C853.612 396.084 854.134 396.084 854.356 395.862C854.688 395.53 854.752 396.052 854.419 396.417C853.976 396.892 853.992 397.018 854.578 397.351C855.005 397.588 855.068 397.699 855.005 398.111C854.91 398.697 855.195 398.871 855.718 398.538C855.908 398.412 856.335 398.253 856.668 398.206L857.27 398.111L857.159 398.649C857.064 399.172 857.08 399.188 857.681 399.235L858.283 399.283L857.855 399.504C857.602 399.631 857.412 399.789 857.412 399.869C857.412 400.122 858.22 399.979 858.536 399.663C858.869 399.33 858.869 399.33 859.296 399.631C859.835 400.043 860.072 400.708 859.819 401.104C859.661 401.373 859.661 401.42 859.93 401.42C860.088 401.42 860.405 401.278 860.627 401.104C861.054 400.771 861.292 400.882 861.117 401.341C861.038 401.515 861.086 401.595 861.228 401.563C861.687 401.468 862.305 401.737 862.21 401.975C862.163 402.117 862.226 402.339 862.368 402.497C862.495 402.64 862.653 402.925 862.701 403.115C862.859 403.637 863.382 403.574 863.73 402.988C863.952 402.624 864.284 402.402 864.87 402.196C865.9 401.832 865.852 401.832 865.646 402.196C865.567 402.371 865.345 402.561 865.171 402.608C864.965 402.671 864.854 402.846 864.854 403.083C864.854 403.637 865.14 403.716 865.662 403.336C866.09 403.02 866.153 403.004 866.596 403.241C867.008 403.447 867.071 403.574 867.071 404.112C867.071 404.698 867.103 404.746 867.673 404.888C867.99 404.983 868.354 405.062 868.465 405.062C868.607 405.062 868.655 405.443 868.655 406.424V407.786L869.336 407.675C869.7 407.612 870.238 407.438 870.523 407.264L871.03 406.979V408.705C871.03 410.383 871.014 410.431 870.587 410.874C870.333 411.111 869.953 411.396 869.747 411.491C869.32 411.697 864.664 412.03 862.305 412.03C859.787 412.03 857.681 411.27 852.947 408.641C851.268 407.723 849.97 407.089 849.97 407.2C849.97 407.311 850.223 407.77 850.524 408.229C850.999 408.926 851.031 409.053 850.777 408.974C850.571 408.926 850.445 408.99 850.397 409.164C850.365 409.338 850.239 409.211 850.017 408.768C849.827 408.419 849.495 408.055 849.273 407.944C848.671 407.675 848.734 408.008 849.51 409.037L850.144 409.892L849.669 409.94C849.035 410.003 849.051 410.13 849.78 410.589C850.096 410.795 850.27 411.001 850.175 411.032C850.017 411.096 850.033 411.159 850.207 411.349C850.54 411.681 850.508 411.856 850.112 411.761C849.716 411.65 849.336 412.062 849.336 412.584C849.336 412.853 849.194 412.98 848.687 413.122C847.879 413.36 847.959 413.629 848.909 413.93C849.32 414.057 849.653 414.215 849.653 414.278C849.653 414.342 849.51 414.532 849.32 414.69C849.02 414.975 849.02 415.023 849.257 415.26C849.4 415.403 849.574 415.514 849.653 415.514C849.732 415.514 849.938 415.672 850.128 415.862C850.413 416.179 850.429 416.226 850.191 416.495C849.97 416.717 849.97 416.812 850.128 417.018C850.239 417.145 850.476 417.255 850.666 417.255C851.205 417.255 851.506 417.525 851.268 417.762C850.92 418.11 851.078 418.332 851.791 418.443C852.424 418.522 852.582 418.649 853.137 419.361C854.198 420.771 855.369 421.309 855.48 420.454C855.575 419.757 855.908 420.201 855.876 420.961L855.829 421.705L856.367 421.61C856.826 421.515 856.937 421.563 857.285 422.022L857.697 422.528L857.887 422.148C858.235 421.483 859.043 420.723 859.17 420.929C859.265 421.087 859.455 421.072 860.025 420.866C860.722 420.597 860.753 420.597 860.674 420.866C860.627 421.008 860.547 421.404 860.484 421.737C860.405 422.243 860.421 422.307 860.642 422.228C860.785 422.18 860.943 421.943 860.991 421.705C861.165 420.929 861.149 420.929 861.83 421.056C862.59 421.198 862.954 421.452 862.954 421.879C862.954 422.323 863.303 422.148 863.619 421.547C863.873 421.04 863.889 421.04 864.063 421.372C864.174 421.563 864.221 422.069 864.189 422.497C864.158 423.099 864.189 423.257 864.348 423.194C864.474 423.146 864.585 423.114 864.633 423.114C864.759 423.114 865.171 422.164 865.171 421.848C865.171 421.467 865.615 421.42 866.28 421.768C866.533 421.895 866.771 421.943 866.818 421.863C866.881 421.784 866.961 421.277 867.024 420.755C867.071 420.217 867.182 419.741 867.261 419.694C867.467 419.551 867.974 420.058 868.085 420.517C868.164 420.787 868.275 420.897 868.465 420.866C868.687 420.818 868.734 420.644 868.734 419.947C868.734 419.108 868.75 419.076 869.177 419.029C869.431 418.997 869.732 419.061 869.858 419.171C870.191 419.456 870.286 419.266 870.112 418.617C869.969 418.126 869.985 418.015 870.223 417.889C870.492 417.762 870.508 417.984 870.618 421.816C870.666 424.049 870.777 426.63 870.856 427.548C870.951 428.467 870.967 429.464 870.919 429.781C870.84 430.351 870.824 430.351 869.383 430.794C865.979 431.824 865.14 431.998 862.954 432.077C857.491 432.299 850.144 430.541 846.739 428.197C846.343 427.912 846.011 427.738 846.011 427.786C846.011 427.944 846.755 429.052 847.024 429.274C847.167 429.385 847.278 429.575 847.278 429.67C847.278 429.765 847.452 430.224 847.674 430.699C848.069 431.539 848.085 431.903 847.721 431.539C847.484 431.301 846.106 431.285 846.248 431.507C846.296 431.586 846.486 431.665 846.66 431.665C846.818 431.665 846.961 431.744 846.961 431.824C846.961 431.934 846.755 431.95 846.407 431.887C845.853 431.792 845.853 431.792 846.011 432.219C846.312 433.027 846.486 433.233 847.04 433.423C847.341 433.534 847.594 433.724 847.594 433.819C847.594 433.93 847.753 434.135 847.927 434.262C848.259 434.484 848.259 434.516 848.006 434.896C847.816 435.196 847.8 435.307 847.943 435.339C848.054 435.355 847.04 435.402 845.694 435.466C844.348 435.513 843.113 435.624 842.955 435.719C842.701 435.861 842.717 435.925 843.161 436.542C843.667 437.255 844.475 437.841 844.95 437.841C845.377 437.841 845.267 438.173 844.76 438.363C844.317 438.522 844.317 438.553 844.507 439.013C844.633 439.282 844.76 439.63 844.807 439.804C844.887 440.026 845.029 440.074 845.441 440.026C845.963 439.963 845.979 439.979 845.9 440.39C845.853 440.644 845.916 440.96 846.058 441.166C846.185 441.356 846.264 441.641 846.217 441.815C846.153 442.053 846.217 442.116 846.502 442.116C846.708 442.116 847.468 442.243 848.196 442.386C849.225 442.607 849.605 442.623 849.97 442.481C850.413 442.306 850.46 442.338 850.698 442.766C850.951 443.272 850.936 443.272 851.981 442.56C852.345 442.322 852.709 442.116 852.772 442.116C852.852 442.116 853.2 442.401 853.532 442.75C853.865 443.098 854.229 443.383 854.324 443.383C854.562 443.383 855.1 442.781 855.417 442.164C855.639 441.72 855.718 441.673 855.955 441.815C856.177 441.958 856.367 441.942 856.747 441.736C857.032 441.594 857.333 441.515 857.412 441.562C857.491 441.61 857.586 441.578 857.65 441.483C857.697 441.404 857.887 441.245 858.061 441.166C858.315 441.024 858.394 441.055 858.52 441.404C858.695 441.879 858.964 441.895 859.787 441.483C860.674 441.024 860.801 441.071 860.69 441.736C860.5 442.845 860.294 442.987 858.346 443.367C855.559 443.922 854.783 444.001 854.023 443.811C853.643 443.7 853.58 443.731 853.675 443.937C853.754 444.159 853.532 444.191 851.601 444.159C849.336 444.143 848.924 444.27 849.764 444.713C850.001 444.84 850.524 445.267 850.92 445.663C851.3 446.059 851.743 446.392 851.886 446.392C852.345 446.392 852.377 446.677 851.949 446.962C851.506 447.247 851.553 447.453 852.155 447.69L852.582 447.849L851.917 448.086C851.537 448.213 851.236 448.387 851.236 448.466C851.236 448.735 852.25 449.115 853.279 449.21C854.134 449.305 854.324 449.369 854.324 449.606C854.324 449.765 854.055 450.034 853.691 450.24C852.614 450.841 852.741 451.047 854.673 451.665C855.607 451.982 856.604 452.267 856.889 452.33C857.555 452.457 858.41 452.219 859.011 451.712C859.629 451.19 859.756 451.19 859.882 451.728C860.041 452.409 860.088 452.425 860.69 452.172C861.339 451.902 862.479 451.855 862.479 452.108C862.479 452.203 862.083 452.694 861.592 453.201C860.595 454.246 860.136 454.452 857.016 455.164C853.374 455.988 852.852 456.019 849.89 455.497C847.927 455.164 847.911 455.164 848.655 455.924L849.32 456.605L848.94 456.875C848.734 457.033 848.418 457.381 848.212 457.65L847.864 458.141L848.766 458.03C849.621 457.92 849.653 457.92 849.653 458.3C849.653 458.537 849.415 458.917 849.035 459.281C848.513 459.788 848.434 459.946 848.529 460.295C848.655 460.786 849.115 460.912 849.843 460.659C850.255 460.517 850.302 460.517 850.223 460.754C850.128 460.976 850.286 460.992 851.711 460.897L853.295 460.786V461.34C853.295 461.799 853.358 461.926 853.675 462.005C853.897 462.053 854.388 462.037 854.783 461.942C855.48 461.799 855.496 461.799 855.544 462.211C855.591 462.623 855.607 462.623 856.826 462.623C857.681 462.623 858.093 462.686 858.188 462.828C858.299 463.018 858.52 463.003 859.486 462.813C860.642 462.559 860.658 462.575 861.323 462.955C861.687 463.161 862.163 463.335 862.368 463.335C863.334 463.335 863.762 463.525 863.857 463.984C863.936 464.38 864.015 464.444 864.459 464.444C864.949 464.444 866.406 464.206 866.945 464.032C867.103 463.984 867.23 464.048 867.261 464.222C867.293 464.428 867.499 464.333 868.275 463.763L869.241 463.05L869.352 464C869.399 464.539 869.447 465.315 869.447 465.742C869.447 466.502 869.447 466.502 869.019 466.391C868.766 466.312 868.227 466.265 867.784 466.265C867.071 466.265 866.992 466.296 866.945 466.629C866.881 466.993 866.866 466.993 865.52 466.914C864.759 466.851 862.764 466.74 861.07 466.645C859.391 466.566 857.65 466.423 857.206 466.344C856.779 466.249 855.971 466.185 855.433 466.185C853.77 466.185 847.072 464.855 846.818 464.475C846.771 464.396 845.963 464.079 845.045 463.747C842.337 462.828 838.252 462.148 838.252 462.623C838.252 462.749 838.125 462.876 837.967 462.908C837.713 462.971 837.713 462.987 837.983 463.003C838.204 463.018 838.252 463.098 838.173 463.335C838.078 463.62 838.141 463.652 838.964 463.652C839.788 463.652 840.944 464.016 840.944 464.269C840.944 464.317 840.801 464.539 840.627 464.76C840.453 464.982 840.31 465.251 840.31 465.346C840.31 465.473 840.073 465.552 839.677 465.552C839.043 465.552 838.838 465.758 839.281 465.932C839.408 465.98 839.883 466.059 840.342 466.122L841.15 466.233L840.754 466.566C840.532 466.756 840.215 466.977 840.057 467.072C839.772 467.246 839.772 467.278 840.136 467.674L840.516 468.086H839.582C837.618 468.086 837.618 468.988 839.582 469.147C840.152 469.194 840.627 469.273 840.627 469.305C840.627 469.337 840.437 469.542 840.199 469.733L839.772 470.113L840.389 470.287C840.738 470.382 841.118 470.461 841.245 470.461C841.371 470.461 841.419 470.556 841.355 470.698C841.245 470.999 841.181 470.999 842.622 470.603C843.271 470.429 843.857 470.303 843.889 470.35C843.936 470.382 843.667 470.603 843.287 470.825C842.416 471.348 840.595 472.852 840.5 473.105C840.405 473.438 840.88 473.343 841.371 472.947C842.163 472.282 843.588 471.411 843.857 471.411C844.427 471.411 844.079 471.997 843.161 472.583C841.577 473.596 840.96 474.42 841.783 474.42C842.385 474.42 842.385 474.578 841.799 475.085C841.498 475.354 841.276 475.591 841.308 475.623C841.34 475.655 841.735 475.481 842.195 475.243C843.002 474.784 843.034 474.784 843.857 475.021C844.665 475.243 844.712 475.291 844.807 475.861C844.855 476.193 844.966 476.51 845.061 476.557C845.298 476.7 846.106 475.449 846.676 474.087C847.183 472.82 847.325 472.694 847.753 473.042C848.481 473.612 848.782 474.8 848.37 475.56C847.895 476.431 849.21 475.813 850.413 474.594C851.316 473.66 851.379 473.628 852.155 473.628C853.374 473.628 853.532 473.739 852.994 474.198C852.693 474.451 852.345 474.578 851.949 474.578C851.442 474.578 851.363 474.626 851.442 474.879C851.506 475.148 851.395 475.211 850.698 475.354C849.859 475.544 848.703 476.003 848.703 476.177C848.703 476.352 849.352 476.478 850.207 476.478C850.651 476.478 851.11 476.557 851.236 476.637C851.411 476.747 851.569 476.668 851.87 476.32C852.456 475.655 852.852 475.639 852.994 476.288C853.089 476.763 853.042 476.89 852.519 477.381L851.949 477.919L852.662 477.84C853.881 477.698 854.34 477.602 854.783 477.428C855.021 477.349 855.433 477.27 855.686 477.27C856.288 477.27 856.984 476.922 857.935 476.13C858.536 475.623 858.695 475.56 858.774 475.75C858.916 476.13 859.249 476.051 859.55 475.591C859.74 475.291 859.866 475.227 860.009 475.354C860.12 475.449 860.247 475.481 860.294 475.449C860.342 475.401 860.611 475.576 860.896 475.845C861.181 476.114 861.608 476.431 861.83 476.542L862.226 476.763L861.719 477.017C861.434 477.159 861.212 477.349 861.212 477.428C861.212 477.793 861.656 477.523 862.511 476.637C863.018 476.114 863.54 475.686 863.667 475.686C863.794 475.686 863.904 475.576 863.904 475.449C863.904 475.322 864.015 475.211 864.142 475.211C864.284 475.211 864.379 475.354 864.379 475.607C864.379 476.098 864.411 476.098 865.013 475.544C865.409 475.18 865.71 475.069 866.485 475.006C867.024 474.958 867.626 474.863 867.816 474.816C868.132 474.721 868.148 474.752 868.069 475.354C867.99 475.971 868.006 476.003 868.386 476.003C868.592 476.003 868.813 475.892 868.877 475.766C868.924 475.639 869.082 475.528 869.225 475.528C869.447 475.528 869.462 475.639 869.399 476.114C869.336 476.447 869.209 477.84 869.114 479.202C869.003 480.579 868.861 481.656 868.782 481.609C868.718 481.561 868.655 481.72 868.655 481.941C868.655 482.179 868.528 482.828 868.386 483.382L868.116 484.412L866.359 484.95C859.787 486.993 850.16 487.23 842.29 485.504C841.593 485.362 840.801 485.219 840.532 485.203C840.263 485.203 839.439 485.013 838.711 484.792C837.143 484.317 832.535 483.287 832.029 483.287C831.918 483.287 832.139 483.477 832.519 483.699C832.884 483.921 833.185 484.19 833.185 484.301C833.185 484.427 833.359 484.633 833.565 484.776C833.834 484.95 833.929 485.108 833.865 485.346C833.802 485.615 833.897 485.726 834.435 485.948C834.784 486.09 835.085 486.264 835.085 486.312C835.085 486.375 834.721 486.565 834.293 486.755C833.47 487.103 833.422 487.262 834.008 487.689C834.198 487.832 834.277 488.022 834.214 488.196C834.166 488.37 834.277 488.655 834.531 488.956C834.752 489.21 834.926 489.479 834.926 489.526C834.926 489.574 834.689 489.716 834.404 489.843L833.897 490.065L834.847 490.096L835.797 490.128L834.942 490.508C833.913 490.983 834.055 491.189 835.401 491.221H836.272L835.639 491.506L835.006 491.791L835.544 491.886C835.829 491.949 836.336 492.012 836.652 492.012C836.969 492.028 837.096 492.06 836.937 492.107C836.193 492.297 837.032 492.788 838.141 492.788C838.663 492.788 838.758 492.836 838.568 492.962C838.394 493.089 838.505 493.105 839.012 493.042L839.693 492.947L839.36 493.564C839.186 493.913 839.043 494.245 839.043 494.308C839.043 494.356 839.408 494.372 839.835 494.34C840.279 494.324 840.627 494.324 840.627 494.372C840.627 494.403 840.374 494.704 840.057 495.021C839.74 495.354 839.534 495.686 839.582 495.781C839.709 495.971 840.548 496.003 840.991 495.813C841.308 495.702 843.271 495.987 844 496.256C844.237 496.351 844.427 496.494 844.427 496.589C844.427 496.731 842.717 497.919 842.305 498.061C842.226 498.093 842.21 498.299 842.274 498.536C842.432 499.17 843.176 499.486 844.269 499.407L845.187 499.344L844.317 500.421C843.541 501.402 843.493 501.497 843.826 501.497C844.031 501.497 844.507 501.339 844.902 501.165C846.454 500.452 846.375 500.437 846.248 501.339C846.122 502.273 846.185 502.305 847.404 501.735C847.879 501.513 848.323 501.339 848.402 501.339C848.481 501.339 848.544 501.735 848.544 502.21C848.544 502.685 848.592 503.081 848.639 503.081C848.687 503.081 848.94 502.907 849.21 502.685C849.875 502.131 850.128 502.178 850.128 502.843C850.128 503.144 850.175 503.398 850.223 503.398C850.445 503.398 852.297 502.384 852.614 502.099C852.804 501.925 853.089 501.466 853.247 501.07C853.548 500.342 853.501 500.357 854.514 500.642C854.783 500.722 854.989 500.611 855.338 500.262L855.813 499.787L856.066 500.167C856.304 500.532 856.335 500.547 856.779 500.31C857.032 500.167 857.365 499.898 857.507 499.676C857.634 499.471 857.84 499.328 857.966 499.376C858.077 499.423 858.22 499.376 858.283 499.281C858.362 499.154 858.52 499.233 858.774 499.534L859.154 499.993L859.471 499.613C859.645 499.407 859.787 499.138 859.787 499.011C859.787 498.837 859.914 498.853 860.357 499.122C860.896 499.471 860.927 499.471 861.529 499.201C861.941 499.011 862.21 498.98 862.4 499.075C862.622 499.201 862.495 499.296 861.735 499.581C860.31 500.12 860.247 500.199 860.405 501.165C860.579 502.258 860.785 502.448 861.26 502.004C861.466 501.814 861.703 501.656 861.814 501.656C861.909 501.656 862.226 501.45 862.511 501.197C862.891 500.864 863.271 500.722 863.904 500.642L864.775 500.532L864.094 501.165C863.714 501.513 863.208 501.846 862.938 501.893C862.685 501.957 862.479 502.052 862.479 502.131C862.479 502.353 863.429 502.4 863.746 502.178C864.094 501.941 864.284 502.131 864.142 502.59C864.094 502.764 864.126 502.938 864.221 503.002C864.3 503.049 864.379 503.35 864.379 503.667C864.379 504.126 864.427 504.205 864.664 504.126C865.124 503.968 863.92 504.934 862.242 506.058C858.441 508.623 853.77 510.508 846.565 512.344C845.092 512.724 843.525 513.073 843.081 513.136C842.654 513.184 841.514 513.485 840.564 513.785C839.614 514.086 838.743 514.308 838.632 514.26C838.521 514.213 838.378 514.245 838.347 514.308C838.299 514.387 837.555 514.609 836.716 514.799C835.861 514.989 835.101 515.195 835.021 515.226C834.451 515.575 837.112 515.701 839.36 515.432C840.674 515.274 841.26 515.353 841.26 515.67C841.26 515.986 841.118 516.034 840.025 516.097C839.408 516.129 839.043 516.208 839.043 516.335C839.043 516.636 839.835 517.475 840.358 517.76L840.849 518.013L840.342 518.441C839.74 518.932 839.724 519.058 840.152 519.549C840.342 519.755 840.437 520.024 840.405 520.135C840.31 520.389 841.34 520.42 841.957 520.183C842.448 520.009 842.464 520.088 842.052 520.61C841.625 521.149 841.625 521.513 842.036 521.291C842.21 521.212 842.511 521.133 842.701 521.133C843.034 521.133 843.05 521.26 842.781 521.94C842.686 522.162 842.796 522.162 843.826 521.988C845.282 521.735 849.479 521.386 849.605 521.497C849.653 521.56 849.621 521.814 849.526 522.083C849.368 522.51 849.4 522.59 849.7 522.78C849.89 522.906 850.302 523.049 850.603 523.112C851.537 523.286 852.187 523.524 852.187 523.698C852.187 523.777 851.901 524.11 851.553 524.411C850.508 525.361 850.761 525.804 852.234 525.63C852.915 525.551 853.121 525.582 853.453 525.852L853.833 526.168L855.084 525.63C856.478 525.044 856.937 524.712 856.937 524.268C856.937 523.856 857.206 523.92 857.507 524.379C857.824 524.87 857.887 524.87 858.6 524.395C858.932 524.157 859.518 523.967 860.025 523.904C860.785 523.809 860.896 523.746 860.896 523.429C860.896 523.239 860.785 522.986 860.658 522.875C860.278 522.558 860.389 522.083 860.975 521.513C861.276 521.228 861.529 520.943 861.529 520.864C861.529 520.8 861.703 520.515 861.925 520.262L862.321 519.787L862.796 520.309C863.065 520.594 863.271 520.99 863.271 521.212C863.271 521.434 863.334 521.608 863.413 521.608C863.714 521.608 863.92 521.117 863.889 520.484L863.841 519.834L864.775 519.454C865.868 519.011 866.01 518.995 866.295 519.328C866.485 519.549 866.517 519.549 866.707 519.296C866.818 519.138 866.913 518.853 866.913 518.663C866.913 518.473 867.024 518.235 867.166 518.124C867.356 517.95 867.451 517.966 867.657 518.172C867.879 518.393 867.895 518.663 867.705 520.848C867.594 522.178 867.562 523.698 867.61 524.221C867.8 525.757 867.879 535.432 867.736 537.839C867.673 539.058 867.673 540.958 867.752 542.067C867.895 543.935 867.879 544.125 867.546 544.996C867.293 545.661 867.166 546.39 867.103 547.688L867.024 549.462L867.451 549.652C867.752 549.794 867.816 549.889 867.673 549.984C867.214 550.269 868.592 550.744 870.064 550.792C870.587 550.808 870.951 550.887 870.903 550.966C870.856 551.061 871.664 551.061 872.946 550.982C874.118 550.918 875.464 550.839 875.939 550.808C876.414 550.792 877.016 550.697 877.269 550.602C877.507 550.507 878.378 550.348 879.169 550.269C879.977 550.19 880.879 550.016 881.18 549.889L881.719 549.667L881.275 549.493C881.022 549.398 880.753 549.319 880.674 549.319C880.484 549.319 880.499 549.208 880.753 548.797C880.879 548.607 881.022 548.29 881.085 548.084C881.18 547.767 881.133 547.736 880.594 547.736H880.009L880.104 543.571C880.167 540.768 880.135 538.615 879.993 536.889C879.834 534.862 879.834 534.292 879.993 533.959C880.23 533.484 880.689 531.378 880.705 530.713C880.705 530 880.389 523.556 880.151 519.629C880.024 517.712 879.961 516.113 879.993 516.081C880.104 515.955 880.848 517.823 880.943 518.488C880.99 518.853 881.101 519.312 881.196 519.502C881.291 519.676 881.339 520.088 881.291 520.404C881.228 520.911 881.275 520.974 881.592 520.974C882.162 520.974 882.669 521.64 883.302 523.239L883.904 524.743L884.347 524.585C884.601 524.506 885.012 524.189 885.266 523.888C885.535 523.587 885.772 523.35 885.82 523.35C885.852 523.35 886.121 523.746 886.39 524.236C886.944 525.187 887.467 525.757 887.689 525.63C887.752 525.582 887.815 525.139 887.815 524.632C887.815 523.476 888.084 523.049 888.654 523.302C888.955 523.445 889.082 523.651 889.161 524.094C889.209 524.427 889.525 525.377 889.842 526.2C890.317 527.388 890.523 527.72 890.776 527.752C890.998 527.784 891.204 527.657 891.394 527.403C891.663 526.976 892.091 526.849 892.091 527.198C892.091 527.403 893.041 528.417 893.231 528.417C893.278 528.417 893.357 528.274 893.405 528.1C893.452 527.926 893.547 527.784 893.627 527.784C893.69 527.784 894.228 528.48 894.798 529.335C895.78 530.792 896.904 531.901 897.411 531.901C897.57 531.901 897.633 531.711 897.633 531.251C897.633 530.665 897.665 530.618 897.997 530.729C898.187 530.792 898.646 531.077 899.011 531.378C899.375 531.679 899.755 531.885 899.85 531.821C899.929 531.774 900.008 531.267 900.008 530.697C900.008 530.143 900.071 529.684 900.135 529.684C900.214 529.684 900.436 529.874 900.657 530.095C901.148 530.618 901.782 530.951 902.32 530.951C902.748 530.951 902.748 530.935 902.653 530.08C902.542 529.066 902.653 529.019 903.492 529.684C904.078 530.143 905.044 530.634 905.392 530.634C905.63 530.634 905.17 529.62 904.521 528.734C904.204 528.306 904.014 527.926 904.078 527.894C904.157 527.847 904.648 527.894 905.17 528.005L906.12 528.211L906.437 527.736C906.595 527.467 906.881 526.992 907.071 526.691C907.371 526.153 907.435 526.121 908.306 526.073C909.224 526.026 909.224 526.026 909.161 525.551L909.082 525.092L910.998 525.076L912.914 525.06L911.964 524.743C911.441 524.569 910.443 524.268 909.747 524.078L908.48 523.714L909.082 523.524C909.905 523.239 909.81 523.065 908.306 522.146C908.021 521.972 908.036 521.94 908.417 521.798C908.654 521.703 909.05 521.355 909.335 521.022C909.81 520.436 909.826 520.42 909.509 520.278C909.192 520.135 909.192 520.135 909.541 519.739L909.905 519.343L909.43 519.438C909.177 519.502 907.989 519.787 906.817 520.104C905.598 520.436 904.094 520.721 903.333 520.769C902.035 520.848 901.892 520.832 900.008 520.183C898.916 519.819 897.76 519.375 897.443 519.217C897.047 519.011 896.699 518.948 896.366 519.011C895.986 519.09 895.907 519.074 895.97 518.884C896.034 518.726 895.669 518.378 894.83 517.792C893.421 516.826 889.937 514.213 889.003 513.421C888.306 512.835 886.2 510.349 886.311 510.238C886.343 510.191 886.707 510.365 887.103 510.603C887.704 510.951 887.879 510.983 888.069 510.824C888.274 510.666 888.559 510.872 889.842 512.139C892.645 514.894 893.817 515.686 894.672 515.385C895.099 515.242 895.194 515.274 895.559 515.701C895.78 515.971 896.113 516.272 896.303 516.367C896.493 516.446 897.665 516.541 898.916 516.557C900.879 516.572 901.354 516.525 902.368 516.224C903.46 515.891 903.555 515.876 904.062 516.113L904.584 516.367L904.632 515.701C904.679 515.116 904.727 515.036 905.123 514.989C905.614 514.926 905.645 514.846 905.297 514.355C904.98 513.896 905.139 513.659 905.645 513.849C906.405 514.15 906.659 514.055 906.976 513.31C907.134 512.93 907.34 512.566 907.435 512.519C907.736 512.329 907.625 512.123 907.118 511.869L906.627 511.616L907.72 510.84C908.306 510.413 909.082 509.779 909.414 509.431L910.032 508.797L906.881 508.892C902.542 509.019 898.868 508.671 895.495 507.816C892.296 507.008 888.401 505.44 888.734 505.108C888.86 504.981 889.019 504.965 889.304 505.108C889.795 505.33 889.874 505.235 889.668 504.664C889.351 503.841 889.7 503.762 890.903 504.411C892.154 505.076 892.756 505.14 893.104 504.633C893.247 504.443 893.389 504.332 893.437 504.379C893.484 504.427 893.674 505.013 893.864 505.678C894.118 506.612 894.244 506.881 894.45 506.85C894.608 506.818 894.719 506.612 894.751 506.295L894.798 505.805L896.002 506.359C897.902 507.23 898.773 507.23 897.997 506.359C897.76 506.09 897.744 506.026 897.934 505.963C898.06 505.915 898.33 505.725 898.535 505.52C898.725 505.33 898.931 505.219 898.979 505.298C899.026 505.377 899.327 505.52 899.66 505.63C899.976 505.725 900.436 506.01 900.673 506.264C900.911 506.517 901.164 506.723 901.227 506.723C901.291 506.723 901.481 506.501 901.639 506.232C901.908 505.757 901.956 505.741 902.668 505.836L903.428 505.931L903.365 505.377C903.286 504.664 903.619 504.522 904.553 504.854C905.154 505.076 905.487 504.997 905.075 504.744C904.996 504.696 904.917 504.554 904.917 504.443C904.917 504.284 905.075 504.284 905.772 504.459C906.31 504.585 906.754 504.617 906.991 504.538L907.356 504.395L906.896 504.142C906.453 503.904 906.437 503.889 906.801 503.873C907.007 503.873 907.656 503.746 908.274 503.604C909.113 503.398 909.446 503.239 909.667 502.923L909.968 502.495L909.572 502.289C909.082 502.02 909.335 501.814 910.174 501.814C910.871 501.814 911.615 501.561 911.504 501.355C911.457 501.276 911.774 500.943 912.201 500.611C912.898 500.088 912.961 499.993 912.724 499.851C912.565 499.771 911.995 499.708 911.457 499.724C910.918 499.756 910.443 499.708 910.396 499.629C910.269 499.423 911.33 498.726 912.359 498.33C912.834 498.156 913.626 497.792 914.101 497.539L914.972 497.08L913.547 497.19C910.823 497.396 904.046 497.301 901.908 497C894.038 495.924 887.245 493.453 881.45 489.59L879.581 488.339V486.248C879.581 484.19 879.834 480.294 879.961 480.168C880.072 480.041 881.956 480.627 881.956 480.785C881.956 480.849 881.75 480.96 881.481 481.007C881.228 481.07 881.006 481.165 881.006 481.229C881.006 481.292 881.434 482.195 881.956 483.24C883.556 486.423 884.617 487.103 886.058 485.884C886.548 485.472 886.564 485.472 887.182 485.726C887.53 485.868 888.069 485.979 888.385 485.979C888.86 485.979 888.924 485.948 888.781 485.694C888.702 485.536 888.148 484.95 887.578 484.38C886.659 483.509 886.073 482.733 886.073 482.416C886.073 482.369 886.295 482.432 886.548 482.575C887.087 482.86 887.087 482.844 886.833 482.005C886.738 481.656 886.691 481.34 886.738 481.292C886.913 481.134 887.736 481.656 888.322 482.321C889.114 483.208 889.589 483.414 890.095 483.081L890.475 482.828L890.966 484.095C891.236 484.792 891.457 485.457 891.457 485.536C891.457 485.631 891.584 485.599 891.742 485.457C892.233 485.013 892.582 485.14 893.912 486.217C895.543 487.547 895.574 487.547 895.178 486.248C894.973 485.583 894.973 485.409 895.178 484.934C895.305 484.633 895.448 484.396 895.495 484.396C895.844 484.396 896.667 485.251 897.49 486.47C898.013 487.246 898.504 487.848 898.583 487.8C898.678 487.737 898.741 487.42 898.741 487.072C898.741 486.391 898.773 486.375 899.248 486.628C899.612 486.818 899.913 486.549 899.771 486.169C899.723 486.027 899.961 485.979 900.673 485.979C901.623 485.979 901.623 485.979 901.402 485.631C901.275 485.425 900.61 484.887 899.913 484.427C899.232 483.968 898.646 483.525 898.615 483.446C898.535 483.224 899.85 482.923 900.499 483.018C901.006 483.081 901.069 483.05 901.006 482.812C900.958 482.654 900.784 482.4 900.626 482.242C900.467 482.1 900.325 481.925 900.325 481.878C900.325 481.83 901.085 481.783 902.035 481.783C903.698 481.783 905.091 481.498 904.806 481.229C904.743 481.15 903.682 480.785 902.478 480.421C901.148 480.025 900.024 479.598 899.676 479.329C899.343 479.091 898.852 478.806 898.599 478.695C898.345 478.6 898.092 478.41 898.045 478.283C897.934 477.998 897.902 477.983 899.264 478.537C900.04 478.853 900.737 479.012 901.259 479.012C901.702 479.012 902.067 478.98 902.067 478.933C902.067 478.885 901.956 478.679 901.813 478.473C901.528 478.014 901.639 477.919 902.7 477.793C903.571 477.698 903.698 477.476 903.238 476.827C902.906 476.336 903.08 476.162 903.888 476.162C904.268 476.162 904.759 476.098 904.98 476.003L905.392 475.845L904.806 475.291C904.078 474.626 904.236 474.42 905.471 474.42C906.326 474.42 906.833 474.214 906.58 473.976C906.485 473.897 906.01 473.675 905.503 473.47C904.521 473.09 904.505 472.979 905.44 472.678C906.073 472.472 906.342 472.139 906.342 471.49C906.342 471.269 906.453 470.841 906.58 470.524L906.801 469.97L905.994 470.081C904.901 470.223 905.091 469.97 906.421 469.495C907.989 468.941 908.052 468.719 906.659 468.719H905.519L905.946 468.228C906.453 467.611 906.263 467.294 905.598 467.658C904.917 468.038 900.752 469.289 898.979 469.653C897.506 469.938 896.018 470.271 892.281 471.11C891.125 471.379 890.46 471.443 889.272 471.379C888.417 471.332 887.578 471.221 887.388 471.126C887.213 471.031 886.643 470.904 886.137 470.841C885.424 470.762 885.092 470.635 884.727 470.303C884.411 470.002 883.999 469.812 883.508 469.748C883.081 469.685 882.748 469.59 882.748 469.527C882.748 469.463 882.051 469.273 881.212 469.115C879.993 468.893 879.739 468.798 880.024 468.703C880.452 468.545 880.357 468.244 879.882 468.244C879.597 468.244 879.581 468.117 879.581 466.502V464.76H880.262C880.626 464.76 881.038 464.697 881.149 464.618C881.323 464.507 881.481 464.602 881.75 464.966C881.956 465.235 882.115 465.584 882.115 465.742C882.115 466.138 882.431 466.106 883.049 465.647C883.54 465.283 884.015 465.251 884.015 465.584C884.015 465.663 883.651 465.885 883.191 466.09C882.748 466.28 882.447 466.486 882.526 466.55C882.764 466.692 885.155 467.326 885.804 467.405C886.232 467.468 886.39 467.563 886.39 467.769C886.39 467.911 886.533 468.165 886.707 468.323C887.023 468.608 887.039 468.608 887.451 468.197L887.879 467.785L888.433 468.276C888.971 468.751 889.003 468.767 890.19 468.672C890.982 468.608 891.473 468.64 891.584 468.751C891.711 468.877 891.932 468.767 892.423 468.371L893.088 467.816L893.785 468.339C894.181 468.64 894.561 468.877 894.624 468.877C894.703 468.877 894.925 468.672 895.131 468.402C895.368 468.07 895.606 467.927 895.907 467.927C896.366 467.927 896.841 467.563 896.841 467.215C896.841 467.088 897.094 466.961 897.459 466.898C897.791 466.851 898.377 466.708 898.757 466.597L899.454 466.391L898.678 465.995L897.886 465.6L898.599 465.489C899.628 465.33 899.881 465.125 899.169 465.014C898.852 464.966 898.33 464.871 898.013 464.824L897.443 464.744L897.855 464.301C898.124 464.016 898.266 463.699 898.266 463.367C898.266 463.082 898.345 462.86 898.456 462.86C898.551 462.86 898.52 462.749 898.361 462.575C897.981 462.148 897.047 461.91 895.701 461.91C893.12 461.91 890.016 461.087 887.546 459.756C884.807 458.268 881.592 455.434 880.009 453.106C879.28 452.045 879.233 451.918 879.169 450.731C879.138 450.05 878.995 448.355 878.853 446.978C878.71 445.6 878.647 444.428 878.694 444.365C878.742 444.317 878.789 444.476 878.789 444.697C878.789 444.935 878.868 445.125 878.948 445.125C879.043 445.125 879.106 445.014 879.106 444.872C879.106 444.729 879.201 444.65 879.312 444.682C879.423 444.729 879.549 445.172 879.597 445.743C879.676 446.534 879.787 446.819 880.119 447.152L880.531 447.579V447.104C880.531 446.835 880.468 446.376 880.373 446.075C880.246 445.616 880.262 445.489 880.563 445.172C880.99 444.729 881.165 444.856 881.655 445.964C882.02 446.803 882.02 446.803 882.732 446.788C883.397 446.788 883.476 446.835 883.714 447.326C884.015 447.959 884.458 448.26 884.585 447.912C884.648 447.738 884.775 447.706 885.044 447.817C885.456 447.975 885.646 447.833 885.836 447.199C885.947 446.835 885.963 446.835 886.121 447.12C886.422 447.706 887.277 448.482 888.005 448.862C888.955 449.353 889.019 449.337 889.225 448.751C889.525 447.896 890.016 447.532 890.84 447.532C891.315 447.548 891.869 447.405 892.455 447.136C893.547 446.613 893.611 446.613 894.387 447.136C894.798 447.421 895.273 447.579 895.812 447.611C896.556 447.674 896.619 447.643 896.92 447.152C897.19 446.708 897.348 446.629 897.934 446.582C898.567 446.534 898.615 446.503 898.535 446.138C898.504 445.933 898.535 445.711 898.615 445.663C898.694 445.616 898.662 445.457 898.551 445.315C898.361 445.093 898.425 445.077 899.074 445.172C899.549 445.236 899.897 445.204 900.071 445.077C900.293 444.903 900.309 444.84 900.087 444.428C899.691 443.684 899.834 443.573 901.196 443.668C902.415 443.747 902.415 443.747 902.193 443.399C901.988 443.066 900.879 442.433 900.499 442.433C900.087 442.433 900.515 442.132 901.275 441.879C902.114 441.594 902.383 441.293 902.383 440.628C902.383 440.184 902.098 439.979 901.243 439.82C900.325 439.646 900.277 439.171 901.101 438.474C902.589 437.239 902.938 436.907 902.827 436.812C902.763 436.748 902.288 436.812 901.766 436.938C901.243 437.081 900.673 437.144 900.499 437.097C900.214 437.033 900.246 436.986 900.689 436.558C901.307 436.004 901.196 436.004 899.343 436.495C898.535 436.717 897.696 436.891 897.459 436.891C897.237 436.891 896.999 436.954 896.904 437.049C896.651 437.302 893.215 437.968 891.077 438.173C888.702 438.395 885.963 438.284 884.997 437.936C884.632 437.809 883.746 437.588 883.033 437.445C881.529 437.16 880.373 436.669 878.995 435.735C878.108 435.149 877.998 435.006 877.998 434.563C877.998 434.262 878.077 434.056 878.172 434.088C878.267 434.104 878.425 433.898 878.536 433.645C878.631 433.375 878.789 433.027 878.884 432.869C879.074 432.552 879.09 432.552 879.739 432.853C880.119 433.027 880.468 433.312 880.547 433.518C880.674 433.882 881.212 434.025 881.386 433.74C881.434 433.676 882.02 433.771 882.701 433.961C884.062 434.357 886.675 434.769 886.818 434.611C886.881 434.563 886.818 434.341 886.707 434.12C886.406 433.565 886.596 433.47 887.15 433.882L887.625 434.246L888.449 433.423C889.383 432.489 889.779 432.425 890.19 433.17C890.491 433.724 890.982 433.898 890.982 433.455C890.982 433.296 890.761 432.885 890.507 432.552C890.238 432.204 890.032 431.871 890.032 431.792C890.032 431.507 890.539 431.697 890.935 432.14C891.457 432.726 891.679 432.742 891.536 432.188C891.473 431.934 891.489 431.792 891.536 431.855C891.6 431.919 891.901 431.871 892.186 431.744C892.708 431.523 892.724 431.523 893.152 432.109C893.943 433.185 894.355 433.36 894.656 432.695C894.767 432.441 894.957 432.299 895.178 432.299C895.543 432.299 895.923 431.95 896.097 431.459C896.16 431.285 896.366 431.19 896.683 431.19C897.285 431.19 897.791 430.937 897.791 430.652C897.791 430.319 898.33 429.923 898.773 429.923C899.011 429.923 899.264 429.781 899.391 429.607C899.517 429.417 899.945 429.195 900.404 429.068C900.895 428.942 901.212 428.783 901.243 428.609C901.291 428.387 901.212 428.372 900.768 428.498C900.293 428.641 900.277 428.625 900.547 428.419C900.721 428.292 900.974 428.182 901.117 428.182C901.259 428.182 901.465 428.007 901.56 427.786C901.655 427.564 901.845 427.39 901.972 427.39C902.098 427.39 902.399 427.311 902.621 427.231C903.033 427.073 903.033 427.057 902.795 426.677C902.653 426.471 902.589 426.17 902.653 426.028C902.732 425.806 902.7 425.775 902.447 425.87C901.956 426.06 901.829 426.06 901.861 425.838C901.892 425.743 901.782 425.648 901.639 425.648C901.164 425.648 901.623 425.395 902.938 424.951C904.347 424.46 904.632 424.286 904.236 424.128C904.094 424.08 903.666 424.175 903.286 424.365C902.526 424.73 901.655 424.809 901.544 424.492C901.497 424.349 901.433 424.349 901.227 424.508C900.974 424.714 899.929 424.634 899.771 424.381C899.739 424.318 900.008 424.175 900.372 424.064C900.737 423.954 901.639 423.558 902.399 423.194C903.682 422.544 904.268 422.101 904.078 421.911C904.03 421.863 902.273 422.402 900.166 423.114C895.559 424.65 893.801 425.094 891.346 425.331C890.317 425.426 889.034 425.569 888.512 425.648C887.103 425.87 884.949 425.838 883.73 425.585C883.144 425.458 882.035 425.252 881.244 425.11C879.597 424.809 878.298 424.239 877.855 423.605C877.57 423.209 877.538 422.782 877.427 419.061C877.332 415.387 877.348 414.833 877.602 413.74C877.887 412.521 877.903 412.505 878.663 412.109C879.074 411.887 879.486 411.713 879.581 411.713C879.676 411.713 879.866 411.967 879.993 412.267C880.294 412.98 880.784 412.996 881.576 412.315C881.956 411.982 882.32 411.808 882.653 411.792C883.096 411.792 883.16 411.729 883.286 411.111C883.429 410.526 883.492 410.446 883.872 410.446C884.648 410.446 885.107 410.177 885.25 409.639C885.345 409.243 885.472 409.116 885.82 409.069C886.121 409.021 886.343 409.1 886.485 409.29C886.596 409.449 886.707 409.496 886.707 409.401C886.707 409.306 887.134 409.037 887.641 408.815C888.148 408.594 888.686 408.261 888.813 408.071C889.034 407.754 889.114 407.739 889.605 407.897C889.905 407.992 890.254 408.039 890.38 407.992C890.507 407.944 890.903 407.96 891.267 408.055C891.774 408.166 891.932 408.15 891.932 407.992C891.932 407.881 891.821 407.754 891.695 407.691C891.346 407.564 891.41 407.153 891.806 407.026C891.98 406.979 892.645 406.614 893.262 406.25C893.88 405.886 894.561 405.522 894.767 405.458C895.068 405.363 895.115 405.268 895.036 404.888C894.973 404.556 895.02 404.397 895.178 404.334C895.368 404.255 895.368 404.192 895.147 403.859C894.909 403.495 894.909 403.463 895.4 403.305C895.669 403.21 895.891 403.067 895.891 403.004C895.891 402.925 896.255 402.656 896.699 402.386C897.253 402.038 897.475 401.8 897.443 401.61C897.411 401.468 897.269 401.373 897.142 401.405C896.714 401.531 895.416 401.61 895.416 401.5C895.416 401.151 895.844 400.771 896.714 400.344C897.665 399.869 899.343 398.538 898.662 398.808C895.131 400.201 891.046 400.945 887.039 400.945C885.487 400.945 885.234 400.898 883.571 400.312C882.59 399.964 881.37 399.631 880.879 399.584C880.373 399.52 879.676 399.314 879.296 399.093C878.314 398.538 877.491 397.763 877.586 397.509C877.697 397.224 876.952 396.037 876.652 396.037C876.477 396.037 876.414 396.211 876.398 396.622C876.398 396.955 876.335 397.367 876.271 397.541C876.208 397.699 876.097 395.989 876.034 393.725C875.971 391.144 875.986 389.465 876.081 389.212L876.24 388.832V389.196C876.256 389.782 876.572 389.418 876.572 388.816C876.572 388.198 877.047 388.024 877.063 388.626C877.063 388.832 877.19 389.386 877.348 389.861L877.617 390.732L877.792 390.225C878.045 389.544 878.568 389.671 878.9 390.526C879.169 391.191 879.486 391.254 879.502 390.637C879.549 389.623 879.565 389.576 879.914 389.655C880.135 389.718 880.373 390.019 880.563 390.51C880.753 390.938 880.959 391.286 881.022 391.286C881.101 391.286 881.26 391.033 881.386 390.732C881.655 390.114 882.02 390.019 882.273 390.494C882.495 390.922 883.049 391.207 883.255 391.001C883.366 390.89 883.318 390.653 883.081 390.288C882.574 389.465 882.685 388.657 883.223 389.307C883.54 389.687 883.666 389.592 883.777 388.927C883.904 388.214 884.252 387.977 884.506 388.452C884.791 388.99 885.772 390.019 886.01 390.019C886.295 390.019 886.295 389.655 885.994 388.689C885.693 387.691 885.693 387.596 886.058 387.834C886.295 387.977 886.422 387.977 886.612 387.818C886.944 387.533 886.928 387.47 886.469 386.789C885.963 386.029 886.311 386.045 886.96 386.805C887.53 387.47 887.815 387.406 887.815 386.583C887.815 386.171 887.894 386.013 888.132 385.95C888.512 385.855 888.528 385.617 888.211 385.205C887.815 384.683 887.894 384.445 888.401 384.683C888.765 384.841 888.844 384.825 888.987 384.572C889.082 384.398 889.399 383.986 889.7 383.654L890.238 383.052L889.858 382.719C889.652 382.545 889.288 382.355 889.034 382.308C888.797 382.26 888.559 382.149 888.512 382.07C888.449 381.975 888.654 381.975 889.003 382.038C889.43 382.118 889.636 382.086 889.731 381.928C889.89 381.674 889.921 380.977 889.779 380.613C889.668 380.328 889.082 380.265 889.082 380.534C889.082 380.629 888.971 380.582 888.829 380.439C888.623 380.233 888.528 380.233 888.322 380.392C888.1 380.582 888.1 380.55 888.322 380.202C888.464 379.98 888.654 379.505 888.765 379.125C888.86 378.761 889.003 378.46 889.082 378.46C889.177 378.46 889.24 378.333 889.24 378.191C889.24 377.985 889.114 378.048 888.718 378.428C888.433 378.713 888.148 378.903 888.1 378.856C888.069 378.808 887.229 378.951 886.263 379.172C885.297 379.394 884.427 379.568 884.332 379.568C884.205 379.568 884.189 379.394 884.252 379.046C884.411 378.365 884.601 378.143 885.076 378.143H885.472L885.044 377.573L884.617 377.019L885.028 376.195C885.266 375.704 885.392 375.229 885.345 375.024C885.297 374.849 885.329 374.643 885.424 374.596C885.693 374.422 885.63 373.709 885.345 373.709C885.202 373.709 884.522 373.963 883.809 374.295C882.495 374.881 881.069 375.119 878.789 375.166C877.807 375.198 876.097 374.897 875.955 374.691C875.907 374.612 875.543 374.453 875.163 374.327C874.34 374.073 874.118 373.709 874.751 373.709C875.1 373.709 875.147 373.662 875.005 373.488C874.862 373.313 874.894 373.171 875.211 372.838C875.432 372.601 875.622 372.347 875.654 372.252C875.686 372.173 876.129 372.363 876.652 372.664C877.158 372.981 877.681 373.234 877.792 373.234C877.903 373.234 878.283 373.06 878.631 372.838C878.995 372.617 879.502 372.395 879.771 372.332L880.278 372.237L879.565 372.031C876.557 371.191 876.557 371.191 877.032 370.716C877.269 370.479 877.538 370.384 877.807 370.416C878.172 370.463 878.235 370.4 878.283 370.035C878.33 369.687 878.251 369.576 877.934 369.497C877.491 369.386 877.396 369.18 877.728 369.07C877.823 369.038 877.586 368.959 877.19 368.895C876.699 368.832 876.176 368.579 875.622 368.167C875.084 367.771 874.545 367.518 874.102 367.439C873.58 367.359 873.405 367.264 873.405 367.059C873.405 366.758 873.611 366.71 876.018 366.488C876.652 366.425 877.237 366.283 877.412 366.14C877.903 365.713 877.76 364.778 876.873 362.91C875.828 360.661 875.464 359.774 875.543 359.774C875.591 359.774 875.796 360.107 876.002 360.519C876.541 361.595 877.348 362.656 877.522 362.546C877.617 362.498 877.681 362.261 877.681 362.039C877.681 361.817 877.76 361.342 877.871 360.994L878.061 360.36L877.127 359.489C876.604 359.014 876.319 358.666 876.493 358.745C877.332 359.062 877.887 359.157 878.251 359.03L878.647 358.904L877.807 357.637C876.905 356.275 876.271 355.737 875.337 355.578C874.767 355.483 874.704 355.42 873.659 353.425C872.17 350.638 872.218 350.685 871.901 351.445ZM870.84 373.662C870.808 373.883 870.65 373.931 870.08 373.899C869.684 373.883 869.177 373.963 868.924 374.089C868.211 374.469 867.752 374.153 868.275 373.646C868.449 373.456 868.845 373.393 869.7 373.393C870.745 373.393 870.888 373.424 870.84 373.662ZM871.885 373.773C871.838 373.915 871.632 374.026 871.442 374.026C871.109 374.01 871.109 374.01 871.489 373.693C871.901 373.345 872.044 373.377 871.885 373.773ZM870.397 376.084C870.397 376.132 870.096 376.29 869.747 376.433C869.098 376.702 869.035 377.035 869.621 377.035C869.779 377.035 869.922 377.13 869.922 377.24C869.922 377.383 870.112 377.43 870.523 377.399L871.109 377.335L870.397 377.731C869.668 378.143 868.592 378.27 868.417 377.969C868.354 377.89 868.433 377.668 868.592 377.494C868.94 377.114 868.813 377.114 867.847 377.525L867.071 377.858L866.28 377.256C865.852 376.924 865.488 376.607 865.488 376.56C865.488 376.354 867.309 376.148 867.8 376.29C868.354 376.464 868.892 376.338 868.734 376.1C868.687 376.005 868.845 375.847 869.067 375.72C869.447 375.53 869.557 375.53 869.953 375.752C870.191 375.894 870.397 376.037 870.397 376.084ZM871.822 376.005C871.822 376.243 871.727 376.401 871.6 376.401C871.252 376.401 871.125 376.1 871.347 375.847C871.632 375.499 871.822 375.562 871.822 376.005ZM871.679 377.858C871.22 378.048 871.173 377.985 871.458 377.605C871.695 377.272 871.759 377.256 871.838 377.478C871.901 377.652 871.838 377.795 871.679 377.858ZM878.314 384.667C878.314 384.857 877.348 384.984 876.636 384.873L875.939 384.778V383.4L875.955 382.023L877.127 383.289C877.776 383.986 878.298 384.604 878.314 384.667ZM871.98 384.224C871.98 384.271 871.917 384.35 871.822 384.398C871.743 384.445 871.664 384.414 871.664 384.334C871.664 384.239 871.743 384.16 871.822 384.16C871.917 384.16 871.98 384.192 871.98 384.224ZM894.941 400.85C894.941 400.898 894.878 400.977 894.783 401.025C894.703 401.072 894.624 401.04 894.624 400.961C894.624 400.866 894.703 400.787 894.783 400.787C894.878 400.787 894.941 400.819 894.941 400.85ZM852.994 410.573C852.788 410.636 851.553 409.702 851.553 409.48C851.553 409.401 851.917 409.607 852.361 409.924C852.82 410.24 853.105 410.541 852.994 410.573ZM855.195 411.064C855.195 411.301 854.958 411.396 854.578 411.286C854.308 411.222 854.277 411.159 854.435 411.064C854.72 410.874 855.195 410.89 855.195 411.064ZM852.139 417.05C851.996 417.192 851.838 417.271 851.775 417.224C851.616 417.065 851.87 416.78 852.155 416.78C852.392 416.78 852.392 416.796 852.139 417.05ZM849.178 430.873C849.305 430.953 849.368 431.048 849.32 431.095C849.273 431.143 849.099 431.079 848.924 430.953C848.592 430.699 848.798 430.636 849.178 430.873ZM863.841 450.588C863.54 451.063 863.113 451.111 863.113 450.683C863.113 450.493 863.271 450.319 863.556 450.224C864.11 450.034 864.158 450.097 863.841 450.588ZM880.436 463.161L880.895 463.256L880.278 463.794L879.676 464.333L879.565 463.953C879.296 463.003 879.375 462.923 880.436 463.161ZM862.954 475.433C862.954 475.465 862.843 475.528 862.717 475.591C862.59 475.639 862.479 475.607 862.479 475.528C862.479 475.433 862.59 475.37 862.717 475.37C862.843 475.37 862.954 475.401 862.954 475.433ZM908.638 498.806C908.591 498.885 908.48 498.964 908.385 498.964C908.306 498.964 908.242 498.885 908.242 498.806C908.242 498.711 908.353 498.647 908.496 498.647C908.622 498.647 908.686 498.711 908.638 498.806ZM865.979 502.875C865.9 503.033 865.63 503.334 865.393 503.556C864.949 503.968 864.981 503.809 865.52 503.033C865.868 502.558 866.232 502.432 865.979 502.875ZM887.023 518.758C887.023 518.837 886.992 518.916 886.96 518.916C886.913 518.916 886.833 518.837 886.786 518.758C886.738 518.663 886.77 518.599 886.849 518.599C886.944 518.599 887.023 518.663 887.023 518.758ZM868.671 550.19C868.972 550.317 869.098 550.412 868.972 550.412C868.75 550.412 867.831 549.968 868.037 549.952C868.101 549.952 868.386 550.063 868.671 550.19Z" fill="#101010"/>
</g>
<defs>
<clipPath id="clip0">
<rect width="1600" height="1200" fill="white"/>
</clipPath>
</defs>
</svg>
